<svg width="24" height="24" viewBox="0 0 24 24" fill="none" xmlns="http://www.w3.org/2000/svg">
    <path fill-rule="evenodd" clip-rule="evenodd" d="M4.29808 1.29776C5.88389 1.1872 8.40397 1.07129 11.9999 1.07129C15.5957 1.07129 18.1158 1.1872 19.7016 1.29776C21.2878 1.40834 22.5488 2.6055 22.6898 4.20847C22.8108 5.58566 22.9284 7.66442 22.9284 10.5427C22.9284 13.421 22.8108 15.4998 22.6898 16.877C22.5488 18.48 21.2878 19.6771 19.7016 19.7877C18.1158 19.8983 15.5957 20.0141 11.9999 20.0141C10.1373 20.0141 8.56348 19.9831 7.25856 19.9377L3.87763 22.8357C2.77489 23.7809 1.07129 22.9973 1.07129 21.5449V10.5427C1.07129 7.66442 1.18892 5.58566 1.30997 4.20847C1.45087 2.6055 2.71186 1.40834 4.29808 1.29776ZM5.77223 10.133C5.6252 9.25271 6.36455 8.59986 7.14281 8.59986H16.8571C17.6354 8.59986 18.3747 9.25271 18.2277 10.133C17.7284 13.1219 15.1307 15.3999 12 15.3999C8.86919 15.3999 6.27149 13.1219 5.77223 10.133Z" fill="black"/>
</svg>    