<svg width="1520" height="1474" viewBox="0 0 1520 1474" fill="none" xmlns="http://www.w3.org/2000/svg">
    <path d="M1518.29 552.838L1518.13 552.049L1517.37 551.76L1518.16 551.598L1518.45 550.845L1518.62 551.635L1519.37 551.923L1518.58 552.086L1518.29 552.838Z" fill="white"/>
    <path d="M1342.35 647.59L1342.19 646.801L1341.43 646.512L1342.22 646.35L1342.51 645.597L1342.67 646.387L1343.43 646.675L1342.64 646.838L1342.35 647.59Z" fill="white"/>
    <path d="M1378.41 518.19L1378.25 517.4L1377.5 517.112L1378.29 516.949L1378.57 516.197L1378.74 516.986L1379.49 517.275L1378.7 517.437L1378.41 518.19Z" fill="white"/>
    <path d="M1439.93 605.164L1439.77 604.375L1439.01 604.086L1439.8 603.924L1440.09 603.171L1440.25 603.96L1441.01 604.249L1440.22 604.412L1439.93 605.164Z" fill="white"/>
    <path d="M1461.14 548.596L1460.98 547.806L1460.23 547.517L1461.02 547.355L1461.31 546.602L1461.47 547.392L1462.22 547.681L1461.43 547.843L1461.14 548.596Z" fill="white"/>
    <path d="M1170.52 750.121L1170.36 749.331L1169.61 749.043L1170.4 748.88L1170.68 748.128L1170.85 748.917L1171.6 749.206L1170.81 749.368L1170.52 750.121Z" fill="white"/>
    <path d="M1367.8 699.916L1367.64 699.127L1366.89 698.838L1367.68 698.676L1367.97 697.923L1368.13 698.713L1368.88 699.001L1368.09 699.164L1367.8 699.916Z" fill="white"/>
    <path d="M1026.98 958.718L1026.82 957.928L1026.06 957.639L1026.85 957.477L1027.14 956.724L1027.3 957.514L1028.06 957.803L1027.27 957.965L1026.98 958.718Z" fill="white"/>
    <path d="M1075.06 678.703L1074.9 677.913L1074.15 677.625L1074.94 677.462L1075.23 676.71L1075.39 677.499L1076.14 677.788L1075.35 677.95L1075.06 678.703Z" fill="white"/>
    <path d="M1267.39 598.093L1267.23 597.304L1266.48 597.015L1267.27 596.852L1267.56 596.1L1267.72 596.889L1268.47 597.178L1267.68 597.34L1267.39 598.093Z" fill="white"/>
    <path d="M1163.45 482.835L1163.29 482.045L1162.53 481.756L1163.32 481.594L1163.61 480.841L1163.78 481.631L1164.53 481.92L1163.74 482.082L1163.45 482.835Z" fill="white"/>
    <path d="M750.499 915.584L750.337 914.794L749.584 914.506L750.374 914.343L750.663 913.591L750.825 914.38L751.578 914.669L750.788 914.831L750.499 915.584Z" fill="white"/>
    <path d="M753.328 1191.36L753.165 1190.57L752.413 1190.28L753.202 1190.11L753.491 1189.36L753.653 1190.15L754.406 1190.44L753.616 1190.6L753.328 1191.36Z" fill="white"/>
    <path d="M434.423 1261.36L434.261 1260.57L433.508 1260.28L434.298 1260.12L434.587 1259.37L434.749 1260.16L435.502 1260.44L434.712 1260.61L434.423 1261.36Z" fill="white"/>
    <path d="M301.487 950.232L301.324 949.443L300.572 949.154L301.361 948.992L301.65 948.239L301.812 949.029L302.565 949.317L301.775 949.48L301.487 950.232Z" fill="white"/>
    <path d="M68.849 900.028L68.6867 899.238L67.934 898.949L68.7237 898.787L69.0123 898.034L69.1747 898.824L69.9274 899.113L69.1377 899.275L68.849 900.028Z" fill="white"/>
    <path d="M262.596 656.783L262.434 655.993L261.681 655.705L262.471 655.542L262.759 654.79L262.922 655.579L263.674 655.868L262.885 656.03L262.596 656.783Z" fill="white"/>
    <path d="M541.196 431.923L541.033 431.133L540.281 430.845L541.07 430.682L541.359 429.93L541.521 430.719L542.274 431.008L541.484 431.17L541.196 431.923Z" fill="white"/>
    <path d="M684.739 824.367L684.576 823.577L683.824 823.289L684.613 823.126L684.902 822.374L685.064 823.163L685.817 823.452L685.027 823.614L684.739 824.367Z" fill="white"/>
    <path d="M932.933 687.895L932.771 687.106L932.018 686.817L932.808 686.655L933.096 685.902L933.259 686.692L934.011 686.98L933.222 687.143L932.933 687.895Z" fill="white"/>
    <path d="M813.432 272.824L813.27 272.034L812.517 271.746L813.307 271.583L813.595 270.831L813.758 271.62L814.51 271.909L813.721 272.071L813.432 272.824Z" fill="white"/>
    <path d="M1065.87 181.607L1065.71 180.817L1064.95 180.529L1065.74 180.366L1066.03 179.614L1066.2 180.403L1066.95 180.692L1066.16 180.854L1065.87 181.607Z" fill="white"/>
    <path d="M1309.11 429.095L1308.95 428.305L1308.2 428.016L1308.99 427.854L1309.28 427.101L1309.44 427.891L1310.19 428.18L1309.4 428.342L1309.11 429.095Z" fill="white"/>
    <path d="M1058.09 633.448L1057.93 632.659L1057.18 632.37L1057.97 632.208L1058.25 631.455L1058.42 632.245L1059.17 632.533L1058.38 632.696L1058.09 633.448Z" fill="white"/>
    <path d="M655.04 1032.26L654.878 1031.47L654.125 1031.18L654.915 1031.02L655.204 1030.26L655.366 1031.05L656.119 1031.34L655.329 1031.5L655.04 1032.26Z" fill="white"/>
    <path d="M565.945 789.012L565.782 788.222L565.03 787.933L565.819 787.771L566.108 787.018L566.27 787.808L567.023 788.097L566.233 788.259L565.945 789.012Z" fill="white"/>
    <path d="M573.016 607.993L572.854 607.203L572.101 606.914L572.891 606.752L573.179 605.999L573.342 606.789L574.094 607.078L573.305 607.24L573.016 607.993Z" fill="white"/>
    <path d="M899.699 674.46L899.536 673.671L898.784 673.382L899.573 673.22L899.862 672.467L900.024 673.257L900.777 673.545L899.987 673.708L899.699 674.46Z" fill="white"/>
    <path d="M874.244 955.889L874.081 955.099L873.329 954.811L874.118 954.648L874.407 953.896L874.569 954.685L875.322 954.974L874.532 955.136L874.244 955.889Z" fill="white"/>
    <path d="M966.167 135.645L966.005 134.856L965.252 134.567L966.042 134.404L966.331 133.652L966.493 134.441L967.246 134.73L966.456 134.892L966.167 135.645Z" fill="white"/>
    <path d="M1196.68 332.221L1196.52 331.431L1195.77 331.143L1196.56 330.98L1196.85 330.228L1197.01 331.017L1197.76 331.306L1196.97 331.468L1196.68 332.221Z" fill="white"/>
    <path d="M814.846 729.615L814.684 728.826L813.931 728.537L814.721 728.374L815.009 727.622L815.172 728.411L815.924 728.7L815.135 728.862L814.846 729.615Z" fill="white"/>
    <path d="M358.055 585.365L357.893 584.576L357.14 584.287L357.93 584.124L358.218 583.372L358.381 584.161L359.133 584.45L358.344 584.612L358.055 585.365Z" fill="white"/>
    <path d="M563.117 255.853L562.954 255.064L562.202 254.775L562.991 254.613L563.28 253.86L563.442 254.65L564.195 254.938L563.405 255.101L563.117 255.853Z" fill="white"/>
    <path d="M826.16 514.654L825.997 513.865L825.245 513.576L826.034 513.414L826.323 512.661L826.485 513.451L827.238 513.739L826.448 513.902L826.16 514.654Z" fill="white"/>
    <path d="M597.764 1383.69L597.602 1382.9L596.849 1382.61L597.639 1382.45L597.927 1381.7L598.09 1382.49L598.842 1382.77L598.053 1382.94L597.764 1383.69Z" fill="white"/>
    <path d="M567.359 1473.49L567.196 1472.7L566.444 1472.41L567.233 1472.25L567.522 1471.5L567.684 1472.29L568.437 1472.58L567.648 1472.74L567.359 1473.49Z" fill="white"/>
    <path d="M0.96623 922.655L0.803888 921.866L0.0512213 921.577L0.840839 921.415L1.12953 920.662L1.29188 921.451L2.04454 921.74L1.25492 921.902L0.96623 922.655Z" fill="white"/>
    <path d="M61.0707 691.431L60.9084 690.641L60.1557 690.353L60.9453 690.19L61.234 689.438L61.3964 690.227L62.149 690.516L61.3594 690.678L61.0707 691.431Z" fill="white"/>
    <path d="M461.293 900.735L461.131 899.945L460.378 899.656L461.168 899.494L461.457 898.741L461.619 899.531L462.372 899.82L461.582 899.982L461.293 900.735Z" fill="white"/>
    <path d="M702.127 541.443L701.802 539.864L700.297 539.286L701.876 538.962L702.453 537.456L702.778 539.035L704.283 539.613L702.704 539.938L702.127 541.443Z" fill="white"/>
    <path d="M997.326 486.66L997.001 485.08L995.496 484.503L997.075 484.178L997.653 482.673L997.977 484.252L999.483 484.83L997.903 485.154L997.326 486.66Z" fill="white"/>
    <path d="M778.123 1113.16L777.798 1111.58L776.293 1111L777.872 1110.68L778.449 1109.17L778.774 1110.75L780.28 1111.33L778.7 1111.65L778.123 1113.16Z" fill="white"/>
    <path d="M1031.97 1037.5L1031.65 1035.92L1030.14 1035.34L1031.72 1035.01L1032.3 1033.51L1032.63 1035.09L1034.13 1035.67L1032.55 1035.99L1031.97 1037.5Z" fill="white"/>
    <path d="M1184 881.225L1183.68 879.646L1182.17 879.069L1183.75 878.744L1184.33 877.239L1184.65 878.818L1186.16 879.395L1184.58 879.72L1184 881.225Z" fill="white"/>
    <path d="M762.566 1347.92L762.242 1346.34L760.736 1345.76L762.315 1345.43L762.893 1343.93L763.218 1345.51L764.723 1346.09L763.144 1346.41L762.566 1347.92Z" fill="white"/>
    <path d="M469.824 769.502L469.499 767.923L467.994 767.346L469.573 767.021L470.151 765.516L470.475 767.095L471.981 767.672L470.401 767.997L469.824 769.502Z" fill="white"/>
    <path d="M980.355 292.912L980.031 291.333L978.525 290.756L980.105 290.431L980.682 288.926L981.007 290.505L982.512 291.082L980.933 291.407L980.355 292.912Z" fill="white"/>
    <path d="M780.244 46.1321L779.919 44.5529L778.414 43.9755L779.993 43.6508L780.571 42.1455L780.895 43.7247L782.401 44.3021L780.821 44.6268L780.244 46.1321Z" fill="white"/>
    <path d="M1123.19 233.515L1122.87 231.936L1121.36 231.359L1122.94 231.034L1123.52 229.529L1123.84 231.108L1125.35 231.685L1123.77 232.01L1123.19 233.515Z" fill="white"/>
    <path d="M909.645 4.41287L909.321 2.83363L907.815 2.25624L909.395 1.93156L909.972 0.426223L910.297 2.00546L911.802 2.58285L910.223 2.90753L909.645 4.41287Z" fill="white"/>
    <path d="M1322.6 363.623L1322.27 362.044L1320.77 361.466L1322.34 361.142L1322.92 359.636L1323.25 361.216L1324.75 361.793L1323.17 362.118L1322.6 363.623Z" fill="white"/>
    <path d="M1361.34 1151L1361.78 1150.33L1361.45 1149.59L1362.13 1150.04L1362.86 1149.71L1362.42 1150.38L1362.75 1151.12L1362.08 1150.67L1361.34 1151Z" fill="white"/>
    <path d="M1169.93 1093.59L1170.37 1092.92L1170.05 1092.18L1170.72 1092.63L1171.46 1092.3L1171.01 1092.97L1171.34 1093.71L1170.67 1093.26L1169.93 1093.59Z" fill="white"/>
    <path d="M1286.93 1027.59L1287.37 1026.92L1287.05 1026.18L1287.72 1026.63L1288.46 1026.3L1288.01 1026.97L1288.34 1027.71L1287.67 1027.26L1286.93 1027.59Z" fill="white"/>
    <path d="M1268.93 1132.59L1269.37 1131.92L1269.05 1131.18L1269.72 1131.63L1270.46 1131.3L1270.01 1131.97L1270.34 1132.71L1269.67 1132.26L1268.93 1132.59Z" fill="white"/>
    <path d="M1323.93 1107.59L1324.37 1106.92L1324.05 1106.18L1324.72 1106.63L1325.46 1106.3L1325.01 1106.97L1325.34 1107.71L1324.67 1107.26L1323.93 1107.59Z" fill="white"/>
    <path d="M975.93 1044.59L976.374 1043.92L976.046 1043.18L976.719 1043.63L977.455 1043.3L977.012 1043.97L977.34 1044.71L976.666 1044.26L975.93 1044.59Z" fill="white"/>
    <path d="M1150.93 1148.59L1151.37 1147.92L1151.05 1147.18L1151.72 1147.63L1152.46 1147.3L1152.01 1147.97L1152.34 1148.71L1151.67 1148.26L1150.93 1148.59Z" fill="white"/>
    <path d="M726.93 1090.59L727.374 1089.92L727.046 1089.18L727.719 1089.63L728.455 1089.3L728.012 1089.97L728.34 1090.71L727.666 1090.26L726.93 1090.59Z" fill="white"/>
    <path d="M958.93 926.593L959.374 925.92L959.046 925.183L959.719 925.627L960.455 925.299L960.012 925.972L960.34 926.708L959.666 926.265L958.93 926.593Z" fill="white"/>
    <path d="M1151.93 1005.59L1152.37 1004.92L1152.05 1004.18L1152.72 1004.63L1153.46 1004.3L1153.01 1004.97L1153.34 1005.71L1152.67 1005.26L1151.93 1005.59Z" fill="white"/>
    <path d="M1159.93 850.593L1160.37 849.92L1160.05 849.183L1160.72 849.627L1161.46 849.299L1161.01 849.972L1161.34 850.708L1160.67 850.265L1159.93 850.593Z" fill="white"/>
    <path d="M561.93 864.593L562.374 863.92L562.046 863.183L562.719 863.627L563.455 863.299L563.012 863.972L563.34 864.708L562.666 864.265L561.93 864.593Z" fill="white"/>
    <path d="M368.93 1061.59L369.374 1060.92L369.046 1060.18L369.719 1060.63L370.455 1060.3L370.012 1060.97L370.34 1061.71L369.666 1061.26L368.93 1061.59Z" fill="white"/>
    <path d="M93.9301 885.593L94.3737 884.92L94.0456 884.183L94.7188 884.627L95.4551 884.299L95.0116 884.972L95.3396 885.708L94.6665 885.265L93.9301 885.593Z" fill="white"/>
    <path d="M219.93 571.593L220.374 570.92L220.046 570.183L220.719 570.627L221.455 570.299L221.012 570.972L221.34 571.708L220.666 571.265L219.93 571.593Z" fill="white"/>
    <path d="M90.9301 371.593L91.3737 370.92L91.0456 370.183L91.7188 370.627L92.4551 370.299L92.0116 370.972L92.3396 371.708L91.6665 371.265L90.9301 371.593Z" fill="white"/>
    <path d="M399.93 336.593L400.374 335.92L400.046 335.183L400.719 335.627L401.455 335.299L401.012 335.972L401.34 336.708L400.666 336.265L399.93 336.593Z" fill="white"/>
    <path d="M755.93 374.593L756.374 373.92L756.046 373.183L756.719 373.627L757.455 373.299L757.012 373.972L757.34 374.708L756.666 374.265L755.93 374.593Z" fill="white"/>
    <path d="M579.93 753.593L580.374 752.92L580.046 752.183L580.719 752.627L581.455 752.299L581.012 752.972L581.34 753.708L580.666 753.265L579.93 753.593Z" fill="white"/>
    <path d="M851.93 832.593L852.374 831.92L852.046 831.183L852.719 831.627L853.455 831.299L853.012 831.972L853.34 832.708L852.666 832.265L851.93 832.593Z" fill="white"/>
    <path d="M1060.93 454.593L1061.37 453.92L1061.05 453.183L1061.72 453.627L1062.46 453.299L1062.01 453.972L1062.34 454.708L1061.67 454.265L1060.93 454.593Z" fill="white"/>
    <path d="M1303.93 568.593L1304.37 567.92L1304.05 567.183L1304.72 567.627L1305.46 567.299L1305.01 567.972L1305.34 568.708L1304.67 568.265L1303.93 568.593Z" fill="white"/>
    <path d="M1300.93 915.593L1301.37 914.92L1301.05 914.183L1301.72 914.627L1302.46 914.299L1302.01 914.972L1302.34 915.708L1301.67 915.265L1300.93 915.593Z" fill="white"/>
    <path d="M978.93 882.593L979.374 881.92L979.046 881.183L979.719 881.627L980.455 881.299L980.012 881.972L980.34 882.708L979.666 882.265L978.93 882.593Z" fill="white"/>
    <path d="M411.93 879.593L412.374 878.92L412.046 878.183L412.719 878.627L413.455 878.299L413.012 878.972L413.34 879.708L412.666 879.265L411.93 879.593Z" fill="white"/>
    <path d="M520.93 644.593L521.374 643.92L521.046 643.183L521.719 643.627L522.455 643.299L522.012 643.972L522.34 644.708L521.666 644.265L520.93 644.593Z" fill="white"/>
    <path d="M653.93 521.593L654.374 520.92L654.046 520.183L654.719 520.627L655.455 520.299L655.012 520.972L655.34 521.708L654.666 521.265L653.93 521.593Z" fill="white"/>
    <path d="M837.93 799.593L838.374 798.92L838.046 798.183L838.719 798.627L839.455 798.299L839.012 798.972L839.34 799.708L838.666 799.265L837.93 799.593Z" fill="white"/>
    <path d="M620.93 980.593L621.374 979.92L621.046 979.183L621.719 979.627L622.455 979.299L622.012 979.972L622.34 980.708L621.666 980.265L620.93 980.593Z" fill="white"/>
    <path d="M1265.93 465.593L1266.37 464.92L1266.05 464.183L1266.72 464.627L1267.46 464.299L1267.01 464.972L1267.34 465.708L1266.67 465.265L1265.93 465.593Z" fill="white"/>
    <path d="M1289.93 767.593L1290.37 766.92L1290.05 766.183L1290.72 766.627L1291.46 766.299L1291.01 766.972L1291.34 767.708L1290.67 767.265L1289.93 767.593Z" fill="white"/>
    <path d="M738.93 778.593L739.374 777.92L739.046 777.183L739.719 777.627L740.455 777.299L740.012 777.972L740.34 778.708L739.666 778.265L738.93 778.593Z" fill="white"/>
    <path d="M517.93 353.593L518.374 352.92L518.046 352.183L518.719 352.627L519.455 352.299L519.012 352.972L519.34 353.708L518.666 353.265L517.93 353.593Z" fill="white"/>
    <path d="M895.93 265.593L896.374 264.92L896.046 264.183L896.719 264.627L897.455 264.299L897.012 264.972L897.34 265.708L896.666 265.265L895.93 265.593Z" fill="white"/>
    <path d="M898.93 634.593L899.374 633.92L899.046 633.183L899.719 633.627L900.455 633.299L900.012 633.972L900.34 634.708L899.666 634.265L898.93 634.593Z" fill="white"/>
    <path d="M122.93 1087.59L123.374 1086.92L123.046 1086.18L123.719 1086.63L124.455 1086.3L124.012 1086.97L124.34 1087.71L123.666 1087.26L122.93 1087.59Z" fill="white"/>
    <path d="M37.9301 1129.59L38.3737 1128.92L38.0456 1128.18L38.7188 1128.63L39.4551 1128.3L39.0116 1128.97L39.3396 1129.71L38.6665 1129.26L37.9301 1129.59Z" fill="white"/>
    <path d="M26.9301 339.593L27.3737 338.92L27.0456 338.183L27.7188 338.627L28.4551 338.299L28.0116 338.972L28.3396 339.708L27.6665 339.265L26.9301 339.593Z" fill="white"/>
    <path d="M232.93 218.593L233.374 217.92L233.046 217.183L233.719 217.627L234.455 217.299L234.012 217.972L234.34 218.708L233.666 218.265L232.93 218.593Z" fill="white"/>
    <path d="M367.93 649.593L368.374 648.92L368.046 648.183L368.719 648.627L369.455 648.299L369.012 648.972L369.34 649.708L368.666 649.265L367.93 649.593Z" fill="white"/>
    <path d="M792.283 565.831L793.17 564.484L792.514 563.012L793.86 563.899L795.333 563.242L794.446 564.589L795.102 566.061L793.756 565.174L792.283 565.831Z" fill="white"/>
    <path d="M1039.76 735.831L1040.65 734.484L1039.99 733.012L1041.34 733.899L1042.81 733.242L1041.92 734.589L1042.58 736.061L1041.23 735.174L1039.76 735.831Z" fill="white"/>
    <path d="M441.759 1023.83L442.646 1022.48L441.99 1021.01L443.336 1021.9L444.809 1021.24L443.922 1022.59L444.578 1024.06L443.231 1023.17L441.759 1023.83Z" fill="white"/>
    <path d="M674.759 1149.83L675.646 1148.48L674.99 1147.01L676.336 1147.9L677.809 1147.24L676.922 1148.59L677.578 1150.06L676.231 1149.17L674.759 1149.83Z" fill="white"/>
    <path d="M892.759 1146.83L893.646 1145.48L892.99 1144.01L894.336 1144.9L895.809 1144.24L894.922 1145.59L895.578 1147.06L894.231 1146.17L892.759 1146.83Z" fill="white"/>
    <path d="M264.759 1178.83L265.646 1177.48L264.99 1176.01L266.336 1176.9L267.809 1176.24L266.922 1177.59L267.578 1179.06L266.231 1178.17L264.759 1178.83Z" fill="white"/>
    <path d="M466.759 562.831L467.646 561.484L466.99 560.012L468.336 560.899L469.809 560.242L468.922 561.589L469.578 563.061L468.231 562.174L466.759 562.831Z" fill="white"/>
    <path d="M1164.76 586.831L1165.65 585.484L1164.99 584.012L1166.34 584.899L1167.81 584.242L1166.92 585.589L1167.58 587.061L1166.23 586.174L1164.76 586.831Z" fill="white"/>
    <path d="M1197.76 270.831L1198.65 269.484L1197.99 268.012L1199.34 268.899L1200.81 268.242L1199.92 269.589L1200.58 271.061L1199.23 270.174L1197.76 270.831Z" fill="white"/>
    <path d="M1307.76 645.831L1308.65 644.484L1307.99 643.012L1309.34 643.899L1310.81 643.242L1309.92 644.589L1310.58 646.061L1309.23 645.174L1307.76 645.831Z" fill="white"/>
    <path d="M1318.76 332.831L1319.65 331.484L1318.99 330.012L1320.34 330.899L1321.81 330.242L1320.92 331.589L1321.58 333.061L1320.23 332.174L1318.76 332.831Z" fill="white"/>
    <path d="M1356.76 878.831L1357.65 877.484L1356.99 876.012L1358.34 876.899L1359.81 876.242L1358.92 877.589L1359.58 879.061L1358.23 878.174L1356.76 878.831Z" fill="white"/>
</svg>    