<svg width="1474" height="1520" viewBox="0 0 1474 1520" fill="none" xmlns="http://www.w3.org/2000/svg">
    <path d="M18.9605 313.353L18.5169 314.026L18.845 314.763L18.1719 314.319L17.4355 314.647L17.8791 313.974L17.551 313.238L18.2241 313.681L18.9605 313.353Z" fill="white"/>
    <path d="M210.37 370.762L209.926 371.436L210.254 372.172L209.581 371.728L208.845 372.056L209.288 371.383L208.96 370.647L209.633 371.091L210.37 370.762Z" fill="white"/>
    <path d="M93.3697 436.762L92.9261 437.436L93.2542 438.172L92.5811 437.728L91.8447 438.056L92.2883 437.383L91.9602 436.647L92.6333 437.091L93.3697 436.762Z" fill="white"/>
    <path d="M111.37 331.762L110.926 332.436L111.254 333.172L110.581 332.728L109.845 333.056L110.288 332.383L109.96 331.647L110.633 332.091L111.37 331.762Z" fill="white"/>
    <path d="M56.3697 356.762L55.9261 357.436L56.2542 358.172L55.5811 357.728L54.8447 358.056L55.2883 357.383L54.9602 356.647L55.6333 357.091L56.3697 356.762Z" fill="white"/>
    <path d="M404.37 419.762L403.926 420.436L404.254 421.172L403.581 420.728L402.845 421.056L403.288 420.383L402.96 419.647L403.633 420.091L404.37 419.762Z" fill="white"/>
    <path d="M229.37 315.762L228.926 316.436L229.254 317.172L228.581 316.728L227.845 317.056L228.288 316.383L227.96 315.647L228.633 316.091L229.37 315.762Z" fill="white"/>
    <path d="M653.37 373.762L652.926 374.436L653.254 375.172L652.581 374.728L651.845 375.056L652.288 374.383L651.96 373.647L652.633 374.091L653.37 373.762Z" fill="white"/>
    <path d="M421.37 537.762L420.926 538.436L421.254 539.172L420.581 538.728L419.845 539.056L420.288 538.383L419.96 537.647L420.633 538.091L421.37 537.762Z" fill="white"/>
    <path d="M228.37 458.762L227.926 459.436L228.254 460.172L227.581 459.728L226.845 460.056L227.288 459.383L226.96 458.647L227.633 459.091L228.37 458.762Z" fill="white"/>
    <path d="M220.37 613.762L219.926 614.436L220.254 615.172L219.581 614.728L218.845 615.056L219.288 614.383L218.96 613.647L219.633 614.091L220.37 613.762Z" fill="white"/>
    <path d="M818.37 599.762L817.926 600.436L818.254 601.172L817.581 600.728L816.845 601.056L817.288 600.383L816.96 599.647L817.633 600.091L818.37 599.762Z" fill="white"/>
    <path d="M1011.37 402.762L1010.93 403.436L1011.25 404.172L1010.58 403.728L1009.84 404.056L1010.29 403.383L1009.96 402.647L1010.63 403.091L1011.37 402.762Z" fill="white"/>
    <path d="M1286.37 578.762L1285.93 579.436L1286.25 580.172L1285.58 579.728L1284.84 580.056L1285.29 579.383L1284.96 578.647L1285.63 579.091L1286.37 578.762Z" fill="white"/>
    <path d="M1160.37 892.762L1159.93 893.436L1160.25 894.172L1159.58 893.728L1158.84 894.056L1159.29 893.383L1158.96 892.647L1159.63 893.091L1160.37 892.762Z" fill="white"/>
    <path d="M1289.37 1092.76L1288.93 1093.44L1289.25 1094.17L1288.58 1093.73L1287.84 1094.06L1288.29 1093.38L1287.96 1092.65L1288.63 1093.09L1289.37 1092.76Z" fill="white"/>
    <path d="M980.37 1127.76L979.926 1128.44L980.254 1129.17L979.581 1128.73L978.845 1129.06L979.288 1128.38L978.96 1127.65L979.633 1128.09L980.37 1127.76Z" fill="white"/>
    <path d="M624.37 1089.76L623.926 1090.44L624.254 1091.17L623.581 1090.73L622.845 1091.06L623.288 1090.38L622.96 1089.65L623.633 1090.09L624.37 1089.76Z" fill="white"/>
    <path d="M800.37 710.762L799.926 711.436L800.254 712.172L799.581 711.728L798.845 712.056L799.288 711.383L798.96 710.647L799.633 711.091L800.37 710.762Z" fill="white"/>
    <path d="M528.37 631.762L527.926 632.436L528.254 633.172L527.581 632.728L526.845 633.056L527.288 632.383L526.96 631.647L527.633 632.091L528.37 631.762Z" fill="white"/>
    <path d="M319.37 1009.76L318.926 1010.44L319.254 1011.17L318.581 1010.73L317.845 1011.06L318.288 1010.38L317.96 1009.65L318.633 1010.09L319.37 1009.76Z" fill="white"/>
    <path d="M76.3697 895.762L75.9261 896.436L76.2542 897.172L75.5811 896.728L74.8447 897.056L75.2883 896.383L74.9602 895.647L75.6333 896.091L76.3697 895.762Z" fill="white"/>
    <path d="M79.3697 548.762L78.9261 549.436L79.2542 550.172L78.5811 549.728L77.8447 550.056L78.2883 549.383L77.9602 548.647L78.6333 549.091L79.3697 548.762Z" fill="white"/>
    <path d="M401.37 581.762L400.926 582.436L401.254 583.172L400.581 582.728L399.845 583.056L400.288 582.383L399.96 581.647L400.633 582.091L401.37 581.762Z" fill="white"/>
    <path d="M968.37 584.762L967.926 585.436L968.254 586.172L967.581 585.728L966.845 586.056L967.288 585.383L966.96 584.647L967.633 585.091L968.37 584.762Z" fill="white"/>
    <path d="M859.37 819.762L858.926 820.436L859.254 821.172L858.581 820.728L857.845 821.056L858.288 820.383L857.96 819.647L858.633 820.091L859.37 819.762Z" fill="white"/>
    <path d="M726.37 942.762L725.926 943.436L726.254 944.172L725.581 943.728L724.845 944.056L725.288 943.383L724.96 942.647L725.633 943.091L726.37 942.762Z" fill="white"/>
    <path d="M542.37 664.762L541.926 665.436L542.254 666.172L541.581 665.728L540.845 666.056L541.288 665.383L540.96 664.647L541.633 665.091L542.37 664.762Z" fill="white"/>
    <path d="M759.37 483.762L758.926 484.436L759.254 485.172L758.581 484.728L757.845 485.056L758.288 484.383L757.96 483.647L758.633 484.091L759.37 483.762Z" fill="white"/>
    <path d="M114.37 998.762L113.926 999.436L114.254 1000.17L113.581 999.728L112.845 1000.06L113.288 999.383L112.96 998.647L113.633 999.091L114.37 998.762Z" fill="white"/>
    <path d="M90.3697 696.762L89.9261 697.436L90.2542 698.172L89.5811 697.728L88.8447 698.056L89.2883 697.383L88.9602 696.647L89.6333 697.091L90.3697 696.762Z" fill="white"/>
    <path d="M641.37 685.762L640.926 686.436L641.254 687.172L640.581 686.728L639.845 687.056L640.288 686.383L639.96 685.647L640.633 686.091L641.37 685.762Z" fill="white"/>
    <path d="M862.37 1110.76L861.926 1111.44L862.254 1112.17L861.581 1111.73L860.845 1112.06L861.288 1111.38L860.96 1110.65L861.633 1111.09L862.37 1110.76Z" fill="white"/>
    <path d="M484.37 1198.76L483.926 1199.44L484.254 1200.17L483.581 1199.73L482.845 1200.06L483.288 1199.38L482.96 1198.65L483.633 1199.09L484.37 1198.76Z" fill="white"/>
    <path d="M481.37 829.762L480.926 830.436L481.254 831.172L480.581 830.728L479.845 831.056L480.288 830.383L479.96 829.647L480.633 830.091L481.37 829.762Z" fill="white"/>
    <path d="M1257.37 376.762L1256.93 377.436L1257.25 378.172L1256.58 377.728L1255.84 378.056L1256.29 377.383L1255.96 376.647L1256.63 377.091L1257.37 376.762Z" fill="white"/>
    <path d="M1342.37 334.762L1341.93 335.436L1342.25 336.172L1341.58 335.728L1340.84 336.056L1341.29 335.383L1340.96 334.647L1341.63 335.091L1342.37 334.762Z" fill="white"/>
    <path d="M1353.37 1124.76L1352.93 1125.44L1353.25 1126.17L1352.58 1125.73L1351.84 1126.06L1352.29 1125.38L1351.96 1124.65L1352.63 1125.09L1353.37 1124.76Z" fill="white"/>
    <path d="M1147.37 1245.76L1146.93 1246.44L1147.25 1247.17L1146.58 1246.73L1145.84 1247.06L1146.29 1246.38L1145.96 1245.65L1146.63 1246.09L1147.37 1245.76Z" fill="white"/>
    <path d="M1012.37 814.762L1011.93 815.436L1012.25 816.172L1011.58 815.728L1010.84 816.056L1011.29 815.383L1010.96 814.647L1011.63 815.091L1012.37 814.762Z" fill="white"/>
    <path d="M588.017 898.525L587.13 899.871L587.786 901.344L586.439 900.457L584.967 901.113L585.854 899.767L585.198 898.294L586.544 899.181L588.017 898.525Z" fill="white"/>
    <path d="M340.541 728.525L339.654 729.871L340.31 731.344L338.964 730.457L337.491 731.113L338.378 729.767L337.722 728.294L339.068 729.181L340.541 728.525Z" fill="white"/>
    <path d="M938.541 440.525L937.654 441.871L938.31 443.344L936.964 442.457L935.491 443.113L936.378 441.767L935.722 440.294L937.068 441.181L938.541 440.525Z" fill="white"/>
    <path d="M705.541 314.525L704.654 315.871L705.31 317.344L703.964 316.457L702.491 317.113L703.378 315.767L702.722 314.294L704.068 315.181L705.541 314.525Z" fill="white"/>
    <path d="M487.541 317.525L486.654 318.871L487.31 320.344L485.964 319.457L484.491 320.113L485.378 318.767L484.722 317.294L486.068 318.181L487.541 317.525Z" fill="white"/>
    <path d="M1115.54 285.525L1114.65 286.871L1115.31 288.344L1113.96 287.457L1112.49 288.113L1113.38 286.767L1112.72 285.294L1114.07 286.181L1115.54 285.525Z" fill="white"/>
    <path d="M913.541 901.525L912.654 902.871L913.31 904.344L911.964 903.457L910.491 904.113L911.378 902.767L910.722 901.294L912.068 902.181L913.541 901.525Z" fill="white"/>
    <path d="M215.541 877.525L214.654 878.871L215.31 880.344L213.964 879.457L212.491 880.113L213.378 878.767L212.722 877.294L214.068 878.181L215.541 877.525Z" fill="white"/>
    <path d="M182.541 1193.52L181.654 1194.87L182.31 1196.34L180.964 1195.46L179.491 1196.11L180.378 1194.77L179.722 1193.29L181.068 1194.18L182.541 1193.52Z" fill="white"/>
    <path d="M72.5411 818.525L71.654 819.871L72.3101 821.344L70.9639 820.457L69.4912 821.113L70.3783 819.767L69.7221 818.294L71.0684 819.181L72.5411 818.525Z" fill="white"/>
    <path d="M61.5411 1131.52L60.654 1132.87L61.3101 1134.34L59.9639 1133.46L58.4912 1134.11L59.3783 1132.77L58.7221 1131.29L60.0684 1132.18L61.5411 1131.52Z" fill="white"/>
    <path d="M23.5411 585.525L22.654 586.871L23.3101 588.344L21.9639 587.457L20.4912 588.113L21.3783 586.767L20.7221 585.294L22.0684 586.181L23.5411 585.525Z" fill="white"/>
    <path d="M552.906 1.36702L552.116 1.52936L551.827 2.28203L551.665 1.49241L550.912 1.20372L551.702 1.04138L551.991 0.288709L552.153 1.07833L552.906 1.36702Z" fill="white"/>
    <path d="M647.659 177.309L646.869 177.471L646.58 178.224L646.418 177.434L645.665 177.145L646.455 176.983L646.744 176.23L646.906 177.02L647.659 177.309Z" fill="white"/>
    <path d="M518.258 141.246L517.469 141.409L517.18 142.161L517.018 141.372L516.265 141.083L517.054 140.921L517.343 140.168L517.506 140.957L518.258 141.246Z" fill="white"/>
    <path d="M605.232 79.728L604.442 79.8903L604.154 80.643L603.991 79.8534L603.239 79.5647L604.028 79.4023L604.317 78.6497L604.479 79.4393L605.232 79.728Z" fill="white"/>
    <path d="M548.663 58.5147L547.874 58.6771L547.585 59.4297L547.423 58.6401L546.67 58.3514L547.46 58.1891L547.748 57.4364L547.911 58.226L548.663 58.5147Z" fill="white"/>
    <path d="M750.189 349.136L749.399 349.298L749.111 350.051L748.948 349.261L748.196 348.972L748.985 348.81L749.274 348.057L749.436 348.847L750.189 349.136Z" fill="white"/>
    <path d="M699.985 151.853L699.195 152.015L698.906 152.768L698.744 151.978L697.991 151.69L698.781 151.527L699.07 150.775L699.232 151.564L699.985 151.853Z" fill="white"/>
    <path d="M958.786 492.678L957.996 492.841L957.707 493.593L957.545 492.804L956.792 492.515L957.582 492.353L957.871 491.6L958.033 492.39L958.786 492.678Z" fill="white"/>
    <path d="M678.771 444.595L677.981 444.757L677.693 445.51L677.53 444.72L676.778 444.432L677.567 444.269L677.856 443.517L678.018 444.306L678.771 444.595Z" fill="white"/>
    <path d="M598.161 252.262L597.371 252.424L597.082 253.177L596.92 252.387L596.167 252.099L596.957 251.936L597.246 251.184L597.408 251.973L598.161 252.262Z" fill="white"/>
    <path d="M482.903 356.207L482.113 356.369L481.824 357.122L481.662 356.332L480.909 356.043L481.699 355.881L481.988 355.128L482.15 355.918L482.903 356.207Z" fill="white"/>
    <path d="M915.652 769.157L914.862 769.319L914.573 770.072L914.411 769.282L913.658 768.994L914.448 768.831L914.737 768.079L914.899 768.868L915.652 769.157Z" fill="white"/>
    <path d="M1191.42 766.329L1190.63 766.491L1190.34 767.244L1190.18 766.454L1189.43 766.165L1190.22 766.003L1190.51 765.25L1190.67 766.04L1191.42 766.329Z" fill="white"/>
    <path d="M1261.43 1085.23L1260.64 1085.4L1260.35 1086.15L1260.19 1085.36L1259.43 1085.07L1260.22 1084.91L1260.51 1084.16L1260.67 1084.95L1261.43 1085.23Z" fill="white"/>
    <path d="M950.3 1218.17L949.511 1218.33L949.222 1219.08L949.06 1218.3L948.307 1218.01L949.096 1217.84L949.385 1217.09L949.548 1217.88L950.3 1218.17Z" fill="white"/>
    <path d="M900.095 1450.81L899.305 1450.97L899.017 1451.72L898.854 1450.93L898.102 1450.64L898.891 1450.48L899.18 1449.73L899.342 1450.52L900.095 1450.81Z" fill="white"/>
    <path d="M656.851 1257.06L656.061 1257.22L655.773 1257.98L655.61 1257.19L654.858 1256.9L655.647 1256.74L655.936 1255.98L656.098 1256.77L656.851 1257.06Z" fill="white"/>
    <path d="M431.991 978.461L431.201 978.623L430.912 979.376L430.75 978.586L429.997 978.297L430.787 978.135L431.076 977.382L431.238 978.172L431.991 978.461Z" fill="white"/>
    <path d="M824.435 834.918L823.645 835.08L823.357 835.833L823.194 835.043L822.442 834.755L823.231 834.592L823.52 833.84L823.682 834.629L824.435 834.918Z" fill="white"/>
    <path d="M687.963 586.723L687.174 586.886L686.885 587.638L686.723 586.849L685.97 586.56L686.76 586.398L687.048 585.645L687.211 586.435L687.963 586.723Z" fill="white"/>
    <path d="M272.892 706.225L272.102 706.387L271.814 707.14L271.651 706.35L270.899 706.061L271.688 705.899L271.977 705.146L272.139 705.936L272.892 706.225Z" fill="white"/>
    <path d="M181.675 453.787L180.886 453.95L180.597 454.702L180.435 453.913L179.682 453.624L180.471 453.462L180.76 452.709L180.923 453.499L181.675 453.787Z" fill="white"/>
    <path d="M429.162 210.543L428.373 210.705L428.084 211.458L427.922 210.668L427.169 210.379L427.959 210.217L428.247 209.464L428.41 210.254L429.162 210.543Z" fill="white"/>
    <path d="M633.516 461.566L632.726 461.728L632.438 462.481L632.275 461.691L631.523 461.402L632.312 461.24L632.601 460.487L632.763 461.277L633.516 461.566Z" fill="white"/>
    <path d="M1032.32 864.616L1031.53 864.779L1031.25 865.531L1031.08 864.742L1030.33 864.453L1031.12 864.291L1031.41 863.538L1031.57 864.328L1032.32 864.616Z" fill="white"/>
    <path d="M789.079 953.712L788.29 953.874L788.001 954.627L787.839 953.837L787.086 953.549L787.876 953.386L788.164 952.634L788.327 953.423L789.079 953.712Z" fill="white"/>
    <path d="M608.06 946.641L607.27 946.803L606.982 947.556L606.819 946.766L606.067 946.478L606.856 946.315L607.145 945.563L607.307 946.352L608.06 946.641Z" fill="white"/>
    <path d="M674.529 619.957L673.739 620.12L673.45 620.872L673.288 620.083L672.535 619.794L673.325 619.632L673.614 618.879L673.776 619.669L674.529 619.957Z" fill="white"/>
    <path d="M955.957 645.413L955.168 645.576L954.879 646.328L954.717 645.539L953.964 645.25L954.754 645.088L955.042 644.335L955.205 645.125L955.957 645.413Z" fill="white"/>
    <path d="M135.713 553.489L134.924 553.652L134.635 554.404L134.473 553.615L133.72 553.326L134.51 553.164L134.798 552.411L134.961 553.201L135.713 553.489Z" fill="white"/>
    <path d="M332.288 322.973L331.499 323.135L331.21 323.888L331.048 323.098L330.295 322.809L331.085 322.647L331.373 321.894L331.536 322.684L332.288 322.973Z" fill="white"/>
    <path d="M729.683 704.81L728.893 704.973L728.605 705.725L728.442 704.936L727.69 704.647L728.479 704.485L728.768 703.732L728.93 704.522L729.683 704.81Z" fill="white"/>
    <path d="M585.433 1161.6L584.643 1161.76L584.355 1162.52L584.192 1161.73L583.44 1161.44L584.229 1161.28L584.518 1160.52L584.68 1161.31L585.433 1161.6Z" fill="white"/>
    <path d="M255.921 956.54L255.132 956.703L254.843 957.455L254.681 956.666L253.928 956.377L254.718 956.215L255.006 955.462L255.169 956.252L255.921 956.54Z" fill="white"/>
    <path d="M514.722 693.497L513.932 693.659L513.644 694.412L513.481 693.622L512.729 693.333L513.518 693.171L513.807 692.418L513.969 693.208L514.722 693.497Z" fill="white"/>
    <path d="M1383.76 921.892L1382.97 922.054L1382.68 922.807L1382.52 922.017L1381.76 921.729L1382.55 921.566L1382.84 920.814L1383 921.603L1383.76 921.892Z" fill="white"/>
    <path d="M1473.56 952.298L1472.77 952.46L1472.48 953.213L1472.32 952.423L1471.57 952.134L1472.36 951.972L1472.64 951.219L1472.81 952.009L1473.56 952.298Z" fill="white"/>
    <path d="M922.723 1518.69L921.933 1518.85L921.645 1519.61L921.482 1518.82L920.73 1518.53L921.519 1518.36L921.808 1517.61L921.97 1518.4L922.723 1518.69Z" fill="white"/>
    <path d="M691.499 1458.59L690.71 1458.75L690.421 1459.5L690.259 1458.71L689.506 1458.42L690.296 1458.26L690.584 1457.51L690.747 1458.3L691.499 1458.59Z" fill="white"/>
    <path d="M900.802 1058.36L900.013 1058.53L899.724 1059.28L899.561 1058.49L898.809 1058.2L899.598 1058.04L899.887 1057.29L900.049 1058.07L900.802 1058.36Z" fill="white"/>
    <path d="M541.511 817.53L539.931 817.855L539.354 819.36L539.029 817.781L537.524 817.203L539.103 816.879L539.681 815.373L540.005 816.952L541.511 817.53Z" fill="white"/>
    <path d="M486.727 522.33L485.148 522.655L484.571 524.16L484.246 522.581L482.741 522.004L484.32 521.679L484.897 520.174L485.222 521.753L486.727 522.33Z" fill="white"/>
    <path d="M1113.22 741.533L1111.65 741.858L1111.07 743.363L1110.74 741.784L1109.24 741.207L1110.82 740.882L1111.39 739.377L1111.72 740.956L1113.22 741.533Z" fill="white"/>
    <path d="M1037.56 487.682L1035.98 488.007L1035.41 489.512L1035.08 487.933L1033.58 487.356L1035.16 487.031L1035.73 485.526L1036.06 487.105L1037.56 487.682Z" fill="white"/>
    <path d="M881.293 335.654L879.714 335.979L879.136 337.484L878.811 335.905L877.306 335.328L878.885 335.003L879.463 333.498L879.787 335.077L881.293 335.654Z" fill="white"/>
    <path d="M1347.98 757.09L1346.4 757.415L1345.83 758.92L1345.5 757.341L1344 756.763L1345.58 756.439L1346.15 754.933L1346.48 756.512L1347.98 757.09Z" fill="white"/>
    <path d="M769.57 1049.83L767.991 1050.16L767.413 1051.66L767.089 1050.08L765.583 1049.51L767.163 1049.18L767.74 1047.68L768.065 1049.25L769.57 1049.83Z" fill="white"/>
    <path d="M292.98 539.301L291.401 539.626L290.824 541.131L290.499 539.552L288.994 538.974L290.573 538.65L291.15 537.144L291.475 538.724L292.98 539.301Z" fill="white"/>
    <path d="M46.2 739.412L44.6207 739.737L44.0433 741.242L43.7187 739.663L42.2133 739.086L43.7926 738.761L44.37 737.256L44.6946 738.835L46.2 739.412Z" fill="white"/>
    <path d="M233.584 396.465L232.005 396.79L231.427 398.295L231.102 396.716L229.597 396.139L231.176 395.814L231.754 394.309L232.078 395.888L233.584 396.465Z" fill="white"/>
    <path d="M4.48123 610.012L2.90199 610.336L2.3246 611.842L1.99992 610.262L0.494583 609.685L2.07382 609.36L2.65121 607.855L2.97589 609.434L4.48123 610.012Z" fill="white"/>
    <path d="M363.691 197.061L362.112 197.386L361.535 198.891L361.21 197.312L359.705 196.735L361.284 196.41L361.861 194.905L362.186 196.484L363.691 197.061Z" fill="white"/>
</svg>    