<svg width="1520" height="1474" viewBox="0 0 1520 1474" fill="none" xmlns="http://www.w3.org/2000/svg">
    <path d="M1206.68 19.1172L1206 18.6737L1205.27 19.0017L1205.71 18.3286L1205.38 17.5923L1206.06 18.0358L1206.79 17.7077L1206.35 18.3809L1206.68 19.1172Z" fill="white"/>
    <path d="M1149.27 210.527L1148.59 210.083L1147.86 210.411L1148.3 209.738L1147.97 209.002L1148.65 209.445L1149.38 209.117L1148.94 209.791L1149.27 210.527Z" fill="white"/>
    <path d="M1083.27 93.5269L1082.59 93.0833L1081.86 93.4114L1082.3 92.7383L1081.97 92.0019L1082.65 92.4455L1083.38 92.1174L1082.94 92.7905L1083.27 93.5269Z" fill="white"/>
    <path d="M1188.27 111.527L1187.59 111.083L1186.86 111.411L1187.3 110.738L1186.97 110.002L1187.65 110.445L1188.38 110.117L1187.94 110.791L1188.27 111.527Z" fill="white"/>
    <path d="M1163.27 56.5269L1162.59 56.0833L1161.86 56.4114L1162.3 55.7383L1161.97 55.0019L1162.65 55.4455L1163.38 55.1174L1162.94 55.7905L1163.27 56.5269Z" fill="white"/>
    <path d="M1100.27 404.527L1099.59 404.083L1098.86 404.411L1099.3 403.738L1098.97 403.002L1099.65 403.445L1100.38 403.117L1099.94 403.791L1100.27 404.527Z" fill="white"/>
    <path d="M1204.27 229.527L1203.59 229.083L1202.86 229.411L1203.3 228.738L1202.97 228.002L1203.65 228.445L1204.38 228.117L1203.94 228.791L1204.27 229.527Z" fill="white"/>
    <path d="M1146.27 653.527L1145.59 653.083L1144.86 653.411L1145.3 652.738L1144.97 652.002L1145.65 652.445L1146.38 652.117L1145.94 652.791L1146.27 653.527Z" fill="white"/>
    <path d="M982.267 421.527L981.594 421.083L980.857 421.411L981.301 420.738L980.973 420.002L981.646 420.445L982.382 420.117L981.939 420.791L982.267 421.527Z" fill="white"/>
    <path d="M1061.27 228.527L1060.59 228.083L1059.86 228.411L1060.3 227.738L1059.97 227.002L1060.65 227.445L1061.38 227.117L1060.94 227.791L1061.27 228.527Z" fill="white"/>
    <path d="M906.267 220.527L905.594 220.083L904.857 220.411L905.301 219.738L904.973 219.002L905.646 219.445L906.382 219.117L905.939 219.791L906.267 220.527Z" fill="white"/>
    <path d="M920.267 818.527L919.594 818.083L918.857 818.411L919.301 817.738L918.973 817.002L919.646 817.445L920.382 817.117L919.939 817.791L920.267 818.527Z" fill="white"/>
    <path d="M1117.27 1011.53L1116.59 1011.08L1115.86 1011.41L1116.3 1010.74L1115.97 1010L1116.65 1010.45L1117.38 1010.12L1116.94 1010.79L1117.27 1011.53Z" fill="white"/>
    <path d="M941.267 1286.53L940.594 1286.08L939.857 1286.41L940.301 1285.74L939.973 1285L940.646 1285.45L941.382 1285.12L940.939 1285.79L941.267 1286.53Z" fill="white"/>
    <path d="M627.267 1160.53L626.594 1160.08L625.857 1160.41L626.301 1159.74L625.973 1159L626.646 1159.45L627.382 1159.12L626.939 1159.79L627.267 1160.53Z" fill="white"/>
    <path d="M427.267 1289.53L426.594 1289.08L425.857 1289.41L426.301 1288.74L425.973 1288L426.646 1288.45L427.382 1288.12L426.939 1288.79L427.267 1289.53Z" fill="white"/>
    <path d="M392.267 980.527L391.594 980.083L390.857 980.411L391.301 979.738L390.973 979.002L391.646 979.445L392.382 979.117L391.939 979.791L392.267 980.527Z" fill="white"/>
    <path d="M430.267 624.527L429.594 624.083L428.857 624.411L429.301 623.738L428.973 623.002L429.646 623.445L430.382 623.117L429.939 623.791L430.267 624.527Z" fill="white"/>
    <path d="M809.267 800.527L808.594 800.083L807.857 800.411L808.301 799.738L807.973 799.002L808.646 799.445L809.382 799.117L808.939 799.791L809.267 800.527Z" fill="white"/>
    <path d="M888.267 528.527L887.594 528.083L886.857 528.411L887.301 527.738L886.973 527.002L887.646 527.445L888.382 527.117L887.939 527.791L888.267 528.527Z" fill="white"/>
    <path d="M510.267 319.527L509.594 319.083L508.857 319.411L509.301 318.738L508.973 318.002L509.646 318.445L510.382 318.117L509.939 318.791L510.267 319.527Z" fill="white"/>
    <path d="M624.267 76.5269L623.594 76.0833L622.857 76.4114L623.301 75.7383L622.973 75.0019L623.646 75.4455L624.382 75.1174L623.939 75.7905L624.267 76.5269Z" fill="white"/>
    <path d="M971.267 79.5269L970.594 79.0833L969.857 79.4114L970.301 78.7383L969.973 78.0019L970.646 78.4455L971.382 78.1174L970.939 78.7905L971.267 79.5269Z" fill="white"/>
    <path d="M938.267 401.527L937.594 401.083L936.857 401.411L937.301 400.738L936.973 400.002L937.646 400.445L938.382 400.117L937.939 400.791L938.267 401.527Z" fill="white"/>
    <path d="M935.267 968.527L934.594 968.083L933.857 968.411L934.301 967.738L933.973 967.002L934.646 967.445L935.382 967.117L934.939 967.791L935.267 968.527Z" fill="white"/>
    <path d="M700.267 859.527L699.594 859.083L698.857 859.411L699.301 858.738L698.973 858.002L699.646 858.445L700.382 858.117L699.939 858.791L700.267 859.527Z" fill="white"/>
    <path d="M577.267 726.527L576.594 726.083L575.857 726.411L576.301 725.738L575.973 725.002L576.646 725.445L577.382 725.117L576.939 725.791L577.267 726.527Z" fill="white"/>
    <path d="M855.267 542.527L854.594 542.083L853.857 542.411L854.301 541.738L853.973 541.002L854.646 541.445L855.382 541.117L854.939 541.791L855.267 542.527Z" fill="white"/>
    <path d="M1036.27 759.527L1035.59 759.083L1034.86 759.411L1035.3 758.738L1034.97 758.002L1035.65 758.445L1036.38 758.117L1035.94 758.791L1036.27 759.527Z" fill="white"/>
    <path d="M521.267 114.527L520.594 114.083L519.857 114.411L520.301 113.738L519.973 113.002L520.646 113.445L521.382 113.117L520.939 113.791L521.267 114.527Z" fill="white"/>
    <path d="M823.267 90.5269L822.594 90.0833L821.857 90.4114L822.301 89.7383L821.973 89.0019L822.646 89.4455L823.382 89.1174L822.939 89.7905L823.267 90.5269Z" fill="white"/>
    <path d="M834.267 641.527L833.594 641.083L832.857 641.411L833.301 640.738L832.973 640.002L833.646 640.445L834.382 640.117L833.939 640.791L834.267 641.527Z" fill="white"/>
    <path d="M409.267 862.527L408.594 862.083L407.857 862.411L408.301 861.738L407.973 861.002L408.646 861.445L409.382 861.117L408.939 861.791L409.267 862.527Z" fill="white"/>
    <path d="M321.267 484.527L320.594 484.083L319.857 484.411L320.301 483.738L319.973 483.002L320.646 483.445L321.382 483.117L320.939 483.791L321.267 484.527Z" fill="white"/>
    <path d="M690.267 481.527L689.594 481.083L688.857 481.411L689.301 480.738L688.973 480.002L689.646 480.445L690.382 480.117L689.939 480.791L690.267 481.527Z" fill="white"/>
    <path d="M1143.27 1257.53L1142.59 1257.08L1141.86 1257.41L1142.3 1256.74L1141.97 1256L1142.65 1256.45L1143.38 1256.12L1142.94 1256.79L1143.27 1257.53Z" fill="white"/>
    <path d="M1185.27 1342.53L1184.59 1342.08L1183.86 1342.41L1184.3 1341.74L1183.97 1341L1184.65 1341.45L1185.38 1341.12L1184.94 1341.79L1185.27 1342.53Z" fill="white"/>
    <path d="M395.267 1353.53L394.594 1353.08L393.857 1353.41L394.301 1352.74L393.973 1352L394.646 1352.45L395.382 1352.12L394.939 1352.79L395.267 1353.53Z" fill="white"/>
    <path d="M274.267 1147.53L273.594 1147.08L272.857 1147.41L273.301 1146.74L272.973 1146L273.646 1146.45L274.382 1146.12L273.939 1146.79L274.267 1147.53Z" fill="white"/>
    <path d="M705.267 1012.53L704.594 1012.08L703.857 1012.41L704.301 1011.74L703.973 1011L704.646 1011.45L705.382 1011.12L704.939 1011.79L705.267 1012.53Z" fill="white"/>
    <path d="M621.504 588.174L620.158 587.287L618.685 587.943L619.572 586.597L618.916 585.124L620.263 586.011L621.735 585.355L620.848 586.701L621.504 588.174Z" fill="white"/>
    <path d="M791.504 340.699L790.158 339.812L788.685 340.468L789.572 339.122L788.916 337.649L790.263 338.536L791.735 337.88L790.848 339.226L791.504 340.699Z" fill="white"/>
    <path d="M1079.5 938.699L1078.16 937.812L1076.69 938.468L1077.57 937.122L1076.92 935.649L1078.26 936.536L1079.74 935.88L1078.85 937.226L1079.5 938.699Z" fill="white"/>
    <path d="M1205.5 705.699L1204.16 704.812L1202.69 705.468L1203.57 704.122L1202.92 702.649L1204.26 703.536L1205.74 702.88L1204.85 704.226L1205.5 705.699Z" fill="white"/>
    <path d="M1202.5 487.699L1201.16 486.812L1199.69 487.468L1200.57 486.122L1199.92 484.649L1201.26 485.536L1202.74 484.88L1201.85 486.226L1202.5 487.699Z" fill="white"/>
    <path d="M1234.5 1115.7L1233.16 1114.81L1231.69 1115.47L1232.57 1114.12L1231.92 1112.65L1233.26 1113.54L1234.74 1112.88L1233.85 1114.23L1234.5 1115.7Z" fill="white"/>
    <path d="M618.504 913.699L617.158 912.812L615.685 913.468L616.572 912.122L615.916 910.649L617.263 911.536L618.735 910.88L617.848 912.226L618.504 913.699Z" fill="white"/>
    <path d="M642.504 215.699L641.158 214.812L639.685 215.468L640.572 214.122L639.916 212.649L641.263 213.536L642.735 212.88L641.848 214.226L642.504 215.699Z" fill="white"/>
    <path d="M326.504 182.699L325.158 181.812L323.685 182.468L324.572 181.122L323.916 179.649L325.263 180.536L326.735 179.88L325.848 181.226L326.504 182.699Z" fill="white"/>
    <path d="M701.504 72.6988L700.158 71.8117L698.685 72.4679L699.572 71.1216L698.916 69.6489L700.263 70.536L701.735 69.8798L700.848 71.2261L701.504 72.6988Z" fill="white"/>
    <path d="M388.504 61.6988L387.158 60.8117L385.685 61.4679L386.572 60.1216L385.916 58.6489L387.263 59.536L388.735 58.8798L387.848 60.2261L388.504 61.6988Z" fill="white"/>
    <path d="M934.504 23.6988L933.158 22.8117L931.685 23.4679L932.572 22.1216L931.916 20.6489L933.263 21.536L934.735 20.8798L933.848 22.2261L934.504 23.6988Z" fill="white"/>
    <path d="M1518.66 553.063L1518.5 552.274L1517.75 551.985L1518.54 551.823L1518.83 551.07L1518.99 551.86L1519.74 552.148L1518.95 552.311L1518.66 553.063Z" fill="white"/>
    <path d="M1342.72 647.816L1342.56 647.026L1341.81 646.737L1342.6 646.575L1342.88 645.822L1343.05 646.612L1343.8 646.901L1343.01 647.063L1342.72 647.816Z" fill="white"/>
    <path d="M1378.78 518.415L1378.62 517.625L1377.87 517.337L1378.66 517.174L1378.95 516.422L1379.11 517.211L1379.86 517.5L1379.07 517.662L1378.78 518.415Z" fill="white"/>
    <path d="M1440.3 605.389L1440.14 604.599L1439.39 604.311L1440.18 604.148L1440.47 603.396L1440.63 604.185L1441.38 604.474L1440.59 604.636L1440.3 605.389Z" fill="white"/>
    <path d="M1461.52 548.821L1461.35 548.031L1460.6 547.742L1461.39 547.58L1461.68 546.827L1461.84 547.617L1462.59 547.906L1461.8 548.068L1461.52 548.821Z" fill="white"/>
    <path d="M1170.89 750.346L1170.73 749.556L1169.98 749.268L1170.77 749.105L1171.06 748.353L1171.22 749.142L1171.97 749.431L1171.18 749.593L1170.89 750.346Z" fill="white"/>
    <path d="M1368.18 700.141L1368.01 699.352L1367.26 699.063L1368.05 698.901L1368.34 698.148L1368.5 698.938L1369.26 699.226L1368.47 699.389L1368.18 700.141Z" fill="white"/>
    <path d="M1027.35 958.943L1027.19 958.153L1026.44 957.864L1027.23 957.702L1027.51 956.949L1027.68 957.739L1028.43 958.028L1027.64 958.19L1027.35 958.943Z" fill="white"/>
    <path d="M1075.43 678.928L1075.27 678.138L1074.52 677.85L1075.31 677.687L1075.6 676.935L1075.76 677.724L1076.51 678.013L1075.72 678.175L1075.43 678.928Z" fill="white"/>
    <path d="M1267.77 598.318L1267.61 597.529L1266.85 597.24L1267.64 597.078L1267.93 596.325L1268.09 597.115L1268.85 597.403L1268.06 597.566L1267.77 598.318Z" fill="white"/>
    <path d="M1163.82 483.06L1163.66 482.27L1162.91 481.982L1163.7 481.819L1163.99 481.067L1164.15 481.856L1164.9 482.145L1164.11 482.307L1163.82 483.06Z" fill="white"/>
    <path d="M750.872 915.809L750.71 915.019L749.957 914.731L750.747 914.568L751.036 913.816L751.198 914.605L751.951 914.894L751.161 915.056L750.872 915.809Z" fill="white"/>
    <path d="M753.701 1191.58L753.538 1190.79L752.786 1190.5L753.575 1190.34L753.864 1189.59L754.026 1190.38L754.779 1190.67L753.989 1190.83L753.701 1191.58Z" fill="white"/>
    <path d="M434.796 1261.58L434.634 1260.79L433.881 1260.51L434.671 1260.34L434.96 1259.59L435.122 1260.38L435.875 1260.67L435.085 1260.83L434.796 1261.58Z" fill="white"/>
    <path d="M301.86 950.457L301.697 949.668L300.945 949.379L301.734 949.217L302.023 948.464L302.185 949.254L302.938 949.542L302.148 949.705L301.86 950.457Z" fill="white"/>
    <path d="M69.2221 900.253L69.0597 899.463L68.3071 899.175L69.0967 899.012L69.3854 898.259L69.5477 899.049L70.3004 899.338L69.5108 899.5L69.2221 900.253Z" fill="white"/>
    <path d="M262.969 657.008L262.807 656.219L262.054 655.93L262.844 655.768L263.132 655.015L263.295 655.804L264.047 656.093L263.258 656.256L262.969 657.008Z" fill="white"/>
    <path d="M541.569 432.148L541.406 431.358L540.654 431.07L541.443 430.907L541.732 430.155L541.894 430.944L542.647 431.233L541.857 431.395L541.569 432.148Z" fill="white"/>
    <path d="M685.112 824.592L684.949 823.803L684.197 823.514L684.986 823.352L685.275 822.599L685.437 823.388L686.19 823.677L685.4 823.84L685.112 824.592Z" fill="white"/>
    <path d="M933.306 688.12L933.144 687.331L932.391 687.042L933.181 686.88L933.469 686.127L933.632 686.917L934.384 687.205L933.595 687.368L933.306 688.12Z" fill="white"/>
    <path d="M813.805 273.049L813.643 272.26L812.89 271.971L813.68 271.809L813.968 271.056L814.131 271.846L814.883 272.134L814.094 272.297L813.805 273.049Z" fill="white"/>
    <path d="M1066.24 181.832L1066.08 181.043L1065.33 180.754L1066.12 180.592L1066.41 179.839L1066.57 180.629L1067.32 180.917L1066.53 181.08L1066.24 181.832Z" fill="white"/>
    <path d="M1309.49 429.32L1309.32 428.53L1308.57 428.241L1309.36 428.079L1309.65 427.326L1309.81 428.116L1310.57 428.405L1309.78 428.567L1309.49 429.32Z" fill="white"/>
    <path d="M1058.46 633.673L1058.3 632.884L1057.55 632.595L1058.34 632.433L1058.63 631.68L1058.79 632.47L1059.54 632.758L1058.75 632.921L1058.46 633.673Z" fill="white"/>
    <path d="M655.413 1032.48L655.251 1031.69L654.498 1031.4L655.288 1031.24L655.577 1030.49L655.739 1031.28L656.492 1031.57L655.702 1031.73L655.413 1032.48Z" fill="white"/>
    <path d="M566.318 789.237L566.155 788.447L565.403 788.158L566.192 787.996L566.481 787.243L566.643 788.033L567.396 788.322L566.606 788.484L566.318 789.237Z" fill="white"/>
    <path d="M573.389 608.218L573.227 607.428L572.474 607.139L573.264 606.977L573.552 606.224L573.715 607.014L574.467 607.303L573.678 607.465L573.389 608.218Z" fill="white"/>
    <path d="M900.072 674.685L899.909 673.896L899.157 673.607L899.946 673.445L900.235 672.692L900.397 673.482L901.15 673.77L900.36 673.933L900.072 674.685Z" fill="white"/>
    <path d="M874.617 956.114L874.454 955.325L873.702 955.036L874.491 954.873L874.78 954.121L874.942 954.91L875.695 955.199L874.905 955.361L874.617 956.114Z" fill="white"/>
    <path d="M966.54 135.87L966.378 135.081L965.625 134.792L966.415 134.63L966.704 133.877L966.866 134.667L967.619 134.955L966.829 135.118L966.54 135.87Z" fill="white"/>
    <path d="M1197.06 332.446L1196.89 331.657L1196.14 331.368L1196.93 331.206L1197.22 330.453L1197.38 331.242L1198.14 331.531L1197.35 331.694L1197.06 332.446Z" fill="white"/>
    <path d="M815.219 729.84L815.057 729.051L814.304 728.762L815.094 728.6L815.382 727.847L815.545 728.637L816.297 728.925L815.508 729.088L815.219 729.84Z" fill="white"/>
    <path d="M358.428 585.59L358.266 584.801L357.513 584.512L358.303 584.35L358.591 583.597L358.754 584.387L359.506 584.675L358.717 584.838L358.428 585.59Z" fill="white"/>
    <path d="M563.49 256.079L563.327 255.289L562.575 255L563.364 254.838L563.653 254.085L563.815 254.875L564.568 255.163L563.778 255.326L563.49 256.079Z" fill="white"/>
    <path d="M826.533 514.879L826.37 514.09L825.618 513.801L826.407 513.639L826.696 512.886L826.858 513.676L827.611 513.964L826.821 514.127L826.533 514.879Z" fill="white"/>
    <path d="M598.137 1383.91L597.975 1383.12L597.222 1382.84L598.012 1382.67L598.3 1381.92L598.463 1382.71L599.215 1383L598.426 1383.16L598.137 1383.91Z" fill="white"/>
    <path d="M567.732 1473.72L567.57 1472.93L566.817 1472.64L567.606 1472.48L567.895 1471.72L568.058 1472.51L568.81 1472.8L568.021 1472.96L567.732 1473.72Z" fill="white"/>
    <path d="M1.33928 922.88L1.17693 922.091L0.424268 921.802L1.21389 921.64L1.50258 920.887L1.66492 921.677L2.41759 921.965L1.62797 922.128L1.33928 922.88Z" fill="white"/>
    <path d="M61.4438 691.656L61.2814 690.867L60.5288 690.578L61.3184 690.415L61.6071 689.663L61.7694 690.452L62.5221 690.741L61.7325 690.903L61.4438 691.656Z" fill="white"/>
    <path d="M461.666 900.96L461.504 900.17L460.751 899.882L461.541 899.719L461.83 898.967L461.992 899.756L462.745 900.045L461.955 900.207L461.666 900.96Z" fill="white"/>
    <path d="M702.5 541.668L702.175 540.089L700.67 539.511L702.249 539.186L702.826 537.681L703.151 539.26L704.656 539.838L703.077 540.162L702.5 541.668Z" fill="white"/>
    <path d="M997.699 486.885L997.374 485.306L995.869 484.728L997.448 484.404L998.026 482.898L998.35 484.478L999.856 485.055L998.276 485.38L997.699 486.885Z" fill="white"/>
    <path d="M778.496 1113.38L778.171 1111.8L776.666 1111.22L778.245 1110.9L778.823 1109.39L779.147 1110.97L780.653 1111.55L779.073 1111.88L778.496 1113.38Z" fill="white"/>
    <path d="M1032.35 1037.72L1032.02 1036.14L1030.52 1035.56L1032.1 1035.24L1032.67 1033.73L1033 1035.31L1034.5 1035.89L1032.92 1036.22L1032.35 1037.72Z" fill="white"/>
    <path d="M1184.38 881.45L1184.05 879.871L1182.55 879.294L1184.13 878.969L1184.7 877.464L1185.03 879.043L1186.53 879.62L1184.95 879.945L1184.38 881.45Z" fill="white"/>
    <path d="M762.939 1348.14L762.615 1346.56L761.109 1345.98L762.689 1345.66L763.266 1344.15L763.591 1345.73L765.096 1346.31L763.517 1346.64L762.939 1348.14Z" fill="white"/>
    <path d="M470.197 769.727L469.872 768.148L468.367 767.571L469.946 767.246L470.524 765.741L470.848 767.32L472.354 767.897L470.774 768.222L470.197 769.727Z" fill="white"/>
    <path d="M980.728 293.137L980.404 291.558L978.898 290.981L980.478 290.656L981.055 289.151L981.38 290.73L982.885 291.307L981.306 291.632L980.728 293.137Z" fill="white"/>
    <path d="M780.617 46.3572L780.292 44.778L778.787 44.2006L780.366 43.8759L780.944 42.3706L781.268 43.9498L782.774 44.5272L781.194 44.8519L780.617 46.3572Z" fill="white"/>
    <path d="M1123.56 233.741L1123.24 232.161L1121.73 231.584L1123.31 231.259L1123.89 229.754L1124.22 231.333L1125.72 231.91L1124.14 232.235L1123.56 233.741Z" fill="white"/>
    <path d="M910.018 4.63796L909.694 3.05873L908.188 2.48134L909.768 2.15665L910.345 0.651321L910.67 2.23056L912.175 2.80795L910.596 3.13263L910.018 4.63796Z" fill="white"/>
    <path d="M1322.97 363.848L1322.64 362.269L1321.14 361.692L1322.72 361.367L1323.3 359.862L1323.62 361.441L1325.13 362.018L1323.55 362.343L1322.97 363.848Z" fill="white"/>
</svg>    