<svg width="1512" height="1501" viewBox="0 0 1512 1501" fill="none" xmlns="http://www.w3.org/2000/svg">
    <path d="M376.39 4.96919L375.669 5.33036L375.585 6.1321L375.224 5.41141L374.422 5.32735L375.143 4.96618L375.227 4.16444L375.588 4.88513L376.39 4.96919Z" fill="white"/>
    <path d="M513.451 150.392L512.73 150.753L512.646 151.555L512.285 150.834L511.483 150.75L512.204 150.389L512.288 149.587L512.649 150.308L513.451 150.392Z" fill="white"/>
    <path d="M379.125 149.05L378.405 149.411L378.321 150.213L377.959 149.492L377.158 149.408L377.878 149.047L377.962 148.245L378.324 148.966L379.125 149.05Z" fill="white"/>
    <path d="M447.214 67.1171L446.494 67.4783L446.409 68.2801L446.048 67.5594L445.247 67.4753L445.967 67.1141L446.051 66.3124L446.413 67.0331L447.214 67.1171Z" fill="white"/>
    <path d="M387.082 61.268L386.362 61.6292L386.278 62.4309L385.916 61.7102L385.115 61.6262L385.835 61.265L385.919 60.4633L386.281 61.184L387.082 61.268Z" fill="white"/>
    <path d="M656.959 289.828L656.239 290.189L656.155 290.991L655.793 290.27L654.992 290.186L655.712 289.825L655.796 289.023L656.158 289.744L656.959 289.828Z" fill="white"/>
    <path d="M557.406 112.261L556.685 112.622L556.601 113.424L556.24 112.703L555.438 112.619L556.159 112.258L556.243 111.456L556.604 112.177L557.406 112.261Z" fill="white"/>
    <path d="M895.6 374.49L894.879 374.851L894.795 375.653L894.434 374.932L893.632 374.848L894.353 374.487L894.437 373.685L894.798 374.406L895.6 374.49Z" fill="white"/>
    <path d="M612.682 400.519L611.961 400.88L611.877 401.681L611.516 400.961L610.714 400.877L611.435 400.515L611.519 399.714L611.88 400.434L612.682 400.519Z" fill="white"/>
    <path d="M485.039 235.602L484.319 235.964L484.235 236.765L483.874 236.045L483.072 235.961L483.792 235.599L483.877 234.798L484.238 235.518L485.039 235.602Z" fill="white"/>
    <path d="M400.611 365.836L399.89 366.198L399.806 366.999L399.445 366.279L398.643 366.195L399.364 365.833L399.448 365.032L399.809 365.752L400.611 365.836Z" fill="white"/>
    <path d="M925.495 652.712L924.774 653.073L924.69 653.875L924.329 653.154L923.527 653.07L924.248 652.709L924.332 651.907L924.693 652.628L925.495 652.712Z" fill="white"/>
    <path d="M1191.14 578.605L1190.42 578.966L1190.33 579.768L1189.97 579.047L1189.17 578.963L1189.89 578.602L1189.97 577.8L1190.34 578.521L1191.14 578.605Z" fill="white"/>
    <path d="M1341.29 868.525L1340.57 868.887L1340.49 869.688L1340.13 868.968L1339.33 868.884L1340.05 868.522L1340.13 867.721L1340.49 868.441L1341.29 868.525Z" fill="white"/>
    <path d="M1075.18 1077.46L1074.45 1077.82L1074.37 1078.62L1074.01 1077.9L1073.21 1077.82L1073.93 1077.45L1074.01 1076.65L1074.37 1077.37L1075.18 1077.46Z" fill="white"/>
    <path d="M1086.89 1315.16L1086.17 1315.52L1086.09 1316.33L1085.73 1315.6L1084.92 1315.52L1085.65 1315.16L1085.73 1314.36L1086.09 1315.08L1086.89 1315.16Z" fill="white"/>
    <path d="M801.79 1190.97L801.07 1191.33L800.986 1192.14L800.624 1191.42L799.823 1191.33L800.543 1190.97L800.627 1190.17L800.989 1190.89L801.79 1190.97Z" fill="white"/>
    <path d="M512.486 980.064L511.765 980.426L511.681 981.227L511.32 980.507L510.518 980.423L511.239 980.061L511.323 979.26L511.684 979.98L512.486 980.064Z" fill="white"/>
    <path d="M854.406 739.841L853.685 740.202L853.601 741.004L853.24 740.283L852.438 740.199L853.159 739.838L853.243 739.036L853.604 739.757L854.406 739.841Z" fill="white"/>
    <path d="M658.347 535.425L657.626 535.786L657.542 536.588L657.181 535.867L656.379 535.783L657.1 535.422L657.184 534.62L657.545 535.341L658.347 535.425Z" fill="white"/>
    <path d="M288.347 758.282L287.626 758.643L287.542 759.445L287.181 758.724L286.379 758.64L287.1 758.279L287.184 757.477L287.545 758.198L288.347 758.282Z" fill="white"/>
    <path d="M134.904 538.056L134.183 538.417L134.099 539.219L133.738 538.498L132.936 538.414L133.657 538.053L133.741 537.251L134.102 537.972L134.904 538.056Z" fill="white"/>
    <path d="M311.001 239.045L310.281 239.406L310.197 240.208L309.835 239.487L309.034 239.403L309.754 239.042L309.838 238.24L310.2 238.961L311.001 239.045Z" fill="white"/>
    <path d="M573.362 428.623L572.641 428.985L572.557 429.786L572.196 429.066L571.394 428.982L572.115 428.62L572.199 427.819L572.56 428.539L573.362 428.623Z" fill="white"/>
    <path d="M1062.9 714.722L1062.18 715.083L1062.09 715.885L1061.73 715.164L1060.93 715.08L1061.65 714.719L1061.73 713.917L1062.1 714.638L1062.9 714.722Z" fill="white"/>
    <path d="M851.001 863.738L850.281 864.099L850.197 864.901L849.835 864.18L849.034 864.096L849.754 863.735L849.838 862.933L850.2 863.654L851.001 863.738Z" fill="white"/>
    <path d="M674.32 903.759L673.599 904.12L673.515 904.922L673.154 904.201L672.352 904.117L673.073 903.756L673.157 902.954L673.518 903.675L674.32 903.759Z" fill="white"/>
    <path d="M653.971 571.003L653.25 571.365L653.166 572.166L652.805 571.446L652.003 571.362L652.724 571L652.808 570.199L653.169 570.919L653.971 571.003Z" fill="white"/>
    <path d="M932.399 522.753L931.678 523.114L931.594 523.916L931.233 523.195L930.431 523.111L931.152 522.75L931.236 521.948L931.597 522.669L932.399 522.753Z" fill="white"/>
    <path d="M116.312 646.256L115.591 646.617L115.507 647.419L115.146 646.699L114.344 646.614L115.065 646.253L115.149 645.452L115.51 646.172L116.312 646.256Z" fill="white"/>
    <path d="M246.528 372.716L245.807 373.077L245.723 373.879L245.362 373.158L244.56 373.074L245.281 372.713L245.365 371.912L245.726 372.632L246.528 372.716Z" fill="white"/>
    <path d="M729.207 638.69L728.487 639.051L728.403 639.853L728.041 639.132L727.24 639.048L727.96 638.687L728.044 637.885L728.406 638.606L729.207 638.69Z" fill="white"/>
    <path d="M708.099 1117.25L707.378 1117.61L707.294 1118.41L706.933 1117.69L706.131 1117.61L706.852 1117.25L706.936 1116.45L707.297 1117.17L708.099 1117.25Z" fill="white"/>
    <path d="M336.742 1004.46L336.021 1004.82L335.937 1005.62L335.576 1004.9L334.774 1004.82L335.495 1004.46L335.579 1003.66L335.94 1004.38L336.742 1004.46Z" fill="white"/>
    <path d="M518.644 683.398L517.923 683.759L517.839 684.561L517.478 683.84L516.676 683.756L517.397 683.395L517.481 682.593L517.842 683.314L518.644 683.398Z" fill="white"/>
    <path d="M1417.18 679.088L1416.46 679.45L1416.37 680.251L1416.01 679.531L1415.21 679.446L1415.93 679.085L1416.02 678.284L1416.38 679.004L1417.18 679.088Z" fill="white"/>
    <path d="M1511.79 685.215L1511.07 685.576L1510.99 686.378L1510.63 685.658L1509.82 685.573L1510.54 685.212L1510.63 684.411L1510.99 685.131L1511.79 685.215Z" fill="white"/>
    <path d="M1126.32 1374.88L1125.6 1375.24L1125.51 1376.04L1125.15 1375.32L1124.35 1375.23L1125.07 1374.87L1125.15 1374.07L1125.52 1374.79L1126.32 1374.88Z" fill="white"/>
    <path d="M887.416 1376.66L886.696 1377.03L886.612 1377.83L886.25 1377.11L885.449 1377.02L886.169 1376.66L886.253 1375.86L886.615 1376.58L887.416 1376.66Z" fill="white"/>
    <path d="M986.003 935.907L985.283 936.268L985.199 937.07L984.837 936.349L984.036 936.265L984.756 935.904L984.84 935.102L985.202 935.823L986.003 935.907Z" fill="white"/>
    <path d="M576.622 796.271L575.18 796.994L575.012 798.597L574.29 797.156L572.687 796.988L574.128 796.265L574.296 794.662L575.018 796.103L576.622 796.271Z" fill="white"/>
    <path d="M447.302 525.309L445.86 526.032L445.692 527.635L444.97 526.194L443.366 526.026L444.808 525.303L444.976 523.7L445.698 525.141L447.302 525.309Z" fill="white"/>
    <path d="M1109.19 574.894L1107.74 575.617L1107.58 577.22L1106.85 575.779L1105.25 575.611L1106.69 574.888L1106.86 573.285L1107.58 574.726L1109.19 574.894Z" fill="white"/>
    <path d="M970.401 349.275L968.96 349.997L968.792 351.601L968.069 350.159L966.466 349.991L967.907 349.269L968.075 347.665L968.798 349.107L970.401 349.275Z" fill="white"/>
    <path d="M780.107 242.873L778.666 243.595L778.498 245.199L777.775 243.757L776.172 243.589L777.613 242.867L777.781 241.263L778.504 242.705L780.107 242.873Z" fill="white"/>
    <path d="M1339.97 529.16L1338.53 529.882L1338.36 531.486L1337.64 530.044L1336.04 529.876L1337.48 529.154L1337.65 527.551L1338.37 528.992L1339.97 529.16Z" fill="white"/>
    <path d="M857.034 961.632L855.593 962.354L855.424 963.958L854.702 962.516L853.099 962.348L854.54 961.626L854.708 960.022L855.43 961.464L857.034 961.632Z" fill="white"/>
    <path d="M264.549 591.847L263.107 592.569L262.939 594.173L262.217 592.732L260.613 592.563L262.055 591.841L262.223 590.238L262.945 591.679L264.549 591.847Z" fill="white"/>
    <path d="M77.9695 849.011L76.5281 849.733L76.36 851.337L75.6376 849.896L74.0342 849.727L75.4756 849.005L75.6437 847.402L76.366 848.843L77.9695 849.011Z" fill="white"/>
    <path d="M170.207 469.252L168.765 469.974L168.597 471.578L167.875 470.136L166.271 469.968L167.713 469.246L167.881 467.642L168.603 469.084L170.207 469.252Z" fill="white"/>
    <path d="M4.18043 734.818L2.73904 735.54L2.57094 737.144L1.84858 735.702L0.2451 735.534L1.68649 734.812L1.8546 733.208L2.57696 734.65L4.18043 734.818Z" fill="white"/>
    <path d="M244.271 242.968L242.83 243.69L242.662 245.294L241.939 243.852L240.336 243.684L241.777 242.962L241.945 241.358L242.668 242.8L244.271 242.968Z" fill="white"/>
    <path d="M994.794 1.75444L994.029 1.50022L993.403 2.0077L993.657 1.2427L993.15 0.616349L993.915 0.870566L994.541 0.363085L994.287 1.12809L994.794 1.75444Z" fill="white"/>
    <path d="M988.881 201.501L988.116 201.246L987.49 201.754L987.744 200.989L987.237 200.362L988.002 200.617L988.628 200.109L988.374 200.874L988.881 201.501Z" fill="white"/>
    <path d="M894.849 105.569L894.084 105.315L893.458 105.823L893.712 105.058L893.204 104.431L893.969 104.686L894.596 104.178L894.341 104.943L894.849 105.569Z" fill="white"/>
    <path d="M1000.93 95.7803L1000.16 95.5261L999.538 96.0336L999.792 95.2686L999.284 94.6422L1000.05 94.8964L1000.68 94.389L1000.42 95.154L1000.93 95.7803Z" fill="white"/>
    <path d="M962.546 49.1246L961.781 48.8703L961.155 49.3778L961.409 48.6128L960.902 47.9865L961.667 48.2407L962.293 47.7332L962.039 48.4982L962.546 49.1246Z" fill="white"/>
    <path d="M991.762 401.572L990.997 401.318L990.371 401.826L990.625 401.061L990.117 400.434L990.882 400.688L991.509 400.181L991.255 400.946L991.762 401.572Z" fill="white"/>
    <path d="M1046.93 205.618L1046.16 205.364L1045.53 205.871L1045.79 205.106L1045.28 204.48L1046.05 204.734L1046.67 204.227L1046.42 204.992L1046.93 205.618Z" fill="white"/>
    <path d="M1100.64 630.182L1099.88 629.928L1099.25 630.435L1099.5 629.67L1099 629.044L1099.76 629.298L1100.39 628.791L1100.13 629.556L1100.64 630.182Z" fill="white"/>
    <path d="M882.183 448.534L881.418 448.28L880.792 448.787L881.046 448.022L880.538 447.396L881.303 447.65L881.93 447.142L881.675 447.907L882.183 448.534Z" fill="white"/>
    <path d="M908.538 241.664L907.773 241.409L907.147 241.917L907.401 241.152L906.894 240.526L907.659 240.78L908.285 240.272L908.031 241.037L908.538 241.664Z" fill="white"/>
    <path d="M756.749 274.053L755.984 273.799L755.358 274.306L755.612 273.541L755.105 272.915L755.87 273.169L756.496 272.661L756.242 273.426L756.749 274.053Z" fill="white"/>
    <path d="M925.046 848.053L924.281 847.799L923.655 848.307L923.909 847.542L923.402 846.915L924.167 847.169L924.793 846.662L924.539 847.427L925.046 848.053Z" fill="white"/>
    <path d="M1165.29 983.489L1164.52 983.235L1163.89 983.743L1164.15 982.978L1163.64 982.351L1164.41 982.605L1165.03 982.098L1164.78 982.863L1165.29 983.489Z" fill="white"/>
    <path d="M1066.46 1294.67L1065.69 1294.42L1065.07 1294.92L1065.32 1294.16L1064.81 1293.53L1065.58 1293.79L1066.21 1293.28L1065.95 1294.05L1066.46 1294.67Z" fill="white"/>
    <path d="M730.546 1254.23L729.781 1253.98L729.155 1254.49L729.409 1253.72L728.902 1253.1L729.667 1253.35L730.293 1252.84L730.039 1253.61L730.546 1254.23Z" fill="white"/>
    <path d="M570.748 1430.6L569.983 1430.35L569.357 1430.86L569.611 1430.09L569.104 1429.46L569.869 1429.72L570.495 1429.21L570.241 1429.98L570.748 1430.6Z" fill="white"/>
    <path d="M456.966 1141.19L456.201 1140.94L455.575 1141.44L455.829 1140.68L455.321 1140.05L456.086 1140.31L456.713 1139.8L456.459 1140.56L456.966 1141.19Z" fill="white"/>
    <path d="M401.532 787.485L400.767 787.231L400.14 787.738L400.394 786.973L399.887 786.347L400.652 786.601L401.278 786.094L401.024 786.859L401.532 787.485Z" fill="white"/>
    <path d="M813.17 859.396L812.405 859.141L811.779 859.649L812.033 858.884L811.526 858.257L812.291 858.512L812.917 858.004L812.663 858.769L813.17 859.396Z" fill="white"/>
    <path d="M819.079 576.217L818.314 575.963L817.688 576.47L817.942 575.705L817.435 575.079L818.2 575.333L818.826 574.825L818.572 575.59L819.079 576.217Z" fill="white"/>
    <path d="M399.867 472.172L399.102 471.918L398.475 472.425L398.729 471.66L398.222 471.034L398.987 471.288L399.613 470.781L399.359 471.546L399.867 472.172Z" fill="white"/>
    <path d="M447.088 207.947L446.323 207.693L445.697 208.2L445.951 207.435L445.444 206.809L446.209 207.063L446.835 206.555L446.581 207.32L447.088 207.947Z" fill="white"/>
    <path d="M783.041 121.034L782.276 120.78L781.65 121.287L781.904 120.522L781.397 119.896L782.162 120.15L782.788 119.643L782.534 120.408L783.041 121.034Z" fill="white"/>
    <path d="M834.505 440.604L833.74 440.349L833.114 440.857L833.368 440.092L832.861 439.465L833.626 439.72L834.252 439.212L833.998 439.977L834.505 440.604Z" fill="white"/>
    <path d="M978.358 989.06L977.593 988.805L976.966 989.313L977.221 988.548L976.713 987.922L977.478 988.176L978.104 987.668L977.85 988.433L978.358 989.06Z" fill="white"/>
    <path d="M723.155 944.596L722.39 944.342L721.763 944.849L722.017 944.084L721.51 943.458L722.275 943.712L722.901 943.205L722.647 943.97L723.155 944.596Z" fill="white"/>
    <path d="M569.922 847.963L569.157 847.709L568.531 848.216L568.785 847.451L568.278 846.825L569.043 847.079L569.669 846.572L569.415 847.337L569.922 847.963Z" fill="white"/>
    <path d="M790.827 598.281L790.062 598.027L789.436 598.534L789.69 597.769L789.183 597.143L789.948 597.397L790.574 596.889L790.32 597.654L790.827 598.281Z" fill="white"/>
    <path d="M1021.82 761.041L1021.06 760.786L1020.43 761.294L1020.69 760.529L1020.18 759.902L1020.94 760.157L1021.57 759.649L1021.32 760.414L1021.82 761.041Z" fill="white"/>
    <path d="M357.433 271.31L356.668 271.056L356.042 271.563L356.296 270.798L355.788 270.172L356.553 270.426L357.18 269.919L356.925 270.684L357.433 271.31Z" fill="white"/>
    <path d="M642.931 169.964L642.166 169.71L641.54 170.218L641.794 169.453L641.286 168.826L642.051 169.081L642.678 168.573L642.423 169.338L642.931 169.964Z" fill="white"/>
    <path d="M796.165 699.343L795.4 699.089L794.774 699.596L795.028 698.831L794.521 698.205L795.286 698.459L795.912 697.951L795.658 698.716L796.165 699.343Z" fill="white"/>
    <path d="M442.846 1022.81L442.081 1022.56L441.455 1023.06L441.709 1022.3L441.201 1021.67L441.966 1021.93L442.593 1021.42L442.339 1022.18L442.846 1022.81Z" fill="white"/>
    <path d="M260.011 680.466L259.246 680.212L258.62 680.72L258.874 679.955L258.366 679.328L259.131 679.582L259.758 679.075L259.504 679.84L260.011 680.466Z" fill="white"/>
    <path d="M615.661 582.064L614.896 581.81L614.27 582.318L614.524 581.553L614.017 580.926L614.782 581.181L615.408 580.673L615.154 581.438L615.661 582.064Z" fill="white"/>
    <path d="M1254.07 1214.38L1253.3 1214.12L1252.68 1214.63L1252.93 1213.87L1252.43 1213.24L1253.19 1213.49L1253.82 1212.99L1253.56 1213.75L1254.07 1214.38Z" fill="white"/>
    <path d="M1316.64 1285.61L1315.87 1285.36L1315.25 1285.86L1315.5 1285.1L1314.99 1284.47L1315.76 1284.73L1316.38 1284.22L1316.13 1284.99L1316.64 1285.61Z" fill="white"/>
    <path d="M556.404 1500.7L555.639 1500.45L555.012 1500.96L555.266 1500.19L554.759 1499.57L555.524 1499.82L556.15 1499.31L555.896 1500.08L556.404 1500.7Z" fill="white"/>
    <path d="M386.209 1333.04L385.444 1332.79L384.818 1333.29L385.072 1332.53L384.565 1331.9L385.33 1332.16L385.956 1331.65L385.702 1332.41L386.209 1333.04Z" fill="white"/>
    <path d="M767.583 1091.09L766.818 1090.83L766.192 1091.34L766.446 1090.58L765.939 1089.95L766.704 1090.21L767.33 1089.7L767.076 1090.46L767.583 1091.09Z" fill="white"/>
    <path d="M576.844 702.875L575.314 702.366L574.062 703.381L574.57 701.851L573.555 700.598L575.085 701.107L576.338 700.092L575.829 701.622L576.844 702.875Z" fill="white"/>
    <path d="M677.001 419.833L675.471 419.325L674.218 420.34L674.726 418.81L673.711 417.557L675.241 418.065L676.494 417.05L675.986 418.58L677.001 419.833Z" fill="white"/>
    <path d="M1109.96 922.917L1108.43 922.408L1107.18 923.423L1107.69 921.893L1106.67 920.64L1108.2 921.149L1109.45 920.134L1108.95 921.664L1109.96 922.917Z" fill="white"/>
    <path d="M1171.36 665.245L1169.83 664.736L1168.58 665.751L1169.09 664.221L1168.07 662.969L1169.6 663.477L1170.86 662.462L1170.35 663.992L1171.36 665.245Z" fill="white"/>
    <path d="M1112.04 455.449L1110.51 454.941L1109.26 455.956L1109.77 454.426L1108.75 453.173L1110.28 453.682L1111.54 452.667L1111.03 454.197L1112.04 455.449Z" fill="white"/>
    <path d="M1305.49 1053.77L1303.96 1053.26L1302.71 1054.28L1303.22 1052.75L1302.2 1051.49L1303.73 1052L1304.98 1050.99L1304.47 1052.52L1305.49 1053.77Z" fill="white"/>
    <path d="M658.199 1018.08L656.669 1017.58L655.416 1018.59L655.925 1017.06L654.91 1015.81L656.44 1016.32L657.692 1015.3L657.184 1016.83L658.199 1018.08Z" fill="white"/>
    <path d="M500.725 337.656L499.195 337.148L497.942 338.163L498.451 336.633L497.436 335.38L498.966 335.889L500.219 334.874L499.71 336.404L500.725 337.656Z" fill="white"/>
    <path d="M186.952 387.567L185.422 387.059L184.169 388.074L184.677 386.544L183.663 385.291L185.193 385.8L186.445 384.785L185.937 386.315L186.952 387.567Z" fill="white"/>
    <path d="M520.704 184.258L519.174 183.75L517.921 184.765L518.429 183.235L517.414 181.982L518.944 182.491L520.197 181.476L519.689 183.006L520.704 184.258Z" fill="white"/>
    <path d="M215.522 254.644L213.992 254.135L212.739 255.15L213.248 253.62L212.233 252.367L213.763 252.876L215.016 251.861L214.507 253.391L215.522 254.644Z" fill="white"/>
    <path d="M733.083 76.6231L731.553 76.1147L730.3 77.1297L730.808 75.5997L729.793 74.347L731.323 74.8554L732.576 73.8404L732.068 75.3704L733.083 76.6231Z" fill="white"/>
</svg>    