<svg width="1529" height="1568" viewBox="0 0 1529 1568" fill="none" xmlns="http://www.w3.org/2000/svg">
    <path d="M1527.29 646.838L1527.13 646.049L1526.37 645.76L1527.16 645.598L1527.45 644.845L1527.62 645.635L1528.37 645.923L1527.58 646.086L1527.29 646.838Z" fill="white"/>
    <path d="M1351.35 741.591L1351.19 740.801L1350.43 740.512L1351.22 740.35L1351.51 739.597L1351.67 740.387L1352.43 740.676L1351.64 740.838L1351.35 741.591Z" fill="white"/>
    <path d="M1387.41 612.19L1387.25 611.4L1386.5 611.112L1387.29 610.949L1387.57 610.197L1387.74 610.986L1388.49 611.275L1387.7 611.437L1387.41 612.19Z" fill="white"/>
    <path d="M1448.93 699.164L1448.77 698.374L1448.01 698.086L1448.8 697.923L1449.09 697.171L1449.25 697.96L1450.01 698.249L1449.22 698.411L1448.93 699.164Z" fill="white"/>
    <path d="M1470.14 642.596L1469.98 641.806L1469.23 641.517L1470.02 641.355L1470.31 640.602L1470.47 641.392L1471.22 641.681L1470.43 641.843L1470.14 642.596Z" fill="white"/>
    <path d="M1179.52 844.121L1179.36 843.331L1178.61 843.043L1179.4 842.88L1179.68 842.128L1179.85 842.917L1180.6 843.206L1179.81 843.368L1179.52 844.121Z" fill="white"/>
    <path d="M1376.8 793.916L1376.64 793.127L1375.89 792.838L1376.68 792.676L1376.97 791.923L1377.13 792.713L1377.88 793.001L1377.09 793.164L1376.8 793.916Z" fill="white"/>
    <path d="M1035.98 1052.72L1035.82 1051.93L1035.06 1051.64L1035.85 1051.48L1036.14 1050.72L1036.3 1051.51L1037.06 1051.8L1036.27 1051.96L1035.98 1052.72Z" fill="white"/>
    <path d="M1084.06 772.703L1083.9 771.913L1083.15 771.625L1083.94 771.462L1084.23 770.71L1084.39 771.499L1085.14 771.788L1084.35 771.95L1084.06 772.703Z" fill="white"/>
    <path d="M1276.39 692.093L1276.23 691.304L1275.48 691.015L1276.27 690.852L1276.56 690.1L1276.72 690.889L1277.47 691.178L1276.68 691.34L1276.39 692.093Z" fill="white"/>
    <path d="M1172.45 576.835L1172.29 576.045L1171.53 575.757L1172.32 575.594L1172.61 574.842L1172.78 575.631L1173.53 575.92L1172.74 576.082L1172.45 576.835Z" fill="white"/>
    <path d="M759.499 1009.58L759.337 1008.79L758.584 1008.51L759.374 1008.34L759.663 1007.59L759.825 1008.38L760.578 1008.67L759.788 1008.83L759.499 1009.58Z" fill="white"/>
    <path d="M762.328 1285.36L762.165 1284.57L761.413 1284.28L762.202 1284.11L762.491 1283.36L762.653 1284.15L763.406 1284.44L762.616 1284.6L762.328 1285.36Z" fill="white"/>
    <path d="M443.423 1355.36L443.261 1354.57L442.508 1354.28L443.298 1354.12L443.587 1353.37L443.749 1354.16L444.502 1354.44L443.712 1354.61L443.423 1355.36Z" fill="white"/>
    <path d="M310.487 1044.23L310.324 1043.44L309.572 1043.15L310.361 1042.99L310.65 1042.24L310.812 1043.03L311.565 1043.32L310.775 1043.48L310.487 1044.23Z" fill="white"/>
    <path d="M77.849 994.028L77.6867 993.238L76.934 992.949L77.7237 992.787L78.0123 992.034L78.1747 992.824L78.9274 993.113L78.1377 993.275L77.849 994.028Z" fill="white"/>
    <path d="M271.596 750.783L271.434 749.993L270.681 749.705L271.471 749.542L271.759 748.79L271.922 749.579L272.674 749.868L271.885 750.03L271.596 750.783Z" fill="white"/>
    <path d="M550.196 525.923L550.033 525.133L549.281 524.844L550.07 524.682L550.359 523.929L550.521 524.719L551.274 525.008L550.484 525.17L550.196 525.923Z" fill="white"/>
    <path d="M693.739 918.367L693.576 917.577L692.824 917.289L693.613 917.126L693.902 916.374L694.064 917.163L694.817 917.452L694.027 917.614L693.739 918.367Z" fill="white"/>
    <path d="M941.933 781.895L941.771 781.106L941.018 780.817L941.808 780.655L942.096 779.902L942.259 780.692L943.011 780.98L942.222 781.143L941.933 781.895Z" fill="white"/>
    <path d="M822.432 366.824L822.27 366.034L821.517 365.746L822.307 365.583L822.595 364.831L822.758 365.62L823.51 365.909L822.721 366.071L822.432 366.824Z" fill="white"/>
    <path d="M1074.87 275.607L1074.71 274.818L1073.95 274.529L1074.74 274.367L1075.03 273.614L1075.2 274.404L1075.95 274.692L1075.16 274.855L1074.87 275.607Z" fill="white"/>
    <path d="M1318.11 523.095L1317.95 522.305L1317.2 522.016L1317.99 521.854L1318.28 521.101L1318.44 521.891L1319.19 522.18L1318.4 522.342L1318.11 523.095Z" fill="white"/>
    <path d="M1067.09 727.448L1066.93 726.659L1066.18 726.37L1066.97 726.207L1067.25 725.455L1067.42 726.244L1068.17 726.533L1067.38 726.695L1067.09 727.448Z" fill="white"/>
    <path d="M664.04 1126.26L663.878 1125.47L663.125 1125.18L663.915 1125.02L664.204 1124.26L664.366 1125.05L665.119 1125.34L664.329 1125.5L664.04 1126.26Z" fill="white"/>
    <path d="M574.945 883.012L574.782 882.222L574.03 881.933L574.819 881.771L575.108 881.018L575.27 881.808L576.023 882.097L575.233 882.259L574.945 883.012Z" fill="white"/>
    <path d="M582.016 701.993L581.854 701.203L581.101 700.914L581.891 700.752L582.179 699.999L582.342 700.789L583.094 701.078L582.305 701.24L582.016 701.993Z" fill="white"/>
    <path d="M908.699 768.46L908.536 767.671L907.784 767.382L908.573 767.22L908.862 766.467L909.024 767.257L909.777 767.545L908.987 767.708L908.699 768.46Z" fill="white"/>
    <path d="M883.244 1049.89L883.081 1049.1L882.329 1048.81L883.118 1048.65L883.407 1047.9L883.569 1048.69L884.322 1048.97L883.532 1049.14L883.244 1049.89Z" fill="white"/>
    <path d="M975.167 229.645L975.005 228.856L974.252 228.567L975.042 228.405L975.331 227.652L975.493 228.442L976.246 228.73L975.456 228.893L975.167 229.645Z" fill="white"/>
    <path d="M1205.68 426.221L1205.52 425.431L1204.77 425.143L1205.56 424.98L1205.85 424.228L1206.01 425.017L1206.76 425.306L1205.97 425.468L1205.68 426.221Z" fill="white"/>
    <path d="M823.846 823.615L823.684 822.826L822.931 822.537L823.721 822.374L824.009 821.622L824.172 822.411L824.924 822.7L824.135 822.862L823.846 823.615Z" fill="white"/>
    <path d="M367.055 679.365L366.893 678.576L366.14 678.287L366.93 678.124L367.218 677.372L367.381 678.161L368.133 678.45L367.344 678.612L367.055 679.365Z" fill="white"/>
    <path d="M572.117 349.853L571.954 349.064L571.202 348.775L571.991 348.613L572.28 347.86L572.442 348.65L573.195 348.938L572.405 349.101L572.117 349.853Z" fill="white"/>
    <path d="M835.16 608.654L834.997 607.865L834.245 607.576L835.034 607.414L835.323 606.661L835.485 607.45L836.238 607.739L835.448 607.902L835.16 608.654Z" fill="white"/>
    <path d="M606.764 1477.69L606.602 1476.9L605.849 1476.61L606.639 1476.45L606.927 1475.7L607.09 1476.49L607.842 1476.77L607.053 1476.94L606.764 1477.69Z" fill="white"/>
    <path d="M576.359 1567.49L576.196 1566.7L575.444 1566.41L576.233 1566.25L576.522 1565.5L576.684 1566.29L577.437 1566.58L576.648 1566.74L576.359 1567.49Z" fill="white"/>
    <path d="M9.96623 1016.66L9.80389 1015.87L9.05122 1015.58L9.84084 1015.41L10.1295 1014.66L10.2919 1015.45L11.0445 1015.74L10.2549 1015.9L9.96623 1016.66Z" fill="white"/>
    <path d="M70.0707 785.431L69.9084 784.641L69.1557 784.353L69.9453 784.19L70.234 783.438L70.3964 784.227L71.149 784.516L70.3594 784.678L70.0707 785.431Z" fill="white"/>
    <path d="M470.293 994.735L470.131 993.945L469.378 993.656L470.168 993.494L470.457 992.741L470.619 993.531L471.372 993.82L470.582 993.982L470.293 994.735Z" fill="white"/>
    <path d="M711.127 635.443L710.802 633.863L709.297 633.286L710.876 632.961L711.453 631.456L711.778 633.035L713.283 633.613L711.704 633.937L711.127 635.443Z" fill="white"/>
    <path d="M1006.33 580.66L1006 579.081L1004.5 578.503L1006.08 578.179L1006.65 576.673L1006.98 578.253L1008.48 578.83L1006.9 579.155L1006.33 580.66Z" fill="white"/>
    <path d="M787.123 1207.16L786.798 1205.58L785.293 1205L786.872 1204.68L787.449 1203.17L787.774 1204.75L789.28 1205.33L787.7 1205.65L787.123 1207.16Z" fill="white"/>
    <path d="M1040.97 1131.5L1040.65 1129.92L1039.14 1129.34L1040.72 1129.01L1041.3 1127.51L1041.63 1129.09L1043.13 1129.67L1041.55 1129.99L1040.97 1131.5Z" fill="white"/>
    <path d="M1193 975.225L1192.68 973.646L1191.17 973.069L1192.75 972.744L1193.33 971.239L1193.65 972.818L1195.16 973.395L1193.58 973.72L1193 975.225Z" fill="white"/>
    <path d="M771.566 1441.92L771.242 1440.34L769.736 1439.76L771.315 1439.43L771.893 1437.93L772.218 1439.51L773.723 1440.09L772.144 1440.41L771.566 1441.92Z" fill="white"/>
    <path d="M478.824 863.502L478.499 861.923L476.994 861.346L478.573 861.021L479.151 859.516L479.475 861.095L480.981 861.672L479.401 861.997L478.824 863.502Z" fill="white"/>
    <path d="M989.355 386.912L989.031 385.333L987.525 384.756L989.105 384.431L989.682 382.926L990.007 384.505L991.512 385.082L989.933 385.407L989.355 386.912Z" fill="white"/>
    <path d="M789.244 140.132L788.919 138.553L787.414 137.975L788.993 137.651L789.571 136.145L789.895 137.725L791.401 138.302L789.821 138.627L789.244 140.132Z" fill="white"/>
    <path d="M1132.19 327.515L1131.87 325.936L1130.36 325.359L1131.94 325.034L1132.52 323.529L1132.84 325.108L1134.35 325.685L1132.77 326.01L1132.19 327.515Z" fill="white"/>
    <path d="M918.645 98.4129L918.321 96.8336L916.815 96.2562L918.395 95.9316L918.972 94.4262L919.297 96.0055L920.802 96.5829L919.223 96.9075L918.645 98.4129Z" fill="white"/>
    <path d="M1331.6 457.623L1331.27 456.044L1329.77 455.467L1331.34 455.142L1331.92 453.637L1332.25 455.216L1333.75 455.793L1332.17 456.118L1331.6 457.623Z" fill="white"/>
    <path d="M552.658 1.19441L551.868 1.35676L551.579 2.10942L551.417 1.3198L550.664 1.03111L551.454 0.868768L551.743 0.116101L551.905 0.905719L552.658 1.19441Z" fill="white"/>
    <path d="M647.411 177.136L646.621 177.298L646.332 178.051L646.17 177.261L645.417 176.973L646.207 176.81L646.496 176.058L646.658 176.847L647.411 177.136Z" fill="white"/>
    <path d="M518.01 141.073L517.221 141.236L516.932 141.988L516.769 141.199L516.017 140.91L516.806 140.748L517.095 139.995L517.257 140.785L518.01 141.073Z" fill="white"/>
    <path d="M604.984 79.5553L604.194 79.7176L603.905 80.4703L603.743 79.6806L602.99 79.3919L603.78 79.2296L604.069 78.4769L604.231 79.2666L604.984 79.5553Z" fill="white"/>
    <path d="M548.415 58.3419L547.626 58.5042L547.337 59.2569L547.175 58.4673L546.422 58.1786L547.212 58.0162L547.5 57.2636L547.663 58.0532L548.415 58.3419Z" fill="white"/>
    <path d="M749.941 348.963L749.151 349.125L748.862 349.878L748.7 349.088L747.947 348.8L748.737 348.637L749.026 347.885L749.188 348.674L749.941 348.963Z" fill="white"/>
    <path d="M699.737 151.68L698.947 151.843L698.658 152.595L698.496 151.806L697.743 151.517L698.533 151.355L698.822 150.602L698.984 151.392L699.737 151.68Z" fill="white"/>
    <path d="M958.537 492.505L957.748 492.668L957.459 493.42L957.297 492.631L956.544 492.342L957.334 492.18L957.622 491.427L957.785 492.217L958.537 492.505Z" fill="white"/>
    <path d="M678.523 444.422L677.733 444.585L677.445 445.337L677.282 444.548L676.53 444.259L677.319 444.097L677.608 443.344L677.77 444.134L678.523 444.422Z" fill="white"/>
    <path d="M597.912 252.089L597.123 252.252L596.834 253.004L596.672 252.215L595.919 251.926L596.709 251.764L596.997 251.011L597.16 251.801L597.912 252.089Z" fill="white"/>
    <path d="M482.655 356.034L481.865 356.196L481.576 356.949L481.414 356.159L480.661 355.87L481.451 355.708L481.74 354.955L481.902 355.745L482.655 356.034Z" fill="white"/>
    <path d="M915.404 768.984L914.614 769.147L914.325 769.899L914.163 769.11L913.41 768.821L914.2 768.659L914.489 767.906L914.651 768.696L915.404 768.984Z" fill="white"/>
    <path d="M1191.18 766.156L1190.39 766.318L1190.1 767.071L1189.93 766.281L1189.18 765.993L1189.97 765.83L1190.26 765.078L1190.42 765.867L1191.18 766.156Z" fill="white"/>
    <path d="M1261.18 1085.06L1260.39 1085.22L1260.1 1085.98L1259.94 1085.19L1259.19 1084.9L1259.98 1084.74L1260.26 1083.98L1260.43 1084.77L1261.18 1085.06Z" fill="white"/>
    <path d="M950.052 1218L949.263 1218.16L948.974 1218.91L948.811 1218.12L948.059 1217.83L948.848 1217.67L949.137 1216.92L949.299 1217.71L950.052 1218Z" fill="white"/>
    <path d="M899.847 1450.64L899.057 1450.8L898.769 1451.55L898.606 1450.76L897.854 1450.47L898.643 1450.31L898.932 1449.56L899.094 1450.35L899.847 1450.64Z" fill="white"/>
    <path d="M656.603 1256.89L655.813 1257.05L655.525 1257.8L655.362 1257.01L654.61 1256.72L655.399 1256.56L655.688 1255.81L655.85 1256.6L656.603 1256.89Z" fill="white"/>
    <path d="M431.743 978.288L430.953 978.45L430.664 979.203L430.502 978.413L429.749 978.124L430.539 977.962L430.828 977.209L430.99 977.999L431.743 978.288Z" fill="white"/>
    <path d="M824.187 834.745L823.397 834.908L823.109 835.66L822.946 834.871L822.194 834.582L822.983 834.42L823.272 833.667L823.434 834.457L824.187 834.745Z" fill="white"/>
    <path d="M687.715 586.551L686.926 586.713L686.637 587.466L686.475 586.676L685.722 586.388L686.512 586.225L686.8 585.473L686.963 586.262L687.715 586.551Z" fill="white"/>
    <path d="M272.644 706.052L271.854 706.214L271.566 706.967L271.403 706.177L270.651 705.889L271.44 705.726L271.729 704.974L271.891 705.763L272.644 706.052Z" fill="white"/>
    <path d="M181.427 453.615L180.638 453.777L180.349 454.53L180.186 453.74L179.434 453.452L180.223 453.289L180.512 452.537L180.674 453.326L181.427 453.615Z" fill="white"/>
    <path d="M428.914 210.37L428.125 210.532L427.836 211.285L427.674 210.495L426.921 210.206L427.711 210.044L427.999 209.291L428.162 210.081L428.914 210.37Z" fill="white"/>
    <path d="M633.268 461.393L632.478 461.555L632.19 462.308L632.027 461.518L631.275 461.229L632.064 461.067L632.353 460.314L632.515 461.104L633.268 461.393Z" fill="white"/>
    <path d="M1032.08 864.444L1031.29 864.606L1031 865.359L1030.84 864.569L1030.08 864.281L1030.87 864.118L1031.16 863.366L1031.32 864.155L1032.08 864.444Z" fill="white"/>
    <path d="M788.831 953.539L788.042 953.701L787.753 954.454L787.591 953.665L786.838 953.376L787.628 953.213L787.916 952.461L788.079 953.25L788.831 953.539Z" fill="white"/>
    <path d="M607.812 946.468L607.022 946.631L606.734 947.383L606.571 946.594L605.819 946.305L606.608 946.143L606.897 945.39L607.059 946.18L607.812 946.468Z" fill="white"/>
    <path d="M674.281 619.785L673.491 619.947L673.202 620.7L673.04 619.91L672.287 619.621L673.077 619.459L673.366 618.706L673.528 619.496L674.281 619.785Z" fill="white"/>
    <path d="M955.708 645.241L954.919 645.403L954.63 646.156L954.468 645.366L953.715 645.077L954.505 644.915L954.793 644.162L954.956 644.952L955.708 645.241Z" fill="white"/>
    <path d="M135.465 553.316L134.676 553.479L134.387 554.231L134.225 553.442L133.472 553.153L134.262 552.991L134.55 552.238L134.713 553.028L135.465 553.316Z" fill="white"/>
    <path d="M332.04 322.8L331.251 322.962L330.962 323.715L330.8 322.925L330.047 322.637L330.837 322.474L331.125 321.722L331.288 322.511L332.04 322.8Z" fill="white"/>
    <path d="M729.435 704.638L728.645 704.8L728.357 705.553L728.194 704.763L727.442 704.474L728.231 704.312L728.52 703.559L728.682 704.349L729.435 704.638Z" fill="white"/>
    <path d="M585.185 1161.43L584.395 1161.59L584.107 1162.34L583.944 1161.55L583.192 1161.27L583.981 1161.1L584.27 1160.35L584.432 1161.14L585.185 1161.43Z" fill="white"/>
    <path d="M255.673 956.368L254.884 956.53L254.595 957.283L254.433 956.493L253.68 956.204L254.47 956.042L254.758 955.289L254.921 956.079L255.673 956.368Z" fill="white"/>
    <path d="M514.474 693.324L513.684 693.486L513.396 694.239L513.233 693.449L512.481 693.161L513.27 692.998L513.559 692.245L513.721 693.035L514.474 693.324Z" fill="white"/>
    <path d="M1383.51 921.719L1382.72 921.882L1382.43 922.634L1382.27 921.845L1381.51 921.556L1382.3 921.394L1382.59 920.641L1382.76 921.431L1383.51 921.719Z" fill="white"/>
    <path d="M1473.31 952.125L1472.52 952.287L1472.23 953.04L1472.07 952.25L1471.32 951.962L1472.11 951.799L1472.4 951.047L1472.56 951.836L1473.31 952.125Z" fill="white"/>
    <path d="M922.475 1518.52L921.685 1518.68L921.397 1519.43L921.234 1518.64L920.482 1518.35L921.271 1518.19L921.56 1517.44L921.722 1518.23L922.475 1518.52Z" fill="white"/>
    <path d="M691.25 1458.41L690.461 1458.58L690.172 1459.33L690.01 1458.54L689.257 1458.25L690.047 1458.09L690.335 1457.34L690.498 1458.12L691.25 1458.41Z" fill="white"/>
    <path d="M900.554 1058.19L899.764 1058.35L899.476 1059.11L899.313 1058.32L898.561 1058.03L899.35 1057.87L899.639 1057.11L899.801 1057.9L900.554 1058.19Z" fill="white"/>
    <path d="M541.262 817.357L539.683 817.682L539.106 819.187L538.781 817.608L537.276 817.03L538.855 816.706L539.432 815.2L539.757 816.78L541.262 817.357Z" fill="white"/>
    <path d="M486.479 522.158L484.9 522.483L484.323 523.988L483.998 522.409L482.493 521.831L484.072 521.507L484.649 520.001L484.974 521.58L486.479 522.158Z" fill="white"/>
    <path d="M1112.98 741.361L1111.4 741.686L1110.82 743.191L1110.5 741.612L1108.99 741.034L1110.57 740.71L1111.15 739.204L1111.47 740.784L1112.98 741.361Z" fill="white"/>
    <path d="M1037.32 487.509L1035.74 487.834L1035.16 489.339L1034.83 487.76L1033.33 487.183L1034.91 486.858L1035.49 485.353L1035.81 486.932L1037.32 487.509Z" fill="white"/>
    <path d="M881.045 335.482L879.465 335.806L878.888 337.312L878.563 335.732L877.058 335.155L878.637 334.83L879.215 333.325L879.539 334.904L881.045 335.482Z" fill="white"/>
    <path d="M1347.74 756.917L1346.16 757.242L1345.58 758.747L1345.25 757.168L1343.75 756.591L1345.33 756.266L1345.91 754.761L1346.23 756.34L1347.74 756.917Z" fill="white"/>
    <path d="M769.322 1049.66L767.743 1049.98L767.165 1051.49L766.841 1049.91L765.335 1049.33L766.915 1049.01L767.492 1047.5L767.817 1049.08L769.322 1049.66Z" fill="white"/>
    <path d="M292.732 539.128L291.153 539.453L290.576 540.958L290.251 539.379L288.746 538.801L290.325 538.477L290.902 536.971L291.227 538.551L292.732 539.128Z" fill="white"/>
    <path d="M45.9519 739.239L44.3727 739.564L43.7953 741.069L43.4706 739.49L41.9653 738.913L43.5445 738.588L44.1219 737.083L44.4466 738.662L45.9519 739.239Z" fill="white"/>
    <path d="M233.336 396.293L231.756 396.617L231.179 398.123L230.854 396.543L229.349 395.966L230.928 395.641L231.506 394.136L231.83 395.715L233.336 396.293Z" fill="white"/>
    <path d="M4.2322 609.839L2.65297 610.164L2.07558 611.669L1.75089 610.09L0.245559 609.512L1.8248 609.188L2.40219 607.682L2.72687 609.262L4.2322 609.839Z" fill="white"/>
    <path d="M363.443 196.888L361.864 197.213L361.287 198.718L360.962 197.139L359.456 196.562L361.036 196.237L361.613 194.732L361.938 196.311L363.443 196.888Z" fill="white"/>
</svg>    