<svg width="644" height="181" viewBox="0 0 644 181" fill="none" xmlns="http://www.w3.org/2000/svg">
<g clip-path="url(#clip0_1813_203)">
<g filter="url(#filter0_f_1813_203)">
<rect x="25.2227" y="60.2578" width="136.201" height="85.7716" rx="27.0247" transform="rotate(7.07043 25.2227 60.2578)" fill="#B849B6"/>
</g>
<g filter="url(#filter1_f_1813_203)">
<rect width="115.762" height="66.0286" rx="27.0247" transform="matrix(0.992396 0.123089 0.123089 -0.992396 35.166 82.6187)" fill="#FDF9A1"/>
</g>
<path d="M74.3879 17.0115L87.8996 18.1792L102.58 20.3478L119.262 23.6842L132.274 27.0206C132.274 27.0206 159.46 58.9424 159.46 63.3827C159.46 67.8868 158.631 76.2323 158.631 76.2323L25.3429 58.7163C25.3429 58.7163 27.0298 47.9643 29.1793 42.8685C29.9506 41.0399 74.3879 17.0115 74.3879 17.0115Z" fill="url(#paint0_linear_1813_203)"/>
<circle cx="85.5692" cy="108.594" r="26.5243" fill="url(#paint1_linear_1813_203)"/>
<path fill-rule="evenodd" clip-rule="evenodd" d="M159.489 63.4497L119.496 57.1441L131.656 26.861L132.619 27.1242C148.796 31.5557 160.009 46.7165 159.489 63.4497ZM99.6116 19.6217C106.358 20.6855 112.951 22.0971 119.382 23.6669L106.746 55.1339L74.9488 50.1204L87.8332 18.1086C91.7371 18.5074 95.6677 18.9999 99.6116 19.6217ZM74.6918 17.0627C71.7328 16.8833 68.7989 16.7359 65.8964 16.6041C49.1413 15.8433 33.8079 26.8185 29.1539 42.8999L62.1957 48.1096L74.6918 17.0627ZM21.6224 76.3674C22.7636 69.1294 24.2847 62.064 25.9667 55.183L158.742 76.1175C158.225 83.1823 157.498 90.3729 156.357 97.6109C154.563 108.992 151.829 119.946 149.007 130.428C144.583 146.863 129.063 158.146 112.083 157.374C101.178 156.879 89.8287 156.164 78.3681 154.357C66.9074 152.55 55.8891 149.738 45.36 146.854C28.9665 142.364 17.671 126.853 18.5183 109.854C19.0586 99.0121 19.8279 87.7485 21.6224 76.3674ZM67.5058 115.619C67.5637 111.276 67.7695 106.457 68.316 102.991C68.8625 99.5247 70.1497 94.8763 71.4312 90.7259C73.1238 85.2442 79.219 82.5059 84.2754 85.2162C92.9883 89.8866 100.815 95.9262 106.057 103.629C108.345 106.991 107.633 111.502 104.422 113.996C97.0638 119.712 87.7589 123.051 78.0318 124.814C72.3865 125.837 67.4295 121.355 67.5058 115.619Z" fill="url(#paint2_linear_1813_203)"/>
<g filter="url(#filter2_f_1813_203)">
<path d="M133.129 90.1342L156.351 66.5232C156.351 66.5232 163.349 69.6569 166.856 72.9649C171.965 77.7844 175.71 88.6775 175.71 88.6775L152.465 110.399L133.129 90.1342Z" fill="url(#paint3_linear_1813_203)"/>
</g>
<rect width="41.2002" height="18.4708" rx="9.23539" transform="matrix(-0.743617 0.668606 0.668606 0.743617 162.018 70.5986)" fill="url(#paint4_linear_1813_203)"/>
<g filter="url(#filter3_d_1813_203)">
<path d="M63.4717 171.609C60.0614 167.816 60.3716 161.977 64.1645 158.567L139.606 90.7358C140.352 90.0646 141.407 89.8418 142.346 90.1966C148.356 92.4677 151.452 95.2751 152.817 101.49C153.074 102.663 152.626 103.867 151.734 104.67L76.5141 172.302C72.7213 175.712 66.882 175.402 63.4717 171.609Z" fill="url(#paint5_linear_1813_203)"/>
</g>
<g filter="url(#filter4_d_1813_203)">
<path d="M45.0842 100.312C45.1425 100.165 45.4916 100.22 45.502 100.377C45.5652 101.333 45.7618 102.626 46.3369 103.416C46.9119 104.206 48.0816 104.791 48.9711 105.145C49.1174 105.204 49.0624 105.553 48.9052 105.563C47.9499 105.626 46.6571 105.823 45.8667 106.398C45.0764 106.973 44.4915 108.143 44.1374 109.032C44.0791 109.178 43.7301 109.123 43.7197 108.966C43.6564 108.011 43.4598 106.718 42.8848 105.928C42.3097 105.137 41.1401 104.553 40.2506 104.198C40.1042 104.14 40.1592 103.791 40.3164 103.781C41.2717 103.717 42.5646 103.521 43.3549 102.946C44.1453 102.371 44.7301 101.201 45.0842 100.312Z" fill="url(#paint6_linear_1813_203)"/>
</g>
<g filter="url(#filter5_d_1813_203)">
<path d="M57.4436 132.403C57.4732 132.329 57.6503 132.357 57.6556 132.436C57.6877 132.921 57.7875 133.577 58.0793 133.978C58.3711 134.379 58.9647 134.676 59.4161 134.856C59.4903 134.885 59.4624 135.063 59.3826 135.068C58.8978 135.1 58.2418 135.2 57.8407 135.491C57.4396 135.783 57.1429 136.377 56.9632 136.828C56.9336 136.902 56.7564 136.875 56.7512 136.795C56.7191 136.31 56.6193 135.654 56.3275 135.253C56.0357 134.852 55.4421 134.555 54.9907 134.375C54.9165 134.346 54.9444 134.169 55.0242 134.163C55.5089 134.131 56.165 134.031 56.5661 133.74C56.9671 133.448 57.2639 132.854 57.4436 132.403Z" fill="url(#paint7_linear_1813_203)"/>
</g>
<g filter="url(#filter6_d_1813_203)">
<path d="M32.1504 120.132C32.1678 120.089 32.272 120.105 32.2751 120.152C32.294 120.437 32.3527 120.823 32.5244 121.059C32.696 121.295 33.0452 121.47 33.3107 121.575C33.3544 121.593 33.3379 121.697 33.291 121.7C33.0059 121.719 32.6199 121.778 32.384 121.949C32.1481 122.121 31.9735 122.47 31.8678 122.736C31.8504 122.779 31.7462 122.763 31.7431 122.716C31.7242 122.431 31.6655 122.045 31.4939 121.809C31.3222 121.573 30.9731 121.398 30.7076 121.293C30.6639 121.275 30.6803 121.171 30.7272 121.168C31.0124 121.149 31.3983 121.09 31.6342 120.919C31.8701 120.747 32.0447 120.398 32.1504 120.132Z" fill="url(#paint8_linear_1813_203)"/>
</g>
<g filter="url(#filter7_d_1813_203)">
<path d="M65.611 68.6401C65.6388 68.5702 65.8056 68.5965 65.8105 68.6716C65.8407 69.1279 65.9346 69.7453 66.2093 70.1228C66.4839 70.5003 67.0426 70.7796 67.4674 70.9488C67.5373 70.9766 67.511 71.1433 67.4359 71.1483C66.9797 71.1785 66.3622 71.2724 65.9847 71.547C65.6073 71.8217 65.3279 72.3803 65.1588 72.8052C65.131 72.8751 64.9642 72.8488 64.9593 72.7737C64.9291 72.3174 64.8352 71.7 64.5605 71.3225C64.2859 70.945 63.7272 70.6657 63.3024 70.4965C63.2325 70.4687 63.2588 70.302 63.3339 70.297C63.7901 70.2668 64.4076 70.1729 64.7851 69.8983C65.1626 69.6236 65.4419 69.065 65.611 68.6401Z" fill="url(#paint9_linear_1813_203)"/>
</g>
<g filter="url(#filter8_d_1813_203)">
<path d="M119.622 80.6495C119.666 80.5403 119.926 80.5813 119.934 80.6986C119.981 81.4116 120.128 82.3764 120.557 82.9662C120.986 83.556 121.859 83.9924 122.523 84.2567C122.632 84.3002 122.591 84.5607 122.474 84.5684C121.761 84.6156 120.796 84.7623 120.206 85.1915C119.616 85.6206 119.18 86.4935 118.916 87.1573C118.872 87.2665 118.612 87.2255 118.604 87.1082C118.557 86.3952 118.41 85.4304 117.981 84.8406C117.552 84.2508 116.679 83.8144 116.015 83.5501C115.906 83.5066 115.947 83.2461 116.064 83.2384C116.777 83.1912 117.742 83.0445 118.332 82.6153C118.921 82.1862 119.358 81.3133 119.622 80.6495Z" fill="url(#paint10_linear_1813_203)"/>
</g>
<g filter="url(#filter9_d_1813_203)">
<path d="M128.799 138.28C128.823 138.175 129.066 138.175 129.089 138.28C129.234 138.921 129.506 139.777 129.981 140.252C130.455 140.726 131.311 140.998 131.952 141.143C132.057 141.167 132.057 141.409 131.952 141.433C131.311 141.578 130.455 141.85 129.981 142.324C129.506 142.799 129.234 143.655 129.089 144.296C129.066 144.401 128.823 144.401 128.799 144.296C128.654 143.655 128.382 142.799 127.908 142.324C127.433 141.85 126.578 141.578 125.937 141.433C125.831 141.409 125.831 141.167 125.937 141.143C126.578 140.998 127.433 140.726 127.908 140.252C128.382 139.777 128.654 138.921 128.799 138.28Z" fill="url(#paint11_linear_1813_203)"/>
</g>
<g filter="url(#filter10_d_1813_203)">
<path d="M144.624 119.541C144.645 119.489 144.77 119.509 144.774 119.565C144.797 119.907 144.867 120.37 145.073 120.653C145.279 120.936 145.698 121.146 146.017 121.273C146.069 121.294 146.049 121.419 145.993 121.422C145.651 121.445 145.188 121.515 144.905 121.721C144.621 121.927 144.412 122.346 144.285 122.665C144.264 122.717 144.139 122.698 144.135 122.641C144.113 122.299 144.042 121.836 143.836 121.553C143.63 121.27 143.211 121.06 142.893 120.934C142.84 120.913 142.86 120.788 142.916 120.784C143.259 120.761 143.722 120.691 144.005 120.485C144.288 120.279 144.497 119.86 144.624 119.541Z" fill="url(#paint12_linear_1813_203)"/>
</g>
<g filter="url(#filter11_d_1813_203)">
<path d="M39.2081 76.6427C39.2516 76.5334 39.5121 76.5745 39.5199 76.6918C39.5671 77.4047 39.7138 78.3695 40.1429 78.9593C40.5721 79.5491 41.4449 79.9856 42.1087 80.2499C42.218 80.2933 42.1769 80.5538 42.0596 80.5616C41.3467 80.6088 40.3819 80.7555 39.7921 81.1847C39.2022 81.6138 38.7658 82.4867 38.5015 83.1505C38.458 83.2597 38.1976 83.2186 38.1898 83.1013C38.1426 82.3884 37.9959 81.4236 37.5667 80.8338C37.1376 80.244 36.2647 79.8075 35.6009 79.5433C35.4917 79.4998 35.5328 79.2393 35.6501 79.2315C36.363 79.1843 37.3278 79.0376 37.9176 78.6085C38.5074 78.1793 38.9438 77.3065 39.2081 76.6427Z" fill="url(#paint13_linear_1813_203)"/>
</g>
<path d="M253.222 148.172C239.306 148.172 227.768 143.548 218.607 134.3C209.447 125.051 204.867 113.557 204.867 99.8167C204.867 86.0764 209.447 74.5821 218.607 65.3338C227.768 56.0856 239.306 51.4614 253.222 51.4614C261.766 51.4614 269.649 53.4872 276.872 57.5389C284.094 61.5905 289.731 67.0514 293.783 73.9215L270.794 87.1334C269.297 84.1387 266.963 81.7605 263.792 79.999C260.621 78.2374 257.098 77.3566 253.222 77.3566C246.705 77.3566 241.42 79.4705 237.368 83.6983C233.317 87.9261 231.291 93.2989 231.291 99.8167C231.291 106.335 233.317 111.707 237.368 115.935C241.42 120.163 246.705 122.277 253.222 122.277C257.186 122.277 260.709 121.396 263.792 119.634C266.963 117.873 269.297 115.451 270.794 112.368L293.783 125.58C289.731 132.538 284.094 138.043 276.872 142.095C269.649 146.146 261.766 148.172 253.222 148.172Z" fill="white"/>
<path d="M346.087 79.999H370.529V146.058H346.087V140.113C341.859 145.309 335.958 147.908 328.383 147.908C319.487 147.908 312.221 144.605 306.584 137.999C300.947 131.393 298.128 123.07 298.128 113.029C298.128 102.988 300.947 94.6641 306.584 88.0582C312.221 81.4523 319.487 78.1493 328.383 78.1493C335.958 78.1493 341.859 80.7476 346.087 85.9443V79.999ZM325.741 121.88C327.943 124.259 330.805 125.448 334.329 125.448C337.852 125.448 340.67 124.259 342.784 121.88C344.986 119.502 346.087 116.552 346.087 113.029C346.087 109.505 344.986 106.555 342.784 104.177C340.67 101.798 337.852 100.609 334.329 100.609C330.805 100.609 327.943 101.798 325.741 104.177C323.627 106.555 322.57 109.505 322.57 113.029C322.57 116.552 323.627 119.502 325.741 121.88Z" fill="white"/>
<path d="M423.303 78.1493C432.199 78.1493 439.465 81.4523 445.102 88.0582C450.74 94.6641 453.558 102.988 453.558 113.029C453.558 123.07 450.74 131.393 445.102 137.999C439.465 144.605 432.199 147.908 423.303 147.908C415.728 147.908 409.827 145.309 405.599 140.113V172.482H381.157V79.999H405.599V85.9443C409.827 80.7476 415.728 78.1493 423.303 78.1493ZM408.77 121.88C410.972 124.259 413.835 125.448 417.358 125.448C420.881 125.448 423.699 124.259 425.813 121.88C428.015 119.502 429.116 116.552 429.116 113.029C429.116 109.505 428.015 106.555 425.813 104.177C423.699 101.798 420.881 100.609 417.358 100.609C413.835 100.609 410.972 101.798 408.77 104.177C406.656 106.555 405.599 109.505 405.599 113.029C405.599 116.552 406.656 119.502 408.77 121.88Z" fill="white"/>
<path d="M482.994 99.4204C482.994 100.477 483.786 101.314 485.372 101.931C487.045 102.547 489.115 103.032 491.581 103.384C494.047 103.648 496.69 104.221 499.508 105.101C502.327 105.982 504.969 107.083 507.435 108.404C509.902 109.726 511.927 111.839 513.513 114.746C515.186 117.565 516.023 121 516.023 125.051C516.023 129.279 515.054 132.978 513.117 136.149C511.267 139.32 508.801 141.698 505.718 143.284C502.635 144.869 499.464 146.014 496.205 146.719C493.035 147.511 489.732 147.908 486.297 147.908C470.354 147.908 460.049 142.667 455.381 132.186L476.652 122.673C478.325 127.165 481.452 129.411 486.032 129.411C489.027 129.411 490.524 128.442 490.524 126.505C490.524 125.36 489.423 124.435 487.221 123.73C485.019 123.025 482.377 122.321 479.294 121.616C476.212 120.824 473.085 119.811 469.914 118.577C466.831 117.256 464.189 115.098 461.987 112.104C459.785 109.109 458.684 105.366 458.684 100.874C458.684 93.6512 461.414 88.0582 466.875 84.0946C472.424 80.1311 478.81 78.1493 486.032 78.1493C500.477 78.1493 510.034 83.7423 514.702 94.9283L494.488 102.195C492.902 98.4955 490.436 96.6459 487.089 96.6459C484.359 96.6459 482.994 97.5707 482.994 99.4204Z" fill="white"/>
<path d="M578.168 146.058L574.997 134.167H548.31L545.139 146.058H516.733L546.196 53.5753H577.111L606.574 146.058H578.168ZM553.991 113.029H569.316L561.654 84.6231L553.991 113.029Z" fill="white"/>
<path d="M622.482 64.2798C618.783 64.2798 625.544 66.948 622.814 64.3057C620.172 61.5752 622.814 67.9169 622.814 64.3057C620.172 66.948 622.814 60.6944 622.814 64.3057C619.115 64.3057 625.544 61.5752 622.814 64.3057C626.425 64.3057 619.294 61.5752 621.936 64.3057C624.667 66.948 621.156 60.6944 621.156 64.3057C621.156 67.9169 625.213 61.0896 622.482 63.8201C619.84 66.4624 626.094 64.2798 622.482 64.2798ZM610.558 146.058V53.5753H635V146.058H610.558Z" fill="white"/>
</g>
<defs>
<filter id="filter0_f_1813_203" x="-7.23969" y="38.3531" width="189.532" height="145.694" filterUnits="userSpaceOnUse" color-interpolation-filters="sRGB">
<feFlood flood-opacity="0" result="BackgroundImageFix"/>
<feBlend mode="normal" in="SourceGraphic" in2="BackgroundImageFix" result="shape"/>
<feGaussianBlur stdDeviation="12.5114" result="effect1_foregroundBlur_1813_203"/>
</filter>
<filter id="filter1_f_1813_203" x="6.68764" y="-11.3851" width="179.965" height="136.73" filterUnits="userSpaceOnUse" color-interpolation-filters="sRGB">
<feFlood flood-opacity="0" result="BackgroundImageFix"/>
<feBlend mode="normal" in="SourceGraphic" in2="BackgroundImageFix" result="shape"/>
<feGaussianBlur stdDeviation="15.7978" result="effect1_foregroundBlur_1813_203"/>
</filter>
<filter id="filter2_f_1813_203" x="120.217" y="53.6116" width="68.4057" height="69.6991" filterUnits="userSpaceOnUse" color-interpolation-filters="sRGB">
<feFlood flood-opacity="0" result="BackgroundImageFix"/>
<feBlend mode="normal" in="SourceGraphic" in2="BackgroundImageFix" result="shape"/>
<feGaussianBlur stdDeviation="6.45591" result="effect1_foregroundBlur_1813_203"/>
</filter>
<filter id="filter3_d_1813_203" x="59.3352" y="90.0293" width="95.3217" height="89.078" filterUnits="userSpaceOnUse" color-interpolation-filters="sRGB">
<feFlood flood-opacity="0" result="BackgroundImageFix"/>
<feColorMatrix in="SourceAlpha" type="matrix" values="0 0 0 0 0 0 0 0 0 0 0 0 0 0 0 0 0 0 127 0" result="hardAlpha"/>
<feOffset dy="2.66911"/>
<feGaussianBlur stdDeviation="0.884142"/>
<feComposite in2="hardAlpha" operator="out"/>
<feColorMatrix type="matrix" values="0 0 0 0 0 0 0 0 0 0 0 0 0 0 0 0 0 0 0.14 0"/>
<feBlend mode="normal" in2="BackgroundImageFix" result="effect1_dropShadow_1813_203"/>
<feBlend mode="normal" in="SourceGraphic" in2="effect1_dropShadow_1813_203" result="shape"/>
</filter>
<filter id="filter4_d_1813_203" x="36.3073" y="96.6335" width="16.608" height="16.609" filterUnits="userSpaceOnUse" color-interpolation-filters="sRGB">
<feFlood flood-opacity="0" result="BackgroundImageFix"/>
<feColorMatrix in="SourceAlpha" type="matrix" values="0 0 0 0 0 0 0 0 0 0 0 0 0 0 0 0 0 0 127 0" result="hardAlpha"/>
<feOffset dy="0.266116"/>
<feGaussianBlur stdDeviation="1.92934"/>
<feComposite in2="hardAlpha" operator="out"/>
<feColorMatrix type="matrix" values="0 0 0 0 1 0 0 0 0 0.980392 0 0 0 0 0.713726 0 0 0 1 0"/>
<feBlend mode="normal" in2="BackgroundImageFix" result="effect1_dropShadow_1813_203"/>
<feBlend mode="normal" in="SourceGraphic" in2="effect1_dropShadow_1813_203" result="shape"/>
</filter>
<filter id="filter5_d_1813_203" x="52.9891" y="130.536" width="8.428" height="8.42849" filterUnits="userSpaceOnUse" color-interpolation-filters="sRGB">
<feFlood flood-opacity="0" result="BackgroundImageFix"/>
<feColorMatrix in="SourceAlpha" type="matrix" values="0 0 0 0 0 0 0 0 0 0 0 0 0 0 0 0 0 0 127 0" result="hardAlpha"/>
<feOffset dy="0.135044"/>
<feGaussianBlur stdDeviation="0.97907"/>
<feComposite in2="hardAlpha" operator="out"/>
<feColorMatrix type="matrix" values="0 0 0 0 1 0 0 0 0 0.980392 0 0 0 0 0.713726 0 0 0 1 0"/>
<feBlend mode="normal" in2="BackgroundImageFix" result="effect1_dropShadow_1813_203"/>
<feBlend mode="normal" in="SourceGraphic" in2="effect1_dropShadow_1813_203" result="shape"/>
</filter>
<filter id="filter6_d_1813_203" x="29.5298" y="119.035" width="4.95799" height="4.95799" filterUnits="userSpaceOnUse" color-interpolation-filters="sRGB">
<feFlood flood-opacity="0" result="BackgroundImageFix"/>
<feColorMatrix in="SourceAlpha" type="matrix" values="0 0 0 0 0 0 0 0 0 0 0 0 0 0 0 0 0 0 127 0" result="hardAlpha"/>
<feOffset dy="0.0794378"/>
<feGaussianBlur stdDeviation="0.575924"/>
<feComposite in2="hardAlpha" operator="out"/>
<feColorMatrix type="matrix" values="0 0 0 0 1 0 0 0 0 0.980392 0 0 0 0 0.713726 0 0 0 1 0"/>
<feBlend mode="normal" in2="BackgroundImageFix" result="effect1_dropShadow_1813_203"/>
<feBlend mode="normal" in="SourceGraphic" in2="effect1_dropShadow_1813_203" result="shape"/>
</filter>
<filter id="filter7_d_1813_203" x="61.4188" y="66.8838" width="7.93201" height="7.93201" filterUnits="userSpaceOnUse" color-interpolation-filters="sRGB">
<feFlood flood-opacity="0" result="BackgroundImageFix"/>
<feColorMatrix in="SourceAlpha" type="matrix" values="0 0 0 0 0 0 0 0 0 0 0 0 0 0 0 0 0 0 127 0" result="hardAlpha"/>
<feOffset dy="0.1271"/>
<feGaussianBlur stdDeviation="0.921478"/>
<feComposite in2="hardAlpha" operator="out"/>
<feColorMatrix type="matrix" values="0 0 0 0 1 0 0 0 0 0.980392 0 0 0 0 0.713726 0 0 0 1 0"/>
<feBlend mode="normal" in2="BackgroundImageFix" result="effect1_dropShadow_1813_203"/>
<feBlend mode="normal" in="SourceGraphic" in2="effect1_dropShadow_1813_203" result="shape"/>
</filter>
<filter id="filter8_d_1813_203" x="113.072" y="77.9049" width="12.394" height="12.3945" filterUnits="userSpaceOnUse" color-interpolation-filters="sRGB">
<feFlood flood-opacity="0" result="BackgroundImageFix"/>
<feColorMatrix in="SourceAlpha" type="matrix" values="0 0 0 0 0 0 0 0 0 0 0 0 0 0 0 0 0 0 127 0" result="hardAlpha"/>
<feOffset dy="0.198594"/>
<feGaussianBlur stdDeviation="1.43981"/>
<feComposite in2="hardAlpha" operator="out"/>
<feColorMatrix type="matrix" values="0 0 0 0 1 0 0 0 0 0.980392 0 0 0 0 0.713726 0 0 0 1 0"/>
<feBlend mode="normal" in2="BackgroundImageFix" result="effect1_dropShadow_1813_203"/>
<feBlend mode="normal" in="SourceGraphic" in2="effect1_dropShadow_1813_203" result="shape"/>
</filter>
<filter id="filter9_d_1813_203" x="123.208" y="135.735" width="11.4723" height="11.4723" filterUnits="userSpaceOnUse" color-interpolation-filters="sRGB">
<feFlood flood-opacity="0" result="BackgroundImageFix"/>
<feColorMatrix in="SourceAlpha" type="matrix" values="0 0 0 0 0 0 0 0 0 0 0 0 0 0 0 0 0 0 127 0" result="hardAlpha"/>
<feOffset dy="0.182707"/>
<feGaussianBlur stdDeviation="1.32462"/>
<feComposite in2="hardAlpha" operator="out"/>
<feColorMatrix type="matrix" values="0 0 0 0 1 0 0 0 0 0.980392 0 0 0 0 0.713726 0 0 0 1 0"/>
<feBlend mode="normal" in2="BackgroundImageFix" result="effect1_dropShadow_1813_203"/>
<feBlend mode="normal" in="SourceGraphic" in2="effect1_dropShadow_1813_203" result="shape"/>
</filter>
<filter id="filter10_d_1813_203" x="141.479" y="118.224" width="5.94998" height="5.94949" filterUnits="userSpaceOnUse" color-interpolation-filters="sRGB">
<feFlood flood-opacity="0" result="BackgroundImageFix"/>
<feColorMatrix in="SourceAlpha" type="matrix" values="0 0 0 0 0 0 0 0 0 0 0 0 0 0 0 0 0 0 127 0" result="hardAlpha"/>
<feOffset dy="0.0953253"/>
<feGaussianBlur stdDeviation="0.691108"/>
<feComposite in2="hardAlpha" operator="out"/>
<feColorMatrix type="matrix" values="0 0 0 0 1 0 0 0 0 0.980392 0 0 0 0 0.713726 0 0 0 1 0"/>
<feBlend mode="normal" in2="BackgroundImageFix" result="effect1_dropShadow_1813_203"/>
<feBlend mode="normal" in="SourceGraphic" in2="effect1_dropShadow_1813_203" result="shape"/>
</filter>
<filter id="filter11_d_1813_203" x="32.6575" y="73.8981" width="12.394" height="12.3945" filterUnits="userSpaceOnUse" color-interpolation-filters="sRGB">
<feFlood flood-opacity="0" result="BackgroundImageFix"/>
<feColorMatrix in="SourceAlpha" type="matrix" values="0 0 0 0 0 0 0 0 0 0 0 0 0 0 0 0 0 0 127 0" result="hardAlpha"/>
<feOffset dy="0.198594"/>
<feGaussianBlur stdDeviation="1.43981"/>
<feComposite in2="hardAlpha" operator="out"/>
<feColorMatrix type="matrix" values="0 0 0 0 1 0 0 0 0 0.980392 0 0 0 0 0.713726 0 0 0 1 0"/>
<feBlend mode="normal" in2="BackgroundImageFix" result="effect1_dropShadow_1813_203"/>
<feBlend mode="normal" in="SourceGraphic" in2="effect1_dropShadow_1813_203" result="shape"/>
</filter>
<linearGradient id="paint0_linear_1813_203" x1="79.5907" y1="44.0874" x2="76.817" y2="64.1498" gradientUnits="userSpaceOnUse">
<stop stop-color="#FFFDEC"/>
<stop offset="1" stop-color="#FFF458"/>
</linearGradient>
<linearGradient id="paint1_linear_1813_203" x1="79.7305" y1="88.5758" x2="85.5692" y2="135.118" gradientUnits="userSpaceOnUse">
<stop stop-color="#FFFDEC"/>
<stop offset="1" stop-color="#FFF458"/>
</linearGradient>
<linearGradient id="paint2_linear_1813_203" x1="132.709" y1="21.9232" x2="34.5223" y2="155.467" gradientUnits="userSpaceOnUse">
<stop stop-color="#FFDD00"/>
<stop offset="0.0935308" stop-color="#FFCC0C"/>
<stop offset="0.189343" stop-color="#FFA82E"/>
<stop offset="0.434197" stop-color="#FF7F5B"/>
<stop offset="0.750022" stop-color="#8320F7"/>
<stop offset="1" stop-color="#250944"/>
</linearGradient>
<linearGradient id="paint3_linear_1813_203" x1="147.051" y1="75.9245" x2="156.542" y2="104.011" gradientUnits="userSpaceOnUse">
<stop stop-color="white"/>
<stop offset="1" stop-color="#87FDFF"/>
</linearGradient>
<linearGradient id="paint4_linear_1813_203" x1="28.262" y1="-0.356577" x2="28.2416" y2="19.0096" gradientUnits="userSpaceOnUse">
<stop stop-color="#DAFDFF"/>
<stop offset="0.17" stop-color="#54F9FF"/>
<stop offset="0.345" stop-color="#2BCCF9"/>
<stop offset="0.5" stop-color="#0A9DF3"/>
<stop offset="0.726864" stop-color="#46B0F5"/>
<stop offset="0.875672" stop-color="#6FBFF7"/>
<stop offset="1" stop-color="#D9EAFD"/>
</linearGradient>
<linearGradient id="paint5_linear_1813_203" x1="124.63" y1="102.308" x2="138.673" y2="117.411" gradientUnits="userSpaceOnUse">
<stop stop-color="#EAFAF7"/>
<stop offset="0.17" stop-color="#8CE1F8"/>
<stop offset="0.345" stop-color="#1BC4F3"/>
<stop offset="0.5" stop-color="#0961E6"/>
<stop offset="0.77" stop-color="#113EE0"/>
<stop offset="0.875672" stop-color="#175CE7"/>
<stop offset="1" stop-color="#40B6EF"/>
</linearGradient>
<linearGradient id="paint6_linear_1813_203" x1="45.3349" y1="99.7968" x2="43.7404" y2="110.192" gradientUnits="userSpaceOnUse">
<stop stop-color="#FFFFDE"/>
<stop offset="0.462436" stop-color="#FFFC0E"/>
<stop offset="1" stop-color="#FFDA06"/>
</linearGradient>
<linearGradient id="paint7_linear_1813_203" x1="57.5708" y1="132.142" x2="56.7617" y2="137.417" gradientUnits="userSpaceOnUse">
<stop stop-color="#FFFFDE"/>
<stop offset="0.462436" stop-color="#FFFC0E"/>
<stop offset="1" stop-color="#FFDA06"/>
</linearGradient>
<linearGradient id="paint8_linear_1813_203" x1="32.2253" y1="119.979" x2="31.7493" y2="123.082" gradientUnits="userSpaceOnUse">
<stop stop-color="#FFFFDE"/>
<stop offset="0.462436" stop-color="#FFFC0E"/>
<stop offset="1" stop-color="#FFDA06"/>
</linearGradient>
<linearGradient id="paint9_linear_1813_203" x1="65.7307" y1="68.3942" x2="64.9692" y2="73.3592" gradientUnits="userSpaceOnUse">
<stop stop-color="#FFFFDE"/>
<stop offset="0.462436" stop-color="#FFFC0E"/>
<stop offset="1" stop-color="#FFDA06"/>
</linearGradient>
<linearGradient id="paint10_linear_1813_203" x1="119.809" y1="80.2653" x2="118.619" y2="88.023" gradientUnits="userSpaceOnUse">
<stop stop-color="#FFFFDE"/>
<stop offset="0.462436" stop-color="#FFFC0E"/>
<stop offset="1" stop-color="#FFDA06"/>
</linearGradient>
<linearGradient id="paint11_linear_1813_203" x1="128.914" y1="137.904" x2="128.944" y2="145.125" gradientUnits="userSpaceOnUse">
<stop stop-color="#FFFFDE"/>
<stop offset="0.462436" stop-color="#FFFC0E"/>
<stop offset="1" stop-color="#FFDA06"/>
</linearGradient>
<linearGradient id="paint12_linear_1813_203" x1="144.714" y1="119.357" x2="144.143" y2="123.081" gradientUnits="userSpaceOnUse">
<stop stop-color="#FFFFDE"/>
<stop offset="0.462436" stop-color="#FFFC0E"/>
<stop offset="1" stop-color="#FFDA06"/>
</linearGradient>
<linearGradient id="paint13_linear_1813_203" x1="39.3952" y1="76.2584" x2="38.2053" y2="84.0162" gradientUnits="userSpaceOnUse">
<stop stop-color="#FFFFDE"/>
<stop offset="0.462436" stop-color="#FFFC0E"/>
<stop offset="1" stop-color="#FFDA06"/>
</linearGradient>
<clipPath id="clip0_1813_203">
<rect width="644" height="181" fill="white"/>
</clipPath>
</defs>
</svg>
