<svg width="637" height="174" viewBox="0 0 637 174" fill="none" xmlns="http://www.w3.org/2000/svg">
<g clip-path="url(#clip0_1793_3939)">
<g filter="url(#filter0_f_1793_3939)">
<rect x="28.7383" y="56.0225" width="132.659" height="85.7716" rx="27.0247" transform="rotate(7.07043 28.7383 56.0225)" fill="#B849B6"/>
</g>
<g filter="url(#filter1_f_1793_3939)">
<rect width="115.762" height="66.0286" rx="27.0247" transform="matrix(0.992396 0.123089 0.123089 -0.992396 35.166 77.9473)" fill="#FDF9A1"/>
</g>
<path d="M74.3879 12.3401L87.8996 13.5078L102.58 15.6765L119.262 19.0128L132.274 22.3492C132.274 22.3492 159.46 54.271 159.46 58.7113C159.46 63.2154 158.631 71.5609 158.631 71.5609L25.3429 54.0449C25.3429 54.0449 27.0298 43.2929 29.1793 38.1971C29.9506 36.3685 74.3879 12.3401 74.3879 12.3401Z" fill="url(#paint0_linear_1793_3939)"/>
<circle cx="85.5692" cy="103.923" r="26.5243" fill="url(#paint1_linear_1793_3939)"/>
<path fill-rule="evenodd" clip-rule="evenodd" d="M159.489 58.7784L119.496 52.4727L131.656 22.1896L132.619 22.4529C148.796 26.8843 160.009 42.0452 159.489 58.7784ZM99.6116 14.9504C106.358 16.0141 112.951 17.4258 119.382 18.9955L106.746 50.4625L74.9488 45.449L87.8332 13.4372C91.7371 13.836 95.6677 14.3285 99.6116 14.9504ZM74.6918 12.3913C71.7328 12.2119 68.7989 12.0645 65.8964 11.9327C49.1413 11.1719 33.8079 22.1472 29.1539 38.2286L62.1957 43.4382L74.6918 12.3913ZM21.6224 71.696C22.7636 64.458 24.2847 57.3926 25.9667 50.5116L158.742 71.4461C158.225 78.5109 157.498 85.7015 156.357 92.9395C154.563 104.321 151.829 115.275 149.007 125.757C144.583 142.192 129.063 153.474 112.083 152.703C101.178 152.208 89.8287 151.492 78.3681 149.685C66.9074 147.878 55.8891 145.067 45.36 142.183C28.9665 137.692 17.671 122.182 18.5183 105.183C19.0586 94.3407 19.8279 83.0771 21.6224 71.696ZM67.5058 110.948C67.5637 106.604 67.7695 101.786 68.316 98.3196C68.8625 94.8533 70.1497 90.2049 71.4312 86.0545C73.1238 80.5728 79.219 77.8345 84.2754 80.5449C92.9883 85.2153 100.815 91.2548 106.057 98.9575C108.345 102.319 107.633 106.83 104.422 109.325C97.0638 115.04 87.7589 118.38 78.0318 120.142C72.3865 121.165 67.4295 116.684 67.5058 110.948Z" fill="url(#paint2_linear_1793_3939)"/>
<g filter="url(#filter2_f_1793_3939)">
<path d="M133.129 85.4628L156.351 61.8518C156.351 61.8518 163.349 64.9855 166.856 68.2935C171.965 73.113 175.71 84.0061 175.71 84.0061L152.465 105.727L133.129 85.4628Z" fill="url(#paint3_linear_1793_3939)"/>
</g>
<rect width="41.2002" height="18.4708" rx="9.23539" transform="matrix(-0.743617 0.668606 0.668606 0.743617 162.018 65.9272)" fill="url(#paint4_linear_1793_3939)"/>
<g filter="url(#filter3_d_1793_3939)">
<path d="M63.4717 166.938C60.0614 163.145 60.3716 157.306 64.1645 153.895L139.606 86.0644C140.352 85.3933 141.407 85.1704 142.346 85.5252C148.356 87.7963 151.452 90.6037 152.817 96.819C153.074 97.9915 152.626 99.1961 151.734 99.9986L76.5141 167.631C72.7213 171.041 66.882 170.731 63.4717 166.938V166.938Z" fill="url(#paint5_linear_1793_3939)"/>
</g>
<g filter="url(#filter4_d_1793_3939)">
<path d="M45.0842 95.6402C45.1425 95.4939 45.4916 95.5489 45.502 95.7061C45.5652 96.6614 45.7618 97.9543 46.3369 98.7446C46.9119 99.5349 48.0816 100.12 48.9711 100.474C49.1174 100.532 49.0624 100.881 48.9052 100.892C47.9499 100.955 46.6571 101.151 45.8667 101.727C45.0764 102.302 44.4915 103.471 44.1374 104.361C44.0791 104.507 43.7301 104.452 43.7197 104.295C43.6564 103.34 43.4598 102.047 42.8848 101.256C42.3097 100.466 41.1401 99.8812 40.2506 99.5271C40.1042 99.4688 40.1592 99.1197 40.3164 99.1093C41.2717 99.0461 42.5646 98.8495 43.3549 98.2744C44.1453 97.6994 44.7301 96.5297 45.0842 95.6402Z" fill="url(#paint6_linear_1793_3939)"/>
</g>
<g filter="url(#filter5_d_1793_3939)">
<path d="M57.4436 127.732C57.4732 127.657 57.6503 127.685 57.6556 127.765C57.6877 128.25 57.7875 128.906 58.0793 129.307C58.3711 129.708 58.9647 130.005 59.4161 130.184C59.4903 130.214 59.4624 130.391 59.3826 130.396C58.8978 130.429 58.2418 130.528 57.8407 130.82C57.4396 131.112 57.1429 131.705 56.9632 132.157C56.9336 132.231 56.7564 132.203 56.7512 132.123C56.7191 131.639 56.6193 130.983 56.3275 130.581C56.0357 130.18 55.4421 129.884 54.9907 129.704C54.9165 129.674 54.9444 129.497 55.0242 129.492C55.5089 129.46 56.165 129.36 56.5661 129.068C56.9671 128.776 57.2639 128.183 57.4436 127.732Z" fill="url(#paint7_linear_1793_3939)"/>
</g>
<g filter="url(#filter6_d_1793_3939)">
<path d="M32.1504 115.461C32.1678 115.417 32.272 115.434 32.2751 115.481C32.294 115.766 32.3527 116.152 32.5244 116.388C32.696 116.624 33.0452 116.798 33.3107 116.904C33.3544 116.921 33.3379 117.026 33.291 117.029C33.0059 117.048 32.6199 117.106 32.384 117.278C32.1481 117.45 31.9735 117.799 31.8678 118.064C31.8504 118.108 31.7462 118.091 31.7431 118.045C31.7242 117.759 31.6655 117.373 31.4939 117.138C31.3222 116.902 30.9731 116.727 30.7076 116.621C30.6639 116.604 30.6803 116.5 30.7272 116.497C31.0124 116.478 31.3983 116.419 31.6342 116.247C31.8701 116.076 32.0447 115.727 32.1504 115.461Z" fill="url(#paint8_linear_1793_3939)"/>
</g>
<g filter="url(#filter7_d_1793_3939)">
<path d="M65.611 63.9688C65.6388 63.8989 65.8056 63.9251 65.8105 64.0002C65.8407 64.4565 65.9346 65.074 66.2093 65.4514C66.4839 65.8289 67.0426 66.1082 67.4674 66.2774C67.5373 66.3052 67.511 66.4719 67.4359 66.4769C66.9797 66.5071 66.3622 66.601 65.9847 66.8756C65.6073 67.1503 65.3279 67.7089 65.1588 68.1338C65.131 68.2037 64.9642 68.1774 64.9593 68.1023C64.9291 67.646 64.8352 67.0286 64.5605 66.6511C64.2859 66.2736 63.7272 65.9943 63.3024 65.8252C63.2325 65.7973 63.2588 65.6306 63.3339 65.6256C63.7901 65.5954 64.4076 65.5015 64.7851 65.2269C65.1626 64.9522 65.4419 64.3936 65.611 63.9688Z" fill="url(#paint9_linear_1793_3939)"/>
</g>
<g filter="url(#filter8_d_1793_3939)">
<path d="M119.622 75.9781C119.666 75.8689 119.926 75.9099 119.934 76.0273C119.981 76.7402 120.128 77.705 120.557 78.2948C120.986 78.8846 121.859 79.321 122.523 79.5853C122.632 79.6288 122.591 79.8893 122.474 79.8971C121.761 79.9443 120.796 80.091 120.206 80.5201C119.616 80.9493 119.18 81.8221 118.916 82.4859C118.872 82.5952 118.612 82.5541 118.604 82.4368C118.557 81.7239 118.41 80.7591 117.981 80.1692C117.552 79.5794 116.679 79.143 116.015 78.8787C115.906 78.8352 115.947 78.5747 116.064 78.567C116.777 78.5198 117.742 78.3731 118.332 77.9439C118.921 77.5148 119.358 76.6419 119.622 75.9781Z" fill="url(#paint10_linear_1793_3939)"/>
</g>
<g filter="url(#filter9_d_1793_3939)">
<path d="M128.799 133.609C128.823 133.503 129.066 133.503 129.089 133.609C129.234 134.25 129.506 135.106 129.981 135.58C130.455 136.055 131.311 136.326 131.952 136.471C132.057 136.495 132.057 136.738 131.952 136.762C131.311 136.907 130.455 137.178 129.981 137.653C129.506 138.127 129.234 138.983 129.089 139.624C129.066 139.73 128.823 139.73 128.799 139.624C128.654 138.983 128.382 138.127 127.908 137.653C127.433 137.178 126.578 136.907 125.937 136.762C125.831 136.738 125.831 136.495 125.937 136.471C126.578 136.326 127.433 136.055 127.908 135.58C128.382 135.106 128.654 134.25 128.799 133.609Z" fill="url(#paint11_linear_1793_3939)"/>
</g>
<g filter="url(#filter10_d_1793_3939)">
<path d="M144.624 114.87C144.645 114.817 144.77 114.837 144.774 114.893C144.797 115.236 144.867 115.699 145.073 115.982C145.279 116.265 145.698 116.474 146.017 116.601C146.069 116.622 146.049 116.747 145.993 116.751C145.651 116.774 145.188 116.844 144.905 117.05C144.621 117.256 144.412 117.675 144.285 117.994C144.264 118.046 144.139 118.026 144.135 117.97C144.113 117.628 144.042 117.165 143.836 116.882C143.63 116.599 143.211 116.389 142.893 116.262C142.84 116.241 142.86 116.116 142.916 116.113C143.259 116.09 143.722 116.019 144.005 115.813C144.288 115.607 144.497 115.189 144.624 114.87Z" fill="url(#paint12_linear_1793_3939)"/>
</g>
<g filter="url(#filter11_d_1793_3939)">
<path d="M39.2081 71.9713C39.2516 71.862 39.5121 71.9031 39.5199 72.0204C39.5671 72.7333 39.7138 73.6981 40.1429 74.2879C40.5721 74.8778 41.4449 75.3142 42.1087 75.5785C42.218 75.622 42.1769 75.8824 42.0596 75.8902C41.3467 75.9374 40.3819 76.0841 39.7921 76.5133C39.2022 76.9424 38.7658 77.8153 38.5015 78.4791C38.458 78.5883 38.1976 78.5472 38.1898 78.4299C38.1426 77.717 37.9959 76.7522 37.5667 76.1624C37.1376 75.5726 36.2647 75.1362 35.6009 74.8719C35.4917 74.8284 35.5328 74.5679 35.6501 74.5601C36.363 74.5129 37.3278 74.3662 37.9176 73.9371C38.5074 73.5079 38.9438 72.6351 39.2081 71.9713Z" fill="url(#paint13_linear_1793_3939)"/>
</g>
<path d="M253.222 143.501C239.306 143.501 227.768 138.876 218.607 129.628C209.447 120.38 204.867 108.886 204.867 95.1453C204.867 81.405 209.447 69.9107 218.607 60.6625C227.768 51.4142 239.306 46.79 253.222 46.79C261.766 46.79 269.649 48.8159 276.872 52.8675C284.094 56.9191 289.731 62.38 293.783 69.2501L270.794 82.462C269.297 79.4673 266.963 77.0892 263.792 75.3276C260.621 73.566 257.098 72.6852 253.222 72.6852C246.705 72.6852 241.42 74.7991 237.368 79.0269C233.317 83.2547 231.291 88.6275 231.291 95.1453C231.291 101.663 233.317 107.036 237.368 111.264C241.42 115.492 246.705 117.605 253.222 117.605C257.186 117.605 260.709 116.725 263.792 114.963C266.963 113.201 269.297 110.779 270.794 107.697L293.783 120.908C289.731 127.867 284.094 133.372 276.872 137.423C269.649 141.475 261.766 143.501 253.222 143.501Z" fill="black"/>
<path d="M346.087 75.3276H370.529V141.387H346.087V135.441C341.859 140.638 335.958 143.236 328.383 143.236C319.487 143.236 312.221 139.933 306.584 133.327C300.947 126.722 298.128 118.398 298.128 108.357C298.128 98.3162 300.947 89.9927 306.584 83.3868C312.221 76.7809 319.487 73.4779 328.383 73.4779C335.958 73.4779 341.859 76.0763 346.087 81.2729V75.3276ZM325.741 117.209C327.943 119.587 330.805 120.776 334.329 120.776C337.852 120.776 340.67 119.587 342.784 117.209C344.986 114.831 346.087 111.88 346.087 108.357C346.087 104.834 344.986 101.883 342.784 99.5052C340.67 97.1271 337.852 95.938 334.329 95.938C330.805 95.938 327.943 97.1271 325.741 99.5052C323.627 101.883 322.57 104.834 322.57 108.357C322.57 111.88 323.627 114.831 325.741 117.209Z" fill="black"/>
<path d="M423.303 73.4779C432.199 73.4779 439.465 76.7809 445.103 83.3868C450.74 89.9927 453.558 98.3162 453.558 108.357C453.558 118.398 450.74 126.722 445.103 133.327C439.465 139.933 432.199 143.236 423.303 143.236C415.728 143.236 409.827 140.638 405.599 135.441V167.81H381.157V75.3276H405.599V81.2729C409.827 76.0763 415.728 73.4779 423.303 73.4779ZM408.77 117.209C410.972 119.587 413.835 120.776 417.358 120.776C420.881 120.776 423.699 119.587 425.813 117.209C428.015 114.831 429.116 111.88 429.116 108.357C429.116 104.834 428.015 101.883 425.813 99.5052C423.699 97.1271 420.881 95.938 417.358 95.938C413.835 95.938 410.972 97.1271 408.77 99.5052C406.656 101.883 405.599 104.834 405.599 108.357C405.599 111.88 406.656 114.831 408.77 117.209Z" fill="black"/>
<path d="M482.994 94.749C482.994 95.8059 483.786 96.6427 485.372 97.2592C487.045 97.8758 489.115 98.3602 491.581 98.7125C494.048 98.9768 496.69 99.5493 499.508 100.43C502.327 101.311 504.969 102.412 507.435 103.733C509.902 105.054 511.928 107.168 513.513 110.075C515.186 112.893 516.023 116.328 516.023 120.38C516.023 124.608 515.054 128.307 513.117 131.478C511.267 134.649 508.801 137.027 505.718 138.612C502.635 140.198 499.464 141.343 496.205 142.047C493.035 142.84 489.732 143.236 486.297 143.236C470.354 143.236 460.049 137.996 455.381 127.514L476.652 118.002C478.325 122.494 481.452 124.74 486.032 124.74C489.027 124.74 490.524 123.771 490.524 121.833C490.524 120.688 489.423 119.763 487.221 119.059C485.019 118.354 482.377 117.649 479.294 116.945C476.212 116.152 473.085 115.139 469.914 113.906C466.831 112.585 464.189 110.427 461.987 107.432C459.785 104.438 458.684 100.694 458.684 96.2023C458.684 88.9798 461.414 83.3868 466.875 79.4232C472.424 75.4597 478.81 73.4779 486.032 73.4779C500.477 73.4779 510.034 79.0709 514.702 90.2569L494.488 97.5235C492.902 93.8241 490.436 91.9745 487.089 91.9745C484.359 91.9745 482.994 92.8993 482.994 94.749Z" fill="black"/>
<path d="M578.168 141.387L574.998 129.496H548.31L545.139 141.387H516.733L546.196 48.9039H577.111L606.574 141.387H578.168ZM553.991 108.357H569.316L561.654 79.9517L553.991 108.357Z" fill="black"/>
<path d="M622.482 59.6085C622.482 59.6085 622.414 59.0784 622.482 59.1487C622.516 59.162 622.482 59.6085 622.482 59.6085ZM610.558 141.387V48.9039H635V141.387H610.558Z" fill="black"/>
</g>
<defs>
<filter id="filter0_f_1793_3939" x="-3.72406" y="34.1177" width="186.016" height="145.258" filterUnits="userSpaceOnUse" color-interpolation-filters="sRGB">
<feFlood flood-opacity="0" result="BackgroundImageFix"/>
<feBlend mode="normal" in="SourceGraphic" in2="BackgroundImageFix" result="shape"/>
<feGaussianBlur stdDeviation="12.5114" result="effect1_foregroundBlur_1793_3939"/>
</filter>
<filter id="filter1_f_1793_3939" x="6.68764" y="-16.0565" width="179.965" height="136.73" filterUnits="userSpaceOnUse" color-interpolation-filters="sRGB">
<feFlood flood-opacity="0" result="BackgroundImageFix"/>
<feBlend mode="normal" in="SourceGraphic" in2="BackgroundImageFix" result="shape"/>
<feGaussianBlur stdDeviation="15.7978" result="effect1_foregroundBlur_1793_3939"/>
</filter>
<filter id="filter2_f_1793_3939" x="120.217" y="48.9402" width="68.4057" height="69.6991" filterUnits="userSpaceOnUse" color-interpolation-filters="sRGB">
<feFlood flood-opacity="0" result="BackgroundImageFix"/>
<feBlend mode="normal" in="SourceGraphic" in2="BackgroundImageFix" result="shape"/>
<feGaussianBlur stdDeviation="6.45591" result="effect1_foregroundBlur_1793_3939"/>
</filter>
<filter id="filter3_d_1793_3939" x="59.3352" y="85.3579" width="95.3217" height="89.078" filterUnits="userSpaceOnUse" color-interpolation-filters="sRGB">
<feFlood flood-opacity="0" result="BackgroundImageFix"/>
<feColorMatrix in="SourceAlpha" type="matrix" values="0 0 0 0 0 0 0 0 0 0 0 0 0 0 0 0 0 0 127 0" result="hardAlpha"/>
<feOffset dy="2.66911"/>
<feGaussianBlur stdDeviation="0.884142"/>
<feComposite in2="hardAlpha" operator="out"/>
<feColorMatrix type="matrix" values="0 0 0 0 0 0 0 0 0 0 0 0 0 0 0 0 0 0 0.14 0"/>
<feBlend mode="normal" in2="BackgroundImageFix" result="effect1_dropShadow_1793_3939"/>
<feBlend mode="normal" in="SourceGraphic" in2="effect1_dropShadow_1793_3939" result="shape"/>
</filter>
<filter id="filter4_d_1793_3939" x="36.3073" y="91.9621" width="16.608" height="16.609" filterUnits="userSpaceOnUse" color-interpolation-filters="sRGB">
<feFlood flood-opacity="0" result="BackgroundImageFix"/>
<feColorMatrix in="SourceAlpha" type="matrix" values="0 0 0 0 0 0 0 0 0 0 0 0 0 0 0 0 0 0 127 0" result="hardAlpha"/>
<feOffset dy="0.266116"/>
<feGaussianBlur stdDeviation="1.92934"/>
<feComposite in2="hardAlpha" operator="out"/>
<feColorMatrix type="matrix" values="0 0 0 0 1 0 0 0 0 0.980392 0 0 0 0 0.713726 0 0 0 1 0"/>
<feBlend mode="normal" in2="BackgroundImageFix" result="effect1_dropShadow_1793_3939"/>
<feBlend mode="normal" in="SourceGraphic" in2="effect1_dropShadow_1793_3939" result="shape"/>
</filter>
<filter id="filter5_d_1793_3939" x="52.9891" y="125.865" width="8.428" height="8.42849" filterUnits="userSpaceOnUse" color-interpolation-filters="sRGB">
<feFlood flood-opacity="0" result="BackgroundImageFix"/>
<feColorMatrix in="SourceAlpha" type="matrix" values="0 0 0 0 0 0 0 0 0 0 0 0 0 0 0 0 0 0 127 0" result="hardAlpha"/>
<feOffset dy="0.135044"/>
<feGaussianBlur stdDeviation="0.97907"/>
<feComposite in2="hardAlpha" operator="out"/>
<feColorMatrix type="matrix" values="0 0 0 0 1 0 0 0 0 0.980392 0 0 0 0 0.713726 0 0 0 1 0"/>
<feBlend mode="normal" in2="BackgroundImageFix" result="effect1_dropShadow_1793_3939"/>
<feBlend mode="normal" in="SourceGraphic" in2="effect1_dropShadow_1793_3939" result="shape"/>
</filter>
<filter id="filter6_d_1793_3939" x="29.5298" y="114.363" width="4.95799" height="4.95799" filterUnits="userSpaceOnUse" color-interpolation-filters="sRGB">
<feFlood flood-opacity="0" result="BackgroundImageFix"/>
<feColorMatrix in="SourceAlpha" type="matrix" values="0 0 0 0 0 0 0 0 0 0 0 0 0 0 0 0 0 0 127 0" result="hardAlpha"/>
<feOffset dy="0.0794378"/>
<feGaussianBlur stdDeviation="0.575924"/>
<feComposite in2="hardAlpha" operator="out"/>
<feColorMatrix type="matrix" values="0 0 0 0 1 0 0 0 0 0.980392 0 0 0 0 0.713726 0 0 0 1 0"/>
<feBlend mode="normal" in2="BackgroundImageFix" result="effect1_dropShadow_1793_3939"/>
<feBlend mode="normal" in="SourceGraphic" in2="effect1_dropShadow_1793_3939" result="shape"/>
</filter>
<filter id="filter7_d_1793_3939" x="61.4188" y="62.2124" width="7.93201" height="7.93201" filterUnits="userSpaceOnUse" color-interpolation-filters="sRGB">
<feFlood flood-opacity="0" result="BackgroundImageFix"/>
<feColorMatrix in="SourceAlpha" type="matrix" values="0 0 0 0 0 0 0 0 0 0 0 0 0 0 0 0 0 0 127 0" result="hardAlpha"/>
<feOffset dy="0.1271"/>
<feGaussianBlur stdDeviation="0.921478"/>
<feComposite in2="hardAlpha" operator="out"/>
<feColorMatrix type="matrix" values="0 0 0 0 1 0 0 0 0 0.980392 0 0 0 0 0.713726 0 0 0 1 0"/>
<feBlend mode="normal" in2="BackgroundImageFix" result="effect1_dropShadow_1793_3939"/>
<feBlend mode="normal" in="SourceGraphic" in2="effect1_dropShadow_1793_3939" result="shape"/>
</filter>
<filter id="filter8_d_1793_3939" x="113.072" y="73.2335" width="12.394" height="12.3945" filterUnits="userSpaceOnUse" color-interpolation-filters="sRGB">
<feFlood flood-opacity="0" result="BackgroundImageFix"/>
<feColorMatrix in="SourceAlpha" type="matrix" values="0 0 0 0 0 0 0 0 0 0 0 0 0 0 0 0 0 0 127 0" result="hardAlpha"/>
<feOffset dy="0.198594"/>
<feGaussianBlur stdDeviation="1.43981"/>
<feComposite in2="hardAlpha" operator="out"/>
<feColorMatrix type="matrix" values="0 0 0 0 1 0 0 0 0 0.980392 0 0 0 0 0.713726 0 0 0 1 0"/>
<feBlend mode="normal" in2="BackgroundImageFix" result="effect1_dropShadow_1793_3939"/>
<feBlend mode="normal" in="SourceGraphic" in2="effect1_dropShadow_1793_3939" result="shape"/>
</filter>
<filter id="filter9_d_1793_3939" x="123.208" y="131.063" width="11.4723" height="11.4723" filterUnits="userSpaceOnUse" color-interpolation-filters="sRGB">
<feFlood flood-opacity="0" result="BackgroundImageFix"/>
<feColorMatrix in="SourceAlpha" type="matrix" values="0 0 0 0 0 0 0 0 0 0 0 0 0 0 0 0 0 0 127 0" result="hardAlpha"/>
<feOffset dy="0.182707"/>
<feGaussianBlur stdDeviation="1.32462"/>
<feComposite in2="hardAlpha" operator="out"/>
<feColorMatrix type="matrix" values="0 0 0 0 1 0 0 0 0 0.980392 0 0 0 0 0.713726 0 0 0 1 0"/>
<feBlend mode="normal" in2="BackgroundImageFix" result="effect1_dropShadow_1793_3939"/>
<feBlend mode="normal" in="SourceGraphic" in2="effect1_dropShadow_1793_3939" result="shape"/>
</filter>
<filter id="filter10_d_1793_3939" x="141.479" y="113.552" width="5.94998" height="5.94949" filterUnits="userSpaceOnUse" color-interpolation-filters="sRGB">
<feFlood flood-opacity="0" result="BackgroundImageFix"/>
<feColorMatrix in="SourceAlpha" type="matrix" values="0 0 0 0 0 0 0 0 0 0 0 0 0 0 0 0 0 0 127 0" result="hardAlpha"/>
<feOffset dy="0.0953253"/>
<feGaussianBlur stdDeviation="0.691108"/>
<feComposite in2="hardAlpha" operator="out"/>
<feColorMatrix type="matrix" values="0 0 0 0 1 0 0 0 0 0.980392 0 0 0 0 0.713726 0 0 0 1 0"/>
<feBlend mode="normal" in2="BackgroundImageFix" result="effect1_dropShadow_1793_3939"/>
<feBlend mode="normal" in="SourceGraphic" in2="effect1_dropShadow_1793_3939" result="shape"/>
</filter>
<filter id="filter11_d_1793_3939" x="32.6575" y="69.2267" width="12.394" height="12.3945" filterUnits="userSpaceOnUse" color-interpolation-filters="sRGB">
<feFlood flood-opacity="0" result="BackgroundImageFix"/>
<feColorMatrix in="SourceAlpha" type="matrix" values="0 0 0 0 0 0 0 0 0 0 0 0 0 0 0 0 0 0 127 0" result="hardAlpha"/>
<feOffset dy="0.198594"/>
<feGaussianBlur stdDeviation="1.43981"/>
<feComposite in2="hardAlpha" operator="out"/>
<feColorMatrix type="matrix" values="0 0 0 0 1 0 0 0 0 0.980392 0 0 0 0 0.713726 0 0 0 1 0"/>
<feBlend mode="normal" in2="BackgroundImageFix" result="effect1_dropShadow_1793_3939"/>
<feBlend mode="normal" in="SourceGraphic" in2="effect1_dropShadow_1793_3939" result="shape"/>
</filter>
<linearGradient id="paint0_linear_1793_3939" x1="79.5907" y1="39.416" x2="76.817" y2="59.4784" gradientUnits="userSpaceOnUse">
<stop stop-color="#FFFDEC"/>
<stop offset="1" stop-color="#FFF458"/>
</linearGradient>
<linearGradient id="paint1_linear_1793_3939" x1="79.7305" y1="83.9044" x2="85.5692" y2="130.447" gradientUnits="userSpaceOnUse">
<stop stop-color="#FFFDEC"/>
<stop offset="1" stop-color="#FFF458"/>
</linearGradient>
<linearGradient id="paint2_linear_1793_3939" x1="132.709" y1="17.2518" x2="34.5223" y2="150.796" gradientUnits="userSpaceOnUse">
<stop stop-color="#FFDD00"/>
<stop offset="0.0935308" stop-color="#FFCC0C"/>
<stop offset="0.189343" stop-color="#FFA82E"/>
<stop offset="0.434197" stop-color="#FF7F5B"/>
<stop offset="0.750022" stop-color="#8320F7"/>
<stop offset="1" stop-color="#250944"/>
</linearGradient>
<linearGradient id="paint3_linear_1793_3939" x1="147.051" y1="71.2531" x2="156.542" y2="99.3394" gradientUnits="userSpaceOnUse">
<stop stop-color="white"/>
<stop offset="1" stop-color="#87FDFF"/>
</linearGradient>
<linearGradient id="paint4_linear_1793_3939" x1="28.262" y1="-0.356577" x2="28.2416" y2="19.0096" gradientUnits="userSpaceOnUse">
<stop stop-color="#DAFDFF"/>
<stop offset="0.17" stop-color="#54F9FF"/>
<stop offset="0.345" stop-color="#2BCCF9"/>
<stop offset="0.5" stop-color="#0A9DF3"/>
<stop offset="0.726864" stop-color="#46B0F5"/>
<stop offset="0.875672" stop-color="#6FBFF7"/>
<stop offset="1" stop-color="#D9EAFD"/>
</linearGradient>
<linearGradient id="paint5_linear_1793_3939" x1="124.63" y1="97.6366" x2="138.673" y2="112.74" gradientUnits="userSpaceOnUse">
<stop stop-color="#EAFAF7"/>
<stop offset="0.17" stop-color="#8CE1F8"/>
<stop offset="0.345" stop-color="#1BC4F3"/>
<stop offset="0.5" stop-color="#0961E6"/>
<stop offset="0.77" stop-color="#113EE0"/>
<stop offset="0.875672" stop-color="#175CE7"/>
<stop offset="1" stop-color="#40B6EF"/>
</linearGradient>
<linearGradient id="paint6_linear_1793_3939" x1="45.3349" y1="95.1254" x2="43.7404" y2="105.521" gradientUnits="userSpaceOnUse">
<stop stop-color="#FFFFDE"/>
<stop offset="0.462436" stop-color="#FFFC0E"/>
<stop offset="1" stop-color="#FFDA06"/>
</linearGradient>
<linearGradient id="paint7_linear_1793_3939" x1="57.5708" y1="127.47" x2="56.7617" y2="132.745" gradientUnits="userSpaceOnUse">
<stop stop-color="#FFFFDE"/>
<stop offset="0.462436" stop-color="#FFFC0E"/>
<stop offset="1" stop-color="#FFDA06"/>
</linearGradient>
<linearGradient id="paint8_linear_1793_3939" x1="32.2253" y1="115.307" x2="31.7493" y2="118.41" gradientUnits="userSpaceOnUse">
<stop stop-color="#FFFFDE"/>
<stop offset="0.462436" stop-color="#FFFC0E"/>
<stop offset="1" stop-color="#FFDA06"/>
</linearGradient>
<linearGradient id="paint9_linear_1793_3939" x1="65.7307" y1="63.7229" x2="64.9692" y2="68.6878" gradientUnits="userSpaceOnUse">
<stop stop-color="#FFFFDE"/>
<stop offset="0.462436" stop-color="#FFFC0E"/>
<stop offset="1" stop-color="#FFDA06"/>
</linearGradient>
<linearGradient id="paint10_linear_1793_3939" x1="119.809" y1="75.5939" x2="118.619" y2="83.3516" gradientUnits="userSpaceOnUse">
<stop stop-color="#FFFFDE"/>
<stop offset="0.462436" stop-color="#FFFC0E"/>
<stop offset="1" stop-color="#FFDA06"/>
</linearGradient>
<linearGradient id="paint11_linear_1793_3939" x1="128.914" y1="133.233" x2="128.944" y2="140.453" gradientUnits="userSpaceOnUse">
<stop stop-color="#FFFFDE"/>
<stop offset="0.462436" stop-color="#FFFC0E"/>
<stop offset="1" stop-color="#FFDA06"/>
</linearGradient>
<linearGradient id="paint12_linear_1793_3939" x1="144.714" y1="114.685" x2="144.143" y2="118.409" gradientUnits="userSpaceOnUse">
<stop stop-color="#FFFFDE"/>
<stop offset="0.462436" stop-color="#FFFC0E"/>
<stop offset="1" stop-color="#FFDA06"/>
</linearGradient>
<linearGradient id="paint13_linear_1793_3939" x1="39.3952" y1="71.587" x2="38.2053" y2="79.3448" gradientUnits="userSpaceOnUse">
<stop stop-color="#FFFFDE"/>
<stop offset="0.462436" stop-color="#FFFC0E"/>
<stop offset="1" stop-color="#FFDA06"/>
</linearGradient>
<clipPath id="clip0_1793_3939">
<rect width="637" height="174" fill="white"/>
</clipPath>
</defs>
</svg>
