<svg width="1501" height="1512" viewBox="0 0 1501 1512" fill="none" xmlns="http://www.w3.org/2000/svg">
    <path d="M1496.06 376.548L1495.7 375.827L1494.9 375.743L1495.62 375.382L1495.7 374.58L1496.06 375.301L1496.86 375.385L1496.14 375.746L1496.06 376.548Z" fill="white"/>
    <path d="M1350.64 513.609L1350.28 512.888L1349.47 512.804L1350.2 512.443L1350.28 511.641L1350.64 512.362L1351.44 512.446L1350.72 512.807L1350.64 513.609Z" fill="white"/>
    <path d="M1351.98 379.284L1351.62 378.563L1350.82 378.479L1351.54 378.118L1351.62 377.316L1351.98 378.037L1352.78 378.121L1352.06 378.482L1351.98 379.284Z" fill="white"/>
    <path d="M1433.91 447.372L1433.55 446.651L1432.75 446.567L1433.47 446.206L1433.55 445.404L1433.91 446.125L1434.72 446.209L1434 446.57L1433.91 447.372Z" fill="white"/>
    <path d="M1439.76 387.241L1439.4 386.52L1438.6 386.436L1439.32 386.075L1439.4 385.273L1439.76 385.994L1440.57 386.078L1439.85 386.439L1439.76 387.241Z" fill="white"/>
    <path d="M1211.2 657.117L1210.84 656.397L1210.04 656.313L1210.76 655.951L1210.84 655.15L1211.2 655.87L1212.01 655.954L1211.29 656.316L1211.2 657.117Z" fill="white"/>
    <path d="M1388.77 557.563L1388.41 556.842L1387.61 556.758L1388.33 556.397L1388.41 555.595L1388.77 556.316L1389.57 556.4L1388.85 556.761L1388.77 557.563Z" fill="white"/>
    <path d="M1126.54 895.758L1126.18 895.037L1125.38 894.953L1126.1 894.592L1126.18 893.79L1126.54 894.511L1127.34 894.595L1126.62 894.956L1126.54 895.758Z" fill="white"/>
    <path d="M1100.51 612.84L1100.15 612.119L1099.35 612.035L1100.07 611.674L1100.15 610.872L1100.51 611.593L1101.32 611.677L1100.6 612.038L1100.51 612.84Z" fill="white"/>
    <path d="M1265.43 485.197L1265.07 484.476L1264.26 484.392L1264.99 484.031L1265.07 483.229L1265.43 483.95L1266.23 484.034L1265.51 484.395L1265.43 485.197Z" fill="white"/>
    <path d="M1135.19 400.769L1134.83 400.048L1134.03 399.964L1134.75 399.603L1134.83 398.801L1135.2 399.522L1136 399.606L1135.28 399.967L1135.19 400.769Z" fill="white"/>
    <path d="M848.317 925.652L847.956 924.931L847.154 924.847L847.875 924.486L847.959 923.684L848.32 924.405L849.122 924.489L848.401 924.85L848.317 925.652Z" fill="white"/>
    <path d="M922.424 1191.29L922.063 1190.57L921.261 1190.49L921.982 1190.13L922.066 1189.33L922.427 1190.05L923.229 1190.13L922.508 1190.49L922.424 1191.29Z" fill="white"/>
    <path d="M632.503 1341.45L632.142 1340.73L631.341 1340.65L632.061 1340.29L632.145 1339.48L632.506 1340.2L633.308 1340.29L632.588 1340.65L632.503 1341.45Z" fill="white"/>
    <path d="M423.572 1075.33L423.211 1074.61L422.409 1074.53L423.13 1074.17L423.214 1073.36L423.575 1074.09L424.377 1074.17L423.656 1074.53L423.572 1075.33Z" fill="white"/>
    <path d="M185.867 1087.05L185.506 1086.33L184.704 1086.25L185.425 1085.88L185.509 1085.08L185.87 1085.8L186.672 1085.89L185.951 1086.25L185.867 1087.05Z" fill="white"/>
    <path d="M310.056 801.948L309.695 801.227L308.893 801.143L309.614 800.782L309.698 799.98L310.059 800.701L310.861 800.785L310.14 801.146L310.056 801.948Z" fill="white"/>
    <path d="M520.964 512.643L520.603 511.922L519.801 511.838L520.522 511.477L520.606 510.675L520.967 511.396L521.769 511.48L521.048 511.841L520.964 512.643Z" fill="white"/>
    <path d="M761.188 854.563L760.827 853.843L760.025 853.759L760.746 853.397L760.83 852.596L761.191 853.316L761.993 853.4L761.272 853.762L761.188 854.563Z" fill="white"/>
    <path d="M965.604 658.505L965.243 657.784L964.441 657.7L965.162 657.339L965.246 656.537L965.607 657.258L966.409 657.342L965.688 657.703L965.604 658.505Z" fill="white"/>
    <path d="M742.747 288.505L742.385 287.785L741.584 287.701L742.304 287.339L742.388 286.538L742.75 287.258L743.551 287.342L742.831 287.704L742.747 288.505Z" fill="white"/>
    <path d="M962.974 135.061L962.613 134.34L961.811 134.256L962.532 133.895L962.616 133.093L962.977 133.814L963.779 133.898L963.058 134.259L962.974 135.061Z" fill="white"/>
    <path d="M1261.98 311.159L1261.62 310.438L1260.82 310.354L1261.54 309.993L1261.63 309.191L1261.99 309.912L1262.79 309.996L1262.07 310.357L1261.98 311.159Z" fill="white"/>
    <path d="M1072.41 573.519L1072.04 572.799L1071.24 572.715L1071.96 572.353L1072.05 571.552L1072.41 572.272L1073.21 572.356L1072.49 572.718L1072.41 573.519Z" fill="white"/>
    <path d="M786.308 1063.06L785.947 1062.34L785.145 1062.25L785.866 1061.89L785.95 1061.09L786.311 1061.81L787.113 1061.89L786.392 1062.25L786.308 1063.06Z" fill="white"/>
    <path d="M637.292 851.159L636.93 850.438L636.129 850.354L636.849 849.993L636.933 849.191L637.295 849.912L638.096 849.996L637.376 850.357L637.292 851.159Z" fill="white"/>
    <path d="M597.271 674.477L596.91 673.757L596.108 673.673L596.829 673.311L596.913 672.51L597.274 673.23L598.076 673.315L597.355 673.676L597.271 674.477Z" fill="white"/>
    <path d="M930.026 654.129L929.665 653.408L928.863 653.324L929.584 652.963L929.668 652.161L930.029 652.882L930.831 652.966L930.11 653.327L930.026 654.129Z" fill="white"/>
    <path d="M978.276 932.556L977.915 931.836L977.113 931.752L977.834 931.39L977.918 930.589L978.279 931.309L979.081 931.393L978.36 931.755L978.276 932.556Z" fill="white"/>
    <path d="M854.773 116.47L854.412 115.749L853.61 115.665L854.331 115.304L854.415 114.502L854.776 115.223L855.578 115.307L854.857 115.668L854.773 116.47Z" fill="white"/>
    <path d="M1128.31 246.685L1127.95 245.965L1127.15 245.881L1127.87 245.52L1127.95 244.718L1128.32 245.438L1129.12 245.523L1128.4 245.884L1128.31 246.685Z" fill="white"/>
    <path d="M862.339 729.365L861.978 728.645L861.176 728.561L861.897 728.199L861.981 727.398L862.342 728.118L863.144 728.202L862.423 728.564L862.339 729.365Z" fill="white"/>
    <path d="M383.778 708.257L383.417 707.536L382.615 707.452L383.336 707.091L383.42 706.289L383.781 707.01L384.583 707.094L383.862 707.455L383.778 708.257Z" fill="white"/>
    <path d="M496.568 336.899L496.207 336.179L495.405 336.095L496.126 335.733L496.21 334.932L496.571 335.652L497.373 335.736L496.652 336.098L496.568 336.899Z" fill="white"/>
    <path d="M817.631 518.801L817.27 518.081L816.468 517.997L817.189 517.635L817.273 516.834L817.634 517.554L818.436 517.638L817.715 518L817.631 518.801Z" fill="white"/>
    <path d="M821.941 1417.34L821.58 1416.62L820.778 1416.53L821.499 1416.17L821.583 1415.37L821.944 1416.09L822.746 1416.17L822.025 1416.54L821.941 1417.34Z" fill="white"/>
    <path d="M815.814 1511.95L815.453 1511.23L814.651 1511.14L815.372 1510.78L815.456 1509.98L815.817 1510.7L816.619 1510.79L815.898 1511.15L815.814 1511.95Z" fill="white"/>
    <path d="M126.154 1126.48L125.793 1125.75L124.991 1125.67L125.712 1125.31L125.796 1124.51L126.157 1125.23L126.959 1125.31L126.238 1125.67L126.154 1126.48Z" fill="white"/>
    <path d="M124.365 887.574L124.004 886.853L123.202 886.769L123.923 886.408L124.007 885.606L124.368 886.327L125.17 886.411L124.449 886.772L124.365 887.574Z" fill="white"/>
    <path d="M565.122 986.161L564.76 985.44L563.959 985.356L564.679 984.995L564.763 984.193L565.125 984.914L565.926 984.998L565.206 985.359L565.122 986.161Z" fill="white"/>
    <path d="M704.758 576.779L704.036 575.338L702.432 575.17L703.873 574.447L704.042 572.844L704.764 574.285L706.367 574.453L704.926 575.176L704.758 576.779Z" fill="white"/>
    <path d="M975.72 447.459L974.997 446.018L973.394 445.85L974.835 445.128L975.003 443.524L975.726 444.966L977.329 445.134L975.888 445.856L975.72 447.459Z" fill="white"/>
    <path d="M926.135 1109.34L925.413 1107.9L923.809 1107.73L925.25 1107.01L925.419 1105.41L926.141 1106.85L927.744 1107.02L926.303 1107.74L926.135 1109.34Z" fill="white"/>
    <path d="M1151.75 970.559L1151.03 969.117L1149.43 968.949L1150.87 968.227L1151.04 966.624L1151.76 968.065L1153.36 968.233L1151.92 968.955L1151.75 970.559Z" fill="white"/>
    <path d="M1258.16 780.265L1257.43 778.824L1255.83 778.656L1257.27 777.933L1257.44 776.33L1258.16 777.771L1259.77 777.939L1258.32 778.662L1258.16 780.265Z" fill="white"/>
    <path d="M971.869 1340.13L971.147 1338.69L969.543 1338.52L970.985 1337.8L971.153 1336.19L971.875 1337.64L973.479 1337.8L972.037 1338.53L971.869 1340.13Z" fill="white"/>
    <path d="M539.398 857.192L538.675 855.751L537.072 855.582L538.513 854.86L538.681 853.257L539.404 854.698L541.007 854.866L539.566 855.588L539.398 857.192Z" fill="white"/>
    <path d="M909.182 264.706L908.459 263.265L906.856 263.097L908.297 262.374L908.465 260.771L909.188 262.212L910.791 262.38L909.35 263.103L909.182 264.706Z" fill="white"/>
    <path d="M652.018 78.1275L651.295 76.6861L649.692 76.518L651.133 75.7956L651.301 74.1921L652.024 75.6335L653.627 75.8016L652.186 76.524L652.018 78.1275Z" fill="white"/>
    <path d="M1031.78 170.365L1031.06 168.923L1029.45 168.755L1030.89 168.033L1031.06 166.429L1031.78 167.871L1033.39 168.039L1031.95 168.761L1031.78 170.365Z" fill="white"/>
    <path d="M766.212 4.33839L765.49 2.897L763.886 2.7289L765.328 2.00654L765.496 0.403059L766.218 1.84445L767.822 2.01256L766.38 2.73491L766.212 4.33839Z" fill="white"/>
    <path d="M1258.06 244.429L1257.34 242.988L1255.74 242.82L1257.18 242.098L1257.35 240.494L1258.07 241.936L1259.67 242.104L1258.23 242.826L1258.06 244.429Z" fill="white"/>
    <path d="M1499.28 994.952L1499.53 994.187L1499.02 993.56L1499.79 993.815L1500.41 993.307L1500.16 994.072L1500.67 994.698L1499.9 994.444L1499.28 994.952Z" fill="white"/>
    <path d="M1299.53 989.039L1299.78 988.274L1299.28 987.648L1300.04 987.902L1300.67 987.394L1300.41 988.159L1300.92 988.786L1300.16 988.531L1299.53 989.039Z" fill="white"/>
    <path d="M1395.46 895.006L1395.72 894.241L1395.21 893.615L1395.97 893.869L1396.6 893.361L1396.34 894.126L1396.85 894.753L1396.09 894.498L1395.46 895.006Z" fill="white"/>
    <path d="M1405.25 1001.09L1405.5 1000.32L1405 999.696L1405.76 999.95L1406.39 999.442L1406.13 1000.21L1406.64 1000.83L1405.88 1000.58L1405.25 1001.09Z" fill="white"/>
    <path d="M1451.91 962.704L1452.16 961.939L1451.65 961.312L1452.42 961.567L1453.04 961.059L1452.79 961.824L1453.3 962.45L1452.53 962.196L1451.91 962.704Z" fill="white"/>
    <path d="M1099.46 991.919L1099.71 991.154L1099.2 990.528L1099.97 990.782L1100.6 990.275L1100.34 991.04L1100.85 991.666L1100.08 991.412L1099.46 991.919Z" fill="white"/>
    <path d="M1295.41 1047.08L1295.67 1046.32L1295.16 1045.69L1295.92 1045.95L1296.55 1045.44L1296.3 1046.2L1296.8 1046.83L1296.04 1046.57L1295.41 1047.08Z" fill="white"/>
    <path d="M870.848 1100.8L871.102 1100.03L870.594 1099.41L871.359 1099.66L871.986 1099.15L871.731 1099.92L872.239 1100.54L871.474 1100.29L870.848 1100.8Z" fill="white"/>
    <path d="M1052.5 882.34L1052.75 881.575L1052.24 880.949L1053.01 881.203L1053.63 880.696L1053.38 881.461L1053.89 882.087L1053.12 881.833L1052.5 882.34Z" fill="white"/>
    <path d="M1259.37 908.696L1259.62 907.931L1259.11 907.305L1259.88 907.559L1260.51 907.051L1260.25 907.816L1260.76 908.443L1259.99 908.189L1259.37 908.696Z" fill="white"/>
    <path d="M1226.98 756.907L1227.23 756.142L1226.72 755.516L1227.49 755.77L1228.12 755.262L1227.86 756.027L1228.37 756.654L1227.6 756.4L1226.98 756.907Z" fill="white"/>
    <path d="M652.977 925.204L653.232 924.439L652.724 923.812L653.489 924.067L654.116 923.559L653.861 924.324L654.369 924.95L653.604 924.696L652.977 925.204Z" fill="white"/>
    <path d="M517.541 1165.44L517.795 1164.68L517.288 1164.05L518.053 1164.31L518.679 1163.8L518.425 1164.56L518.932 1165.19L518.167 1164.94L517.541 1165.44Z" fill="white"/>
    <path d="M206.359 1066.62L206.614 1065.85L206.106 1065.22L206.871 1065.48L207.497 1064.97L207.243 1065.74L207.751 1066.36L206.986 1066.11L206.359 1066.62Z" fill="white"/>
    <path d="M246.797 730.704L247.051 729.939L246.544 729.312L247.309 729.567L247.935 729.059L247.681 729.824L248.188 730.45L247.423 730.196L246.797 730.704Z" fill="white"/>
    <path d="M70.4287 570.906L70.6829 570.141L70.1754 569.515L70.9404 569.769L71.5668 569.261L71.3125 570.026L71.82 570.653L71.055 570.399L70.4287 570.906Z" fill="white"/>
    <path d="M359.841 457.124L360.095 456.359L359.588 455.732L360.353 455.986L360.979 455.479L360.725 456.244L361.232 456.87L360.467 456.616L359.841 457.124Z" fill="white"/>
    <path d="M713.546 401.689L713.8 400.924L713.293 400.298L714.058 400.552L714.684 400.045L714.43 400.81L714.937 401.436L714.172 401.182L713.546 401.689Z" fill="white"/>
    <path d="M641.635 813.327L641.889 812.562L641.381 811.936L642.146 812.19L642.773 811.683L642.519 812.448L643.026 813.074L642.261 812.82L641.635 813.327Z" fill="white"/>
    <path d="M924.813 819.237L925.068 818.472L924.56 817.845L925.325 818.099L925.952 817.592L925.697 818.357L926.205 818.983L925.44 818.729L924.813 819.237Z" fill="white"/>
    <path d="M1028.86 400.023L1029.11 399.258L1028.61 398.632L1029.37 398.886L1030 398.379L1029.74 399.144L1030.25 399.77L1029.48 399.516L1028.86 400.023Z" fill="white"/>
    <path d="M1293.08 447.246L1293.34 446.481L1292.83 445.855L1293.6 446.109L1294.22 445.602L1293.97 446.367L1294.48 446.993L1293.71 446.739L1293.08 447.246Z" fill="white"/>
    <path d="M1380 783.199L1380.25 782.434L1379.74 781.807L1380.51 782.062L1381.13 781.554L1380.88 782.319L1381.39 782.946L1380.62 782.691L1380 783.199Z" fill="white"/>
    <path d="M1060.43 834.663L1060.68 833.898L1060.17 833.272L1060.94 833.526L1061.56 833.018L1061.31 833.783L1061.82 834.41L1061.05 834.155L1060.43 834.663Z" fill="white"/>
    <path d="M511.971 978.515L512.225 977.75L511.717 977.124L512.482 977.378L513.109 976.871L512.855 977.636L513.362 978.262L512.597 978.008L511.971 978.515Z" fill="white"/>
    <path d="M556.434 723.312L556.688 722.547L556.18 721.92L556.945 722.174L557.572 721.667L557.317 722.432L557.825 723.058L557.06 722.804L556.434 723.312Z" fill="white"/>
    <path d="M653.067 570.08L653.322 569.315L652.814 568.689L653.579 568.943L654.205 568.435L653.951 569.2L654.459 569.827L653.694 569.572L653.067 570.08Z" fill="white"/>
    <path d="M902.749 790.985L903.003 790.22L902.496 789.593L903.261 789.848L903.887 789.34L903.633 790.105L904.14 790.731L903.375 790.477L902.749 790.985Z" fill="white"/>
    <path d="M739.99 1021.98L740.244 1021.22L739.737 1020.59L740.502 1020.84L741.128 1020.34L740.874 1021.1L741.382 1021.73L740.617 1021.47L739.99 1021.98Z" fill="white"/>
    <path d="M1229.72 357.591L1229.97 356.826L1229.47 356.2L1230.23 356.454L1230.86 355.946L1230.6 356.711L1231.11 357.338L1230.35 357.083L1229.72 357.591Z" fill="white"/>
    <path d="M1331.07 643.089L1331.32 642.324L1330.81 641.697L1331.58 641.952L1332.2 641.444L1331.95 642.209L1332.46 642.835L1331.69 642.581L1331.07 643.089Z" fill="white"/>
    <path d="M801.687 796.323L801.942 795.558L801.434 794.932L802.199 795.186L802.826 794.679L802.571 795.444L803.079 796.07L802.314 795.816L801.687 796.323Z" fill="white"/>
    <path d="M478.22 443.004L478.474 442.239L477.966 441.612L478.731 441.867L479.358 441.359L479.104 442.124L479.611 442.75L478.846 442.496L478.22 443.004Z" fill="white"/>
    <path d="M820.563 260.169L820.818 259.404L820.31 258.777L821.075 259.032L821.702 258.524L821.447 259.289L821.955 259.915L821.19 259.661L820.563 260.169Z" fill="white"/>
    <path d="M918.966 615.819L919.22 615.054L918.713 614.428L919.478 614.682L920.104 614.174L919.85 614.939L920.357 615.566L919.592 615.311L918.966 615.819Z" fill="white"/>
    <path d="M286.652 1254.23L286.907 1253.46L286.399 1252.84L287.164 1253.09L287.79 1252.58L287.536 1253.35L288.044 1253.97L287.279 1253.72L286.652 1254.23Z" fill="white"/>
    <path d="M215.419 1316.8L215.673 1316.03L215.166 1315.4L215.931 1315.66L216.557 1315.15L216.303 1315.92L216.81 1316.54L216.045 1316.29L215.419 1316.8Z" fill="white"/>
    <path d="M0.327107 556.561L0.581323 555.796L0.0738428 555.169L0.838843 555.424L1.46519 554.916L1.21098 555.681L1.71846 556.308L0.953457 556.053L0.327107 556.561Z" fill="white"/>
    <path d="M167.99 386.367L168.244 385.602L167.737 384.976L168.502 385.23L169.128 384.722L168.874 385.487L169.382 386.114L168.617 385.86L167.99 386.367Z" fill="white"/>
    <path d="M409.941 767.741L410.196 766.976L409.688 766.349L410.453 766.603L411.079 766.096L410.825 766.861L411.333 767.487L410.568 767.233L409.941 767.741Z" fill="white"/>
    <path d="M798.155 577.002L798.664 575.472L797.649 574.219L799.179 574.727L800.431 573.712L799.923 575.242L800.938 576.495L799.408 575.987L798.155 577.002Z" fill="white"/>
    <path d="M1081.2 677.158L1081.71 675.628L1080.69 674.375L1082.22 674.884L1083.47 673.869L1082.96 675.399L1083.98 676.651L1082.45 676.143L1081.2 677.158Z" fill="white"/>
    <path d="M578.113 1110.12L578.622 1108.59L577.607 1107.34L579.137 1107.84L580.389 1106.83L579.881 1108.36L580.896 1109.61L579.366 1109.1L578.113 1110.12Z" fill="white"/>
    <path d="M835.785 1171.52L836.294 1169.99L835.279 1168.74L836.809 1169.25L838.061 1168.23L837.553 1169.76L838.568 1171.01L837.038 1170.51L835.785 1171.52Z" fill="white"/>
    <path d="M1045.58 1112.2L1046.09 1110.67L1045.07 1109.42L1046.6 1109.93L1047.86 1108.91L1047.35 1110.44L1048.36 1111.69L1046.83 1111.18L1045.58 1112.2Z" fill="white"/>
    <path d="M447.262 1305.65L447.77 1304.12L446.755 1302.87L448.285 1303.37L449.538 1302.36L449.029 1303.89L450.044 1305.14L448.514 1304.63L447.262 1305.65Z" fill="white"/>
    <path d="M482.946 658.356L483.455 656.826L482.44 655.573L483.97 656.082L485.222 655.067L484.714 656.597L485.729 657.849L484.199 657.341L482.946 658.356Z" fill="white"/>
    <path d="M1163.37 500.882L1163.88 499.352L1162.87 498.1L1164.4 498.608L1165.65 497.593L1165.14 499.123L1166.16 500.376L1164.63 499.867L1163.37 500.882Z" fill="white"/>
    <path d="M1113.46 187.109L1113.97 185.579L1112.96 184.326L1114.49 184.835L1115.74 183.82L1115.23 185.35L1116.25 186.602L1114.72 186.094L1113.46 187.109Z" fill="white"/>
    <path d="M1316.77 520.861L1317.28 519.331L1316.26 518.078L1317.79 518.587L1319.05 517.572L1318.54 519.102L1319.55 520.354L1318.02 519.846L1316.77 520.861Z" fill="white"/>
    <path d="M1246.39 215.679L1246.9 214.149L1245.88 212.897L1247.41 213.405L1248.66 212.39L1248.15 213.92L1249.17 215.173L1247.64 214.664L1246.39 215.679Z" fill="white"/>
    <path d="M1424.41 733.24L1424.92 731.71L1423.9 730.457L1425.43 730.965L1426.68 729.95L1426.17 731.48L1427.19 732.733L1425.66 732.225L1424.41 733.24Z" fill="white"/>
</svg>    