<svg width="1400" height="1582" viewBox="0 0 1400 1582" fill="none" xmlns="http://www.w3.org/2000/svg">
    <path d="M756.824 2.12614L756.02 2.07858L755.546 2.73088L755.593 1.92615L754.941 1.45249L755.746 1.50005L756.22 0.847745L756.172 1.65248L756.824 2.12614Z" fill="white"/>
    <path d="M802.812 196.596L802.007 196.548L801.533 197.201L801.581 196.396L800.928 195.922L801.733 195.97L802.207 195.317L802.159 196.122L802.812 196.596Z" fill="white"/>
    <path d="M687.153 128.271L686.349 128.223L685.875 128.875L685.923 128.071L685.27 127.597L686.075 127.645L686.549 126.992L686.501 127.797L687.153 128.271Z" fill="white"/>
    <path d="M787.086 91.3595L786.281 91.312L785.808 91.9643L785.855 91.1595L785.203 90.6859L786.008 90.7334L786.481 90.0811L786.434 90.8859L787.086 91.3595Z" fill="white"/>
    <path d="M737.936 56.2277L737.131 56.1801L736.657 56.8324L736.705 56.0277L736.053 55.5541L736.857 55.6016L737.331 54.9493L737.283 55.754L737.936 56.2277Z" fill="white"/>
    <path d="M857.376 389.105L856.571 389.057L856.098 389.709L856.145 388.905L855.493 388.431L856.298 388.479L856.771 387.826L856.724 388.631L857.376 389.105Z" fill="white"/>
    <path d="M859.942 185.551L859.138 185.503L858.664 186.156L858.712 185.351L858.059 184.877L858.864 184.925L859.338 184.273L859.29 185.077L859.942 185.551Z" fill="white"/>
    <path d="M1021.71 581.745L1020.91 581.698L1020.43 582.35L1020.48 581.545L1019.83 581.072L1020.63 581.119L1021.11 580.467L1021.06 581.272L1021.71 581.745Z" fill="white"/>
    <path d="M763.685 462.827L762.88 462.78L762.406 463.432L762.454 462.627L761.802 462.154L762.606 462.201L763.08 461.549L763.032 462.354L763.685 462.827Z" fill="white"/>
    <path d="M735.601 256.185L734.796 256.137L734.322 256.789L734.37 255.985L733.718 255.511L734.522 255.559L734.996 254.906L734.948 255.711L735.601 256.185Z" fill="white"/>
    <path d="M597.367 326.756L596.563 326.708L596.089 327.361L596.136 326.556L595.484 326.082L596.289 326.13L596.763 325.478L596.715 326.282L597.367 326.756Z" fill="white"/>
    <path d="M908.491 837.64L907.687 837.592L907.213 838.245L907.26 837.44L906.608 836.966L907.413 837.014L907.887 836.361L907.839 837.166L908.491 837.64Z" fill="white"/>
    <path d="M1175.6 906.282L1174.79 906.235L1174.32 906.887L1174.37 906.082L1173.72 905.609L1174.52 905.656L1174.99 905.004L1174.95 905.809L1175.6 906.282Z" fill="white"/>
    <path d="M1160.68 1232.44L1159.87 1232.39L1159.4 1233.04L1159.45 1232.24L1158.79 1231.77L1159.6 1231.81L1160.07 1231.16L1160.03 1231.97L1160.68 1232.44Z" fill="white"/>
    <path d="M825.746 1280.32L824.941 1280.27L824.468 1280.93L824.515 1280.12L823.863 1279.65L824.668 1279.69L825.141 1279.04L825.094 1279.85L825.746 1280.32Z" fill="white"/>
    <path d="M717.041 1492.04L716.236 1491.99L715.763 1492.64L715.81 1491.84L715.158 1491.36L715.963 1491.41L716.436 1490.76L716.389 1491.56L717.041 1492.04Z" fill="white"/>
    <path d="M532.231 1241.94L531.426 1241.89L530.952 1242.54L531 1241.74L530.347 1241.26L531.152 1241.31L531.626 1240.66L531.578 1241.46L532.231 1241.94Z" fill="white"/>
    <path d="M387.139 914.631L386.334 914.583L385.86 915.236L385.908 914.431L385.256 913.957L386.06 914.005L386.534 913.353L386.486 914.157L387.139 914.631Z" fill="white"/>
    <path d="M803.362 877.551L802.558 877.503L802.084 878.156L802.132 877.351L801.479 876.877L802.284 876.925L802.758 876.273L802.71 877.077L803.362 877.551Z" fill="white"/>
    <path d="M735.778 602.492L734.974 602.445L734.5 603.097L734.548 602.292L733.895 601.819L734.7 601.866L735.174 601.214L735.126 602.019L735.778 602.492Z" fill="white"/>
    <path d="M303.921 610.492L303.116 610.445L302.643 611.097L302.69 610.292L302.038 609.819L302.843 609.866L303.316 609.214L303.269 610.019L303.921 610.492Z" fill="white"/>
    <path d="M281.149 343.049L280.344 343.001L279.87 343.654L279.918 342.849L279.265 342.375L280.07 342.423L280.544 341.771L280.496 342.575L281.149 343.049Z" fill="white"/>
    <path d="M583.159 172.147L582.355 172.099L581.881 172.751L581.928 171.947L581.276 171.473L582.081 171.521L582.555 170.868L582.507 171.673L583.159 172.147Z" fill="white"/>
    <path d="M715.58 467.507L714.775 467.459L714.302 468.112L714.349 467.307L713.697 466.833L714.502 466.881L714.975 466.229L714.928 467.033L715.58 467.507Z" fill="white"/>
    <path d="M996.482 960.043L995.677 959.996L995.203 960.648L995.251 959.843L994.598 959.369L995.403 959.417L995.877 958.765L995.829 959.569L996.482 960.043Z" fill="white"/>
    <path d="M738.466 983.147L737.661 983.099L737.188 983.751L737.235 982.947L736.583 982.473L737.388 982.521L737.861 981.868L737.814 982.673L738.466 983.147Z" fill="white"/>
    <path d="M565.444 929.465L564.64 929.417L564.166 930.07L564.214 929.265L563.561 928.791L564.366 928.839L564.84 928.187L564.792 928.991L565.444 929.465Z" fill="white"/>
    <path d="M714.2 631.116L713.396 631.069L712.922 631.721L712.969 630.916L712.317 630.443L713.122 630.49L713.596 629.838L713.548 630.643L714.2 631.116Z" fill="white"/>
    <path d="M979.45 728.544L978.646 728.497L978.172 729.149L978.219 728.344L977.567 727.87L978.372 727.918L978.846 727.266L978.798 728.07L979.45 728.544Z" fill="white"/>
    <path d="M210.947 427.457L210.143 427.41L209.669 428.062L209.717 427.257L209.064 426.784L209.869 426.831L210.343 426.179L210.295 426.984L210.947 427.457Z" fill="white"/>
    <path d="M460.487 255.673L459.683 255.625L459.209 256.278L459.257 255.473L458.604 254.999L459.409 255.047L459.883 254.395L459.835 255.199L460.487 255.673Z" fill="white"/>
    <path d="M745.514 727.353L744.709 727.305L744.235 727.957L744.283 727.153L743.631 726.679L744.435 726.727L744.909 726.074L744.861 726.879L745.514 727.353Z" fill="white"/>
    <path d="M487.952 1131.24L487.148 1131.2L486.674 1131.85L486.721 1131.04L486.069 1130.57L486.874 1130.62L487.347 1129.97L487.3 1130.77L487.952 1131.24Z" fill="white"/>
    <path d="M222.742 847.887L221.938 847.839L221.464 848.492L221.511 847.687L220.859 847.213L221.664 847.261L222.138 846.608L222.09 847.413L222.742 847.887Z" fill="white"/>
    <path d="M540.806 660.789L540.001 660.742L539.527 661.394L539.575 660.589L538.923 660.116L539.727 660.163L540.201 659.511L540.153 660.316L540.806 660.789Z" fill="white"/>
    <path d="M1321.12 1106.32L1320.31 1106.28L1319.84 1106.93L1319.88 1106.12L1319.23 1105.65L1320.04 1105.7L1320.51 1105.05L1320.46 1105.85L1321.12 1106.32Z" fill="white"/>
    <path d="M1399.99 1158.94L1399.18 1158.89L1398.71 1159.54L1398.76 1158.74L1398.11 1158.26L1398.91 1158.31L1399.38 1157.66L1399.34 1158.46L1399.99 1158.94Z" fill="white"/>
    <path d="M721.328 1563.46L720.523 1563.42L720.05 1564.07L720.097 1563.26L719.445 1562.79L720.25 1562.84L720.723 1562.18L720.676 1562.99L721.328 1563.46Z" fill="white"/>
    <path d="M513.539 1445.56L512.734 1445.51L512.261 1446.17L512.308 1445.36L511.656 1444.89L512.461 1444.94L512.934 1444.28L512.887 1445.09L513.539 1445.56Z" fill="white"/>
    <path d="M819.296 1113.15L818.491 1113.1L818.018 1113.75L818.065 1112.95L817.413 1112.47L818.218 1112.52L818.691 1111.87L818.644 1112.67L819.296 1113.15Z" fill="white"/>
    <path d="M534.579 787.53L532.97 787.435L532.022 788.739L532.118 787.13L530.813 786.182L532.422 786.277L533.37 784.973L533.275 786.582L534.579 787.53Z" fill="white"/>
    <path d="M558.066 488.209L556.456 488.114L555.509 489.419L555.604 487.809L554.299 486.862L555.909 486.957L556.856 485.653L556.761 487.262L558.066 488.209Z" fill="white"/>
    <path d="M1106.48 862.093L1104.87 861.998L1103.92 863.303L1104.02 861.693L1102.72 860.746L1104.32 860.841L1105.27 859.536L1105.18 861.146L1106.48 862.093Z" fill="white"/>
    <path d="M1099.1 597.309L1097.49 597.214L1096.54 598.518L1096.64 596.909L1095.33 595.962L1096.94 596.057L1097.89 594.752L1097.8 596.362L1099.1 597.309Z" fill="white"/>
    <path d="M987.502 410.015L985.893 409.92L984.945 411.224L985.04 409.615L983.736 408.668L985.345 408.763L986.293 407.458L986.198 409.068L987.502 410.015Z" fill="white"/>
    <path d="M1329.22 937.879L1327.61 937.784L1326.66 939.089L1326.75 937.479L1325.45 936.532L1327.06 936.627L1328.01 935.322L1327.91 936.932L1329.22 937.879Z" fill="white"/>
    <path d="M694.743 1070.94L693.134 1070.85L692.187 1072.15L692.282 1070.54L690.977 1069.59L692.587 1069.69L693.534 1068.38L693.439 1069.99L694.743 1070.94Z" fill="white"/>
    <path d="M366.528 454.456L364.919 454.361L363.972 455.666L364.067 454.056L362.762 453.109L364.372 453.204L365.319 451.9L365.224 453.509L366.528 454.456Z" fill="white"/>
    <path d="M76.3644 583.877L74.755 583.782L73.8077 585.087L73.9028 583.477L72.5982 582.53L74.2076 582.625L75.155 581.32L75.0598 582.93L76.3644 583.877Z" fill="white"/>
    <path d="M346.123 301.115L344.514 301.019L343.566 302.324L343.662 300.715L342.357 299.767L343.966 299.862L344.914 298.558L344.819 300.167L346.123 301.115Z" fill="white"/>
    <path d="M69.5578 448.088L67.9483 447.993L67.001 449.298L67.0961 447.688L65.7915 446.741L67.401 446.836L68.3483 445.531L68.2532 447.141L69.5578 448.088Z" fill="white"/>
    <path d="M523.407 142.179L521.798 142.084L520.851 143.389L520.946 141.779L519.641 140.832L521.251 140.927L522.198 139.622L522.103 141.232L523.407 142.179Z" fill="white"/>
    <path d="M1293.99 308.544L1293.45 307.941L1292.65 308.067L1293.26 307.532L1293.13 306.736L1293.67 307.339L1294.46 307.212L1293.86 307.748L1293.99 308.544Z" fill="white"/>
    <path d="M1188.99 478.572L1188.46 477.969L1187.66 478.096L1188.26 477.56L1188.14 476.764L1188.67 477.367L1189.47 477.241L1188.87 477.776L1188.99 478.572Z" fill="white"/>
    <path d="M1155.52 348.477L1154.99 347.875L1154.19 348.001L1154.79 347.466L1154.67 346.67L1155.2 347.272L1156 347.146L1155.4 347.681L1155.52 348.477Z" fill="white"/>
    <path d="M1252.29 393.04L1251.75 392.437L1250.95 392.564L1251.56 392.028L1251.43 391.232L1251.97 391.835L1252.76 391.708L1252.16 392.244L1252.29 393.04Z" fill="white"/>
    <path d="M1242.37 333.443L1241.84 332.841L1241.04 332.967L1241.64 332.431L1241.52 331.635L1242.05 332.238L1242.85 332.112L1242.25 332.647L1242.37 333.443Z" fill="white"/>
    <path d="M1091.45 653.28L1090.92 652.677L1090.12 652.804L1090.72 652.268L1090.6 651.472L1091.13 652.075L1091.93 651.949L1091.32 652.484L1091.45 653.28Z" fill="white"/>
    <path d="M1237.2 511.16L1236.67 510.557L1235.87 510.684L1236.47 510.148L1236.35 509.352L1236.88 509.955L1237.68 509.828L1237.07 510.364L1237.2 511.16Z" fill="white"/>
    <path d="M1071.44 905.701L1070.9 905.098L1070.11 905.225L1070.71 904.689L1070.58 903.893L1071.12 904.496L1071.91 904.369L1071.31 904.905L1071.44 905.701Z" fill="white"/>
    <path d="M973.072 639.16L972.536 638.557L971.74 638.684L972.343 638.148L972.216 637.352L972.752 637.955L973.548 637.828L972.945 638.364L973.072 639.16Z" fill="white"/>
    <path d="M1099.33 473.183L1098.8 472.581L1098 472.707L1098.6 472.172L1098.48 471.376L1099.01 471.978L1099.81 471.852L1099.21 472.387L1099.33 473.183Z" fill="white"/>
    <path d="M951.684 425.339L951.149 424.736L950.352 424.862L950.955 424.327L950.829 423.531L951.364 424.133L952.16 424.007L951.558 424.543L951.684 425.339Z" fill="white"/>
    <path d="M810.433 1006.59L809.898 1005.98L809.101 1006.11L809.704 1005.57L809.578 1004.78L810.113 1005.38L810.909 1005.25L810.307 1005.79L810.433 1006.59Z" fill="white"/>
    <path d="M950.768 1244L950.233 1243.39L949.436 1243.52L950.039 1242.99L949.913 1242.19L950.448 1242.79L951.244 1242.67L950.642 1243.2L950.768 1244Z" fill="white"/>
    <path d="M709.59 1464.07L709.055 1463.47L708.259 1463.6L708.861 1463.06L708.735 1462.27L709.27 1462.87L710.067 1462.74L709.464 1463.28L709.59 1464.07Z" fill="white"/>
    <path d="M438.901 1261.1L438.365 1260.5L437.569 1260.62L438.172 1260.09L438.045 1259.29L438.581 1259.89L439.377 1259.77L438.774 1260.3L438.901 1261.1Z" fill="white"/>
    <path d="M212.327 1333.94L211.792 1333.34L210.996 1333.46L211.599 1332.93L211.472 1332.13L212.008 1332.73L212.804 1332.61L212.201 1333.14L212.327 1333.94Z" fill="white"/>
    <path d="M258.495 1026.41L257.96 1025.81L257.164 1025.93L257.767 1025.4L257.64 1024.6L258.176 1025.2L258.972 1025.08L258.369 1025.61L258.495 1026.41Z" fill="white"/>
    <path d="M387.34 692.375L386.805 691.772L386.009 691.899L386.611 691.363L386.485 690.567L387.02 691.17L387.817 691.043L387.214 691.579L387.34 692.375Z" fill="white"/>
    <path d="M707.873 960.471L707.338 959.868L706.542 959.994L707.144 959.459L707.018 958.663L707.554 959.265L708.35 959.139L707.747 959.674L707.873 960.471Z" fill="white"/>
    <path d="M854.58 718.185L854.045 717.583L853.249 717.709L853.851 717.174L853.725 716.378L854.261 716.98L855.057 716.854L854.454 717.389L854.58 718.185Z" fill="white"/>
    <path d="M543.554 418.474L543.019 417.871L542.222 417.997L542.825 417.462L542.699 416.666L543.234 417.268L544.03 417.142L543.428 417.677L543.554 418.474Z" fill="white"/>
    <path d="M716.563 213.259L716.027 212.656L715.231 212.782L715.834 212.247L715.708 211.451L716.243 212.053L717.039 211.927L716.437 212.462L716.563 213.259Z" fill="white"/>
    <path d="M1050.96 305.967L1050.43 305.364L1049.63 305.49L1050.23 304.955L1050.11 304.159L1050.64 304.761L1051.44 304.635L1050.84 305.171L1050.96 305.967Z" fill="white"/>
    <path d="M935.746 608.454L935.211 607.851L934.415 607.978L935.018 607.442L934.891 606.646L935.427 607.249L936.223 607.122L935.62 607.658L935.746 608.454Z" fill="white"/>
    <path d="M786.099 1155.36L785.564 1154.75L784.767 1154.88L785.37 1154.35L785.244 1153.55L785.779 1154.15L786.575 1154.03L785.973 1154.56L786.099 1155.36Z" fill="white"/>
    <path d="M587.318 989.249L586.782 988.646L585.986 988.773L586.589 988.237L586.462 987.441L586.998 988.044L587.794 987.917L587.191 988.453L587.318 989.249Z" fill="white"/>
    <path d="M502.931 828.946L502.396 828.344L501.599 828.47L502.202 827.934L502.076 827.138L502.611 827.741L503.407 827.615L502.805 828.15L502.931 828.946Z" fill="white"/>
    <path d="M819.081 723.167L818.546 722.564L817.75 722.691L818.352 722.155L818.226 721.359L818.762 721.962L819.558 721.835L818.955 722.371L819.081 723.167Z" fill="white"/>
    <path d="M937.75 979.619L937.215 979.016L936.419 979.143L937.021 978.607L936.895 977.811L937.431 978.414L938.227 978.287L937.624 978.823L937.75 979.619Z" fill="white"/>
    <path d="M607.237 223.306L606.701 222.703L605.905 222.829L606.508 222.294L606.381 221.498L606.917 222.1L607.713 221.974L607.11 222.509L607.237 223.306Z" fill="white"/>
    <path d="M905.159 278.286L904.623 277.683L903.827 277.81L904.43 277.274L904.303 276.478L904.839 277.081L905.635 276.954L905.032 277.49L905.159 278.286Z" fill="white"/>
    <path d="M773.174 813.358L772.639 812.756L771.843 812.882L772.445 812.347L772.319 811.55L772.854 812.153L773.651 812.027L773.048 812.562L773.174 813.358Z" fill="white"/>
    <path d="M305.456 916.83L304.921 916.227L304.125 916.354L304.727 915.818L304.601 915.022L305.137 915.625L305.933 915.498L305.33 916.034L305.456 916.83Z" fill="white"/>
    <path d="M318.288 528.934L317.753 528.332L316.957 528.458L317.56 527.923L317.433 527.127L317.969 527.729L318.765 527.603L318.162 528.138L318.288 528.934Z" fill="white"/>
    <path d="M675.492 621.541L674.956 620.938L674.16 621.065L674.763 620.529L674.636 619.733L675.172 620.336L675.968 620.209L675.365 620.745L675.492 621.541Z" fill="white"/>
    <path d="M912.212 1488.34L911.677 1487.74L910.881 1487.87L911.483 1487.33L911.357 1486.54L911.892 1487.14L912.689 1487.01L912.086 1487.55L912.212 1488.34Z" fill="white"/>
    <path d="M930.782 1581.32L930.246 1580.72L929.45 1580.84L930.053 1580.31L929.926 1579.51L930.462 1580.11L931.258 1579.99L930.655 1580.52L930.782 1581.32Z" fill="white"/>
    <path d="M164.854 1387.48L164.318 1386.87L163.522 1387L164.125 1386.46L163.999 1385.67L164.534 1386.27L165.33 1386.14L164.728 1386.68L164.854 1387.48Z" fill="white"/>
    <path d="M101.293 1157.18L100.758 1156.58L99.9617 1156.7L100.564 1156.17L100.438 1155.37L100.973 1155.97L101.77 1155.85L101.167 1156.38L101.293 1157.18Z" fill="white"/>
    <path d="M552.548 1138.33L552.013 1137.73L551.217 1137.85L551.819 1137.32L551.693 1136.52L552.228 1137.12L553.025 1137L552.422 1137.53L552.548 1138.33Z" fill="white"/>
    <path d="M581.47 706.757L580.4 705.551L578.807 705.804L580.013 704.733L579.76 703.141L580.831 704.346L582.423 704.093L581.218 705.164L581.47 706.757Z" fill="white"/>
    <path d="M809.728 511.714L808.657 510.508L807.065 510.761L808.27 509.69L808.018 508.098L809.089 509.303L810.681 509.05L809.476 510.121L809.728 511.714Z" fill="white"/>
    <path d="M933.141 1163.88L932.07 1162.67L930.478 1162.92L931.683 1161.85L931.431 1160.26L932.502 1161.47L934.094 1161.21L932.889 1162.28L933.141 1163.88Z" fill="white"/>
    <path d="M1115.15 971.428L1114.08 970.222L1112.49 970.475L1113.7 969.404L1113.44 967.812L1114.51 969.017L1116.11 968.764L1114.9 969.835L1115.15 971.428Z" fill="white"/>
    <path d="M1168.68 760.079L1167.61 758.874L1166.01 759.126L1167.22 758.055L1166.97 756.463L1168.04 757.668L1169.63 757.416L1168.42 758.487L1168.68 760.079Z" fill="white"/>
    <path d="M1037.05 1374.96L1035.98 1373.76L1034.39 1374.01L1035.59 1372.94L1035.34 1371.35L1036.41 1372.55L1038 1372.3L1036.8 1373.37L1037.05 1374.96Z" fill="white"/>
    <path d="M494.32 1020.41L493.249 1019.21L491.657 1019.46L492.862 1018.39L492.61 1016.8L493.68 1018L495.273 1017.75L494.067 1018.82L494.32 1020.41Z" fill="white"/>
    <path d="M698.158 352.408L697.087 351.203L695.495 351.455L696.7 350.384L696.447 348.792L697.518 349.997L699.111 349.745L697.905 350.816L698.158 352.408Z" fill="white"/>
    <path d="M401.466 238.746L400.396 237.541L398.803 237.793L400.009 236.722L399.756 235.13L400.827 236.335L402.419 236.083L401.214 237.154L401.466 238.746Z" fill="white"/>
    <path d="M792.159 229.552L791.088 228.346L789.496 228.599L790.701 227.528L790.448 225.936L791.519 227.141L793.112 226.888L791.906 227.959L792.159 229.552Z" fill="white"/>
    <path d="M492.672 137.916L491.601 136.71L490.008 136.963L491.214 135.892L490.961 134.3L492.032 135.505L493.624 135.253L492.419 136.323L492.672 137.916Z" fill="white"/>
    <path d="M1029.9 242.526L1028.83 241.321L1027.24 241.573L1028.44 240.503L1028.19 238.91L1029.26 240.116L1030.85 239.863L1029.65 240.934L1029.9 242.526Z" fill="white"/>
</svg>    