<svg width="195" height="194" viewBox="0 0 195 194" fill="none" xmlns="http://www.w3.org/2000/svg">
<path d="M97.1668 123.19C100.606 123.19 104.012 122.513 107.189 121.196C110.367 119.88 113.254 117.951 115.686 115.519C118.118 113.087 120.047 110.2 121.363 107.023C122.679 103.845 123.357 100.439 123.357 97.0001C123.357 93.5607 122.679 90.1551 121.363 86.9776C120.047 83.8001 118.118 80.9129 115.686 78.4809C113.254 76.049 110.367 74.1198 107.189 72.8037C104.012 71.4875 100.606 70.8101 97.1668 70.8101C90.2208 70.8101 83.5593 73.5694 78.6477 78.4809C73.7361 83.3925 70.9768 90.054 70.9768 97.0001C70.9768 103.946 73.7361 110.608 78.6477 115.519C83.5593 120.431 90.2208 123.19 97.1668 123.19Z" stroke="white" stroke-width="19.4" stroke-linecap="round" stroke-linejoin="round"/>
<path d="M97.1667 44.6202V18.4302" stroke="white" stroke-width="19.4" stroke-linecap="round" stroke-linejoin="round"/>
<path d="M134.199 59.9682L146.543 47.624" stroke="white" stroke-width="19.4" stroke-linecap="round" stroke-linejoin="round"/>
<path d="M47.7894 146.376L60.1336 134.032" stroke="white" stroke-width="19.4" stroke-linecap="round" stroke-linejoin="round"/>
<path d="M134.199 134.032L146.543 146.376" stroke="white" stroke-width="19.4" stroke-linecap="round" stroke-linejoin="round"/>
<path d="M47.7894 47.624L60.1336 59.9682" stroke="white" stroke-width="19.4" stroke-linecap="round" stroke-linejoin="round"/>
<path d="M97.1667 175.57V149.38" stroke="white" stroke-width="19.4" stroke-linecap="round" stroke-linejoin="round"/>
<path d="M149.547 97H175.737" stroke="white" stroke-width="19.4" stroke-linecap="round" stroke-linejoin="round"/>
<path d="M18.5969 97H44.7869" stroke="white" stroke-width="19.4" stroke-linecap="round" stroke-linejoin="round"/>
</svg>
