<svg width="194" height="194" viewBox="0 0 194 194" fill="none" xmlns="http://www.w3.org/2000/svg">
<path d="M164.728 140.737C150.481 140.757 136.496 136.904 124.269 129.592C112.041 122.28 102.031 111.782 95.3067 99.2217C88.5826 86.6612 85.3979 72.5097 86.093 58.2796C86.788 44.0494 91.3367 30.2756 99.2528 18.4302C85.873 19.1742 72.9053 23.3258 61.5811 30.4907C50.2569 37.6556 40.9519 47.596 34.5496 59.3682C28.1473 71.1404 24.8601 84.3536 25.0003 97.7534C25.1404 111.153 28.7031 124.295 35.3502 135.93C41.9973 147.566 51.5081 157.31 62.9797 164.236C74.4513 171.163 87.5029 175.042 100.895 175.506C114.288 175.971 127.577 173.004 139.5 166.888C151.424 160.772 161.586 151.711 169.023 140.563C167.609 140.633 166.16 140.737 164.728 140.737Z" stroke="#A8A8A8" stroke-width="19.4" stroke-linecap="round" stroke-linejoin="round"/>
</svg>
