<svg width="194" height="194" viewBox="0 0 194 194" fill="none" xmlns="http://www.w3.org/2000/svg">
<path d="M158.11 18.4282H35.8902C31.2595 18.4282 26.8185 20.2678 23.5441 23.5421C20.2697 26.8165 18.4302 31.2575 18.4302 35.8882V123.188C18.4302 127.819 20.2697 132.26 23.5441 135.534C26.8185 138.809 31.2595 140.648 35.8902 140.648H158.11C162.741 140.648 167.182 138.809 170.456 135.534C173.731 132.26 175.57 127.819 175.57 123.188V35.8882C175.57 31.2575 173.731 26.8165 170.456 23.5421C167.182 20.2678 162.741 18.4282 158.11 18.4282Z" stroke="#A8A8A8" stroke-width="14" stroke-linecap="round" stroke-linejoin="round"/>
<path d="M114.6 140.649L132.06 175.569H61.9403L79.4003 140.649" stroke="#A8A8A8" stroke-width="14" stroke-linecap="round" stroke-linejoin="round"/>
</svg>
