<svg width="644" height="181" viewBox="0 0 644 181" fill="none" xmlns="http://www.w3.org/2000/svg">
<g clip-path="url(#clip0_1793_3939)">
<g filter="url(#filter0_f_1793_3939)">
<rect x="28.7383" y="61.0225" width="132.659" height="85.7716" rx="27.0247" transform="rotate(7.07043 28.7383 61.0225)" fill="#B849B6"/>
</g>
<g filter="url(#filter1_f_1793_3939)">
<rect width="115.762" height="66.0286" rx="27.0247" transform="matrix(0.992396 0.123089 0.123089 -0.992396 35.166 82.9473)" fill="#FDF9A1"/>
</g>
<path d="M74.3879 17.3401L87.8996 18.5078L102.58 20.6765L119.262 24.0128L132.274 27.3492C132.274 27.3492 159.46 59.271 159.46 63.7113C159.46 68.2154 158.631 76.5609 158.631 76.5609L25.3429 59.0449C25.3429 59.0449 27.0298 48.2929 29.1793 43.1971C29.9506 41.3685 74.3879 17.3401 74.3879 17.3401Z" fill="url(#paint0_linear_1793_3939)"/>
<circle cx="85.5692" cy="108.923" r="26.5243" fill="url(#paint1_linear_1793_3939)"/>
<path fill-rule="evenodd" clip-rule="evenodd" d="M159.489 63.7784L119.496 57.4727L131.656 27.1896L132.619 27.4529C148.796 31.8843 160.009 47.0452 159.489 63.7784ZM99.6116 19.9504C106.358 21.0141 112.951 22.4258 119.382 23.9955L106.746 55.4625L74.9488 50.449L87.8332 18.4372C91.7371 18.836 95.6677 19.3285 99.6116 19.9504ZM74.6918 17.3913C71.7328 17.2119 68.7989 17.0645 65.8964 16.9327C49.1413 16.1719 33.8079 27.1472 29.1539 43.2286L62.1957 48.4382L74.6918 17.3913ZM21.6224 76.696C22.7636 69.458 24.2847 62.3926 25.9667 55.5116L158.742 76.4461C158.225 83.5109 157.498 90.7015 156.357 97.9395C154.563 109.321 151.829 120.275 149.007 130.757C144.583 147.192 129.063 158.474 112.083 157.703C101.178 157.208 89.8287 156.492 78.3681 154.685C66.9074 152.878 55.8891 150.067 45.36 147.183C28.9665 142.692 17.671 127.182 18.5183 110.183C19.0586 99.3407 19.8279 88.0771 21.6224 76.696ZM67.5058 115.948C67.5637 111.604 67.7695 106.786 68.316 103.32C68.8625 99.8533 70.1497 95.2049 71.4312 91.0545C73.1238 85.5728 79.219 82.8345 84.2754 85.5449C92.9883 90.2153 100.815 96.2548 106.057 103.957C108.345 107.319 107.633 111.83 104.422 114.325C97.0638 120.04 87.7589 123.38 78.0318 125.142C72.3865 126.165 67.4295 121.684 67.5058 115.948Z" fill="url(#paint2_linear_1793_3939)"/>
<g filter="url(#filter2_f_1793_3939)">
<path d="M133.129 90.4628L156.351 66.8518C156.351 66.8518 163.349 69.9855 166.856 73.2935C171.965 78.113 175.71 89.0061 175.71 89.0061L152.465 110.727L133.129 90.4628Z" fill="url(#paint3_linear_1793_3939)"/>
</g>
<rect width="41.2002" height="18.4708" rx="9.23539" transform="matrix(-0.743617 0.668606 0.668606 0.743617 162.018 70.9272)" fill="url(#paint4_linear_1793_3939)"/>
<g filter="url(#filter3_d_1793_3939)">
<path d="M63.4717 171.938C60.0614 168.145 60.3716 162.306 64.1645 158.895L139.606 91.0644C140.352 90.3933 141.407 90.1704 142.346 90.5252C148.356 92.7963 151.452 95.6037 152.817 101.819C153.074 102.991 152.626 104.196 151.734 104.999L76.5141 172.631C72.7213 176.041 66.882 175.731 63.4717 171.938V171.938Z" fill="url(#paint5_linear_1793_3939)"/>
</g>
<g filter="url(#filter4_d_1793_3939)">
<path d="M45.0842 100.64C45.1425 100.494 45.4916 100.549 45.502 100.706C45.5652 101.661 45.7618 102.954 46.3369 103.745C46.9119 104.535 48.0816 105.12 48.9711 105.474C49.1174 105.532 49.0624 105.881 48.9052 105.892C47.9499 105.955 46.6571 106.151 45.8667 106.727C45.0764 107.302 44.4915 108.471 44.1374 109.361C44.0791 109.507 43.7301 109.452 43.7197 109.295C43.6564 108.34 43.4598 107.047 42.8848 106.256C42.3097 105.466 41.1401 104.881 40.2506 104.527C40.1042 104.469 40.1592 104.12 40.3164 104.109C41.2717 104.046 42.5646 103.85 43.3549 103.274C44.1453 102.699 44.7301 101.53 45.0842 100.64Z" fill="url(#paint6_linear_1793_3939)"/>
</g>
<g filter="url(#filter5_d_1793_3939)">
<path d="M57.4436 132.732C57.4732 132.657 57.6503 132.685 57.6556 132.765C57.6877 133.25 57.7875 133.906 58.0793 134.307C58.3711 134.708 58.9647 135.005 59.4161 135.184C59.4903 135.214 59.4624 135.391 59.3826 135.396C58.8978 135.429 58.2418 135.528 57.8407 135.82C57.4396 136.112 57.1429 136.705 56.9632 137.157C56.9336 137.231 56.7564 137.203 56.7512 137.123C56.7191 136.639 56.6193 135.983 56.3275 135.581C56.0357 135.18 55.4421 134.884 54.9907 134.704C54.9165 134.674 54.9444 134.497 55.0242 134.492C55.5089 134.46 56.165 134.36 56.5661 134.068C56.9671 133.776 57.2639 133.183 57.4436 132.732Z" fill="url(#paint7_linear_1793_3939)"/>
</g>
<g filter="url(#filter6_d_1793_3939)">
<path d="M32.1504 120.461C32.1678 120.417 32.272 120.434 32.2751 120.481C32.294 120.766 32.3527 121.152 32.5244 121.388C32.696 121.624 33.0452 121.798 33.3107 121.904C33.3544 121.921 33.3379 122.026 33.291 122.029C33.0059 122.048 32.6199 122.106 32.384 122.278C32.1481 122.45 31.9735 122.799 31.8678 123.064C31.8504 123.108 31.7462 123.091 31.7431 123.045C31.7242 122.759 31.6655 122.373 31.4939 122.138C31.3222 121.902 30.9731 121.727 30.7076 121.621C30.6639 121.604 30.6803 121.5 30.7272 121.497C31.0124 121.478 31.3983 121.419 31.6342 121.247C31.8701 121.076 32.0447 120.727 32.1504 120.461Z" fill="url(#paint8_linear_1793_3939)"/>
</g>
<g filter="url(#filter7_d_1793_3939)">
<path d="M65.611 68.9688C65.6388 68.8989 65.8056 68.9251 65.8105 69.0002C65.8407 69.4565 65.9346 70.074 66.2093 70.4514C66.4839 70.8289 67.0426 71.1082 67.4674 71.2774C67.5373 71.3052 67.511 71.4719 67.4359 71.4769C66.9797 71.5071 66.3622 71.601 65.9847 71.8756C65.6073 72.1503 65.3279 72.7089 65.1588 73.1338C65.131 73.2037 64.9642 73.1774 64.9593 73.1023C64.9291 72.646 64.8352 72.0286 64.5605 71.6511C64.2859 71.2736 63.7272 70.9943 63.3024 70.8252C63.2325 70.7973 63.2588 70.6306 63.3339 70.6256C63.7901 70.5954 64.4076 70.5015 64.7851 70.2269C65.1626 69.9522 65.4419 69.3936 65.611 68.9688Z" fill="url(#paint9_linear_1793_3939)"/>
</g>
<g filter="url(#filter8_d_1793_3939)">
<path d="M119.622 80.9781C119.666 80.8689 119.926 80.9099 119.934 81.0273C119.981 81.7402 120.128 82.705 120.557 83.2948C120.986 83.8846 121.859 84.321 122.523 84.5853C122.632 84.6288 122.591 84.8893 122.474 84.8971C121.761 84.9443 120.796 85.091 120.206 85.5201C119.616 85.9493 119.18 86.8221 118.916 87.4859C118.872 87.5952 118.612 87.5541 118.604 87.4368C118.557 86.7239 118.41 85.7591 117.981 85.1692C117.552 84.5794 116.679 84.143 116.015 83.8787C115.906 83.8352 115.947 83.5747 116.064 83.567C116.777 83.5198 117.742 83.3731 118.332 82.9439C118.921 82.5148 119.358 81.6419 119.622 80.9781Z" fill="url(#paint10_linear_1793_3939)"/>
</g>
<g filter="url(#filter9_d_1793_3939)">
<path d="M128.799 138.609C128.823 138.503 129.066 138.503 129.089 138.609C129.234 139.25 129.506 140.106 129.981 140.58C130.455 141.055 131.311 141.326 131.952 141.471C132.057 141.495 132.057 141.738 131.952 141.762C131.311 141.907 130.455 142.178 129.981 142.653C129.506 143.127 129.234 143.983 129.089 144.624C129.066 144.73 128.823 144.73 128.799 144.624C128.654 143.983 128.382 143.127 127.908 142.653C127.433 142.178 126.578 141.907 125.937 141.762C125.831 141.738 125.831 141.495 125.937 141.471C126.578 141.326 127.433 141.055 127.908 140.58C128.382 140.106 128.654 139.25 128.799 138.609Z" fill="url(#paint11_linear_1793_3939)"/>
</g>
<g filter="url(#filter10_d_1793_3939)">
<path d="M144.624 119.87C144.645 119.817 144.77 119.837 144.774 119.893C144.797 120.236 144.867 120.699 145.073 120.982C145.279 121.265 145.698 121.474 146.017 121.601C146.069 121.622 146.049 121.747 145.993 121.751C145.651 121.774 145.188 121.844 144.905 122.05C144.621 122.256 144.412 122.675 144.285 122.994C144.264 123.046 144.139 123.026 144.135 122.97C144.113 122.628 144.042 122.165 143.836 121.882C143.63 121.599 143.211 121.389 142.893 121.262C142.84 121.241 142.86 121.116 142.916 121.113C143.259 121.09 143.722 121.019 144.005 120.813C144.288 120.607 144.497 120.189 144.624 119.87Z" fill="url(#paint12_linear_1793_3939)"/>
</g>
<g filter="url(#filter11_d_1793_3939)">
<path d="M39.2081 76.9713C39.2516 76.862 39.5121 76.9031 39.5199 77.0204C39.5671 77.7333 39.7138 78.6981 40.1429 79.2879C40.5721 79.8778 41.4449 80.3142 42.1087 80.5785C42.218 80.622 42.1769 80.8824 42.0596 80.8902C41.3467 80.9374 40.3819 81.0841 39.7921 81.5133C39.2022 81.9424 38.7658 82.8153 38.5015 83.4791C38.458 83.5883 38.1976 83.5472 38.1898 83.4299C38.1426 82.717 37.9959 81.7522 37.5667 81.1624C37.1376 80.5726 36.2647 80.1362 35.6009 79.8719C35.4917 79.8284 35.5328 79.5679 35.6501 79.5601C36.363 79.5129 37.3278 79.3662 37.9176 78.9371C38.5074 78.5079 38.9438 77.6351 39.2081 76.9713Z" fill="url(#paint13_linear_1793_3939)"/>
</g>
<path d="M253.222 148.501C239.306 148.501 227.768 143.876 218.607 134.628C209.447 125.38 204.867 113.886 204.867 100.145C204.867 86.405 209.447 74.9107 218.607 65.6625C227.768 56.4142 239.306 51.79 253.222 51.79C261.766 51.79 269.649 53.8159 276.872 57.8675C284.094 61.9191 289.731 67.38 293.783 74.2501L270.794 87.462C269.297 84.4673 266.963 82.0892 263.792 80.3276C260.621 78.566 257.098 77.6852 253.222 77.6852C246.705 77.6852 241.42 79.7991 237.368 84.0269C233.317 88.2547 231.291 93.6275 231.291 100.145C231.291 106.663 233.317 112.036 237.368 116.264C241.42 120.492 246.705 122.605 253.222 122.605C257.186 122.605 260.709 121.725 263.792 119.963C266.963 118.201 269.297 115.779 270.794 112.697L293.783 125.908C289.731 132.867 284.094 138.372 276.872 142.423C269.649 146.475 261.766 148.501 253.222 148.501Z" fill="black"/>
<path d="M346.087 80.3276H370.529V146.387H346.087V140.441C341.859 145.638 335.958 148.236 328.383 148.236C319.487 148.236 312.221 144.933 306.584 138.327C300.947 131.722 298.128 123.398 298.128 113.357C298.128 103.316 300.947 94.9927 306.584 88.3868C312.221 81.7809 319.487 78.4779 328.383 78.4779C335.958 78.4779 341.859 81.0763 346.087 86.2729V80.3276ZM325.741 122.209C327.943 124.587 330.805 125.776 334.329 125.776C337.852 125.776 340.67 124.587 342.784 122.209C344.986 119.831 346.087 116.88 346.087 113.357C346.087 109.834 344.986 106.883 342.784 104.505C340.67 102.127 337.852 100.938 334.329 100.938C330.805 100.938 327.943 102.127 325.741 104.505C323.627 106.883 322.57 109.834 322.57 113.357C322.57 116.88 323.627 119.831 325.741 122.209Z" fill="black"/>
<path d="M423.303 78.4779C432.199 78.4779 439.465 81.7809 445.103 88.3868C450.74 94.9927 453.558 103.316 453.558 113.357C453.558 123.398 450.74 131.722 445.103 138.327C439.465 144.933 432.199 148.236 423.303 148.236C415.728 148.236 409.827 145.638 405.599 140.441V172.81H381.157V80.3276H405.599V86.2729C409.827 81.0763 415.728 78.4779 423.303 78.4779ZM408.77 122.209C410.972 124.587 413.835 125.776 417.358 125.776C420.881 125.776 423.699 124.587 425.813 122.209C428.015 119.831 429.116 116.88 429.116 113.357C429.116 109.834 428.015 106.883 425.813 104.505C423.699 102.127 420.881 100.938 417.358 100.938C413.835 100.938 410.972 102.127 408.77 104.505C406.656 106.883 405.599 109.834 405.599 113.357C405.599 116.88 406.656 119.831 408.77 122.209Z" fill="black"/>
<path d="M482.994 99.749C482.994 100.806 483.786 101.643 485.372 102.259C487.045 102.876 489.115 103.36 491.581 103.713C494.048 103.977 496.69 104.549 499.508 105.43C502.327 106.311 504.969 107.412 507.435 108.733C509.902 110.054 511.928 112.168 513.513 115.075C515.186 117.893 516.023 121.328 516.023 125.38C516.023 129.608 515.054 133.307 513.117 136.478C511.267 139.649 508.801 142.027 505.718 143.612C502.635 145.198 499.464 146.343 496.205 147.047C493.035 147.84 489.732 148.236 486.297 148.236C470.354 148.236 460.049 142.996 455.381 132.514L476.652 123.002C478.325 127.494 481.452 129.74 486.032 129.74C489.027 129.74 490.524 128.771 490.524 126.833C490.524 125.688 489.423 124.763 487.221 124.059C485.019 123.354 482.377 122.649 479.294 121.945C476.212 121.152 473.085 120.139 469.914 118.906C466.831 117.585 464.189 115.427 461.987 112.432C459.785 109.438 458.684 105.694 458.684 101.202C458.684 93.9798 461.414 88.3868 466.875 84.4232C472.424 80.4597 478.81 78.4779 486.032 78.4779C500.477 78.4779 510.034 84.0709 514.702 95.2569L494.488 102.523C492.902 98.8241 490.436 96.9745 487.089 96.9745C484.359 96.9745 482.994 97.8993 482.994 99.749Z" fill="black"/>
<path d="M578.168 146.387L574.998 134.496H548.31L545.139 146.387H516.733L546.196 53.9039H577.111L606.574 146.387H578.168ZM553.991 113.357H569.316L561.654 84.9517L553.991 113.357Z" fill="black"/>
<path d="M622.482 64.6085C622.482 64.6085 622.414 64.0784 622.482 64.1487C622.516 64.162 622.482 64.6085 622.482 64.6085ZM610.558 146.387V53.9039H635V146.387H610.558Z" fill="black"/>
</g>
<defs>
<filter id="filter0_f_1793_3939" x="-3.72406" y="39.1177" width="186.016" height="145.258" filterUnits="userSpaceOnUse" color-interpolation-filters="sRGB">
<feFlood flood-opacity="0" result="BackgroundImageFix"/>
<feBlend mode="normal" in="SourceGraphic" in2="BackgroundImageFix" result="shape"/>
<feGaussianBlur stdDeviation="12.5114" result="effect1_foregroundBlur_1793_3939"/>
</filter>
<filter id="filter1_f_1793_3939" x="6.68764" y="-11.0565" width="179.965" height="136.73" filterUnits="userSpaceOnUse" color-interpolation-filters="sRGB">
<feFlood flood-opacity="0" result="BackgroundImageFix"/>
<feBlend mode="normal" in="SourceGraphic" in2="BackgroundImageFix" result="shape"/>
<feGaussianBlur stdDeviation="15.7978" result="effect1_foregroundBlur_1793_3939"/>
</filter>
<filter id="filter2_f_1793_3939" x="120.217" y="53.9402" width="68.4057" height="69.6991" filterUnits="userSpaceOnUse" color-interpolation-filters="sRGB">
<feFlood flood-opacity="0" result="BackgroundImageFix"/>
<feBlend mode="normal" in="SourceGraphic" in2="BackgroundImageFix" result="shape"/>
<feGaussianBlur stdDeviation="6.45591" result="effect1_foregroundBlur_1793_3939"/>
</filter>
<filter id="filter3_d_1793_3939" x="59.3352" y="90.3579" width="95.3217" height="89.078" filterUnits="userSpaceOnUse" color-interpolation-filters="sRGB">
<feFlood flood-opacity="0" result="BackgroundImageFix"/>
<feColorMatrix in="SourceAlpha" type="matrix" values="0 0 0 0 0 0 0 0 0 0 0 0 0 0 0 0 0 0 127 0" result="hardAlpha"/>
<feOffset dy="2.66911"/>
<feGaussianBlur stdDeviation="0.884142"/>
<feComposite in2="hardAlpha" operator="out"/>
<feColorMatrix type="matrix" values="0 0 0 0 0 0 0 0 0 0 0 0 0 0 0 0 0 0 0.14 0"/>
<feBlend mode="normal" in2="BackgroundImageFix" result="effect1_dropShadow_1793_3939"/>
<feBlend mode="normal" in="SourceGraphic" in2="effect1_dropShadow_1793_3939" result="shape"/>
</filter>
<filter id="filter4_d_1793_3939" x="36.3073" y="96.9621" width="16.608" height="16.609" filterUnits="userSpaceOnUse" color-interpolation-filters="sRGB">
<feFlood flood-opacity="0" result="BackgroundImageFix"/>
<feColorMatrix in="SourceAlpha" type="matrix" values="0 0 0 0 0 0 0 0 0 0 0 0 0 0 0 0 0 0 127 0" result="hardAlpha"/>
<feOffset dy="0.266116"/>
<feGaussianBlur stdDeviation="1.92934"/>
<feComposite in2="hardAlpha" operator="out"/>
<feColorMatrix type="matrix" values="0 0 0 0 1 0 0 0 0 0.980392 0 0 0 0 0.713726 0 0 0 1 0"/>
<feBlend mode="normal" in2="BackgroundImageFix" result="effect1_dropShadow_1793_3939"/>
<feBlend mode="normal" in="SourceGraphic" in2="effect1_dropShadow_1793_3939" result="shape"/>
</filter>
<filter id="filter5_d_1793_3939" x="52.9891" y="130.865" width="8.428" height="8.42849" filterUnits="userSpaceOnUse" color-interpolation-filters="sRGB">
<feFlood flood-opacity="0" result="BackgroundImageFix"/>
<feColorMatrix in="SourceAlpha" type="matrix" values="0 0 0 0 0 0 0 0 0 0 0 0 0 0 0 0 0 0 127 0" result="hardAlpha"/>
<feOffset dy="0.135044"/>
<feGaussianBlur stdDeviation="0.97907"/>
<feComposite in2="hardAlpha" operator="out"/>
<feColorMatrix type="matrix" values="0 0 0 0 1 0 0 0 0 0.980392 0 0 0 0 0.713726 0 0 0 1 0"/>
<feBlend mode="normal" in2="BackgroundImageFix" result="effect1_dropShadow_1793_3939"/>
<feBlend mode="normal" in="SourceGraphic" in2="effect1_dropShadow_1793_3939" result="shape"/>
</filter>
<filter id="filter6_d_1793_3939" x="29.5298" y="119.363" width="4.95799" height="4.95799" filterUnits="userSpaceOnUse" color-interpolation-filters="sRGB">
<feFlood flood-opacity="0" result="BackgroundImageFix"/>
<feColorMatrix in="SourceAlpha" type="matrix" values="0 0 0 0 0 0 0 0 0 0 0 0 0 0 0 0 0 0 127 0" result="hardAlpha"/>
<feOffset dy="0.0794378"/>
<feGaussianBlur stdDeviation="0.575924"/>
<feComposite in2="hardAlpha" operator="out"/>
<feColorMatrix type="matrix" values="0 0 0 0 1 0 0 0 0 0.980392 0 0 0 0 0.713726 0 0 0 1 0"/>
<feBlend mode="normal" in2="BackgroundImageFix" result="effect1_dropShadow_1793_3939"/>
<feBlend mode="normal" in="SourceGraphic" in2="effect1_dropShadow_1793_3939" result="shape"/>
</filter>
<filter id="filter7_d_1793_3939" x="61.4188" y="67.2124" width="7.93201" height="7.93201" filterUnits="userSpaceOnUse" color-interpolation-filters="sRGB">
<feFlood flood-opacity="0" result="BackgroundImageFix"/>
<feColorMatrix in="SourceAlpha" type="matrix" values="0 0 0 0 0 0 0 0 0 0 0 0 0 0 0 0 0 0 127 0" result="hardAlpha"/>
<feOffset dy="0.1271"/>
<feGaussianBlur stdDeviation="0.921478"/>
<feComposite in2="hardAlpha" operator="out"/>
<feColorMatrix type="matrix" values="0 0 0 0 1 0 0 0 0 0.980392 0 0 0 0 0.713726 0 0 0 1 0"/>
<feBlend mode="normal" in2="BackgroundImageFix" result="effect1_dropShadow_1793_3939"/>
<feBlend mode="normal" in="SourceGraphic" in2="effect1_dropShadow_1793_3939" result="shape"/>
</filter>
<filter id="filter8_d_1793_3939" x="113.072" y="78.2335" width="12.394" height="12.3945" filterUnits="userSpaceOnUse" color-interpolation-filters="sRGB">
<feFlood flood-opacity="0" result="BackgroundImageFix"/>
<feColorMatrix in="SourceAlpha" type="matrix" values="0 0 0 0 0 0 0 0 0 0 0 0 0 0 0 0 0 0 127 0" result="hardAlpha"/>
<feOffset dy="0.198594"/>
<feGaussianBlur stdDeviation="1.43981"/>
<feComposite in2="hardAlpha" operator="out"/>
<feColorMatrix type="matrix" values="0 0 0 0 1 0 0 0 0 0.980392 0 0 0 0 0.713726 0 0 0 1 0"/>
<feBlend mode="normal" in2="BackgroundImageFix" result="effect1_dropShadow_1793_3939"/>
<feBlend mode="normal" in="SourceGraphic" in2="effect1_dropShadow_1793_3939" result="shape"/>
</filter>
<filter id="filter9_d_1793_3939" x="123.208" y="136.063" width="11.4723" height="11.4723" filterUnits="userSpaceOnUse" color-interpolation-filters="sRGB">
<feFlood flood-opacity="0" result="BackgroundImageFix"/>
<feColorMatrix in="SourceAlpha" type="matrix" values="0 0 0 0 0 0 0 0 0 0 0 0 0 0 0 0 0 0 127 0" result="hardAlpha"/>
<feOffset dy="0.182707"/>
<feGaussianBlur stdDeviation="1.32462"/>
<feComposite in2="hardAlpha" operator="out"/>
<feColorMatrix type="matrix" values="0 0 0 0 1 0 0 0 0 0.980392 0 0 0 0 0.713726 0 0 0 1 0"/>
<feBlend mode="normal" in2="BackgroundImageFix" result="effect1_dropShadow_1793_3939"/>
<feBlend mode="normal" in="SourceGraphic" in2="effect1_dropShadow_1793_3939" result="shape"/>
</filter>
<filter id="filter10_d_1793_3939" x="141.479" y="118.552" width="5.94998" height="5.94949" filterUnits="userSpaceOnUse" color-interpolation-filters="sRGB">
<feFlood flood-opacity="0" result="BackgroundImageFix"/>
<feColorMatrix in="SourceAlpha" type="matrix" values="0 0 0 0 0 0 0 0 0 0 0 0 0 0 0 0 0 0 127 0" result="hardAlpha"/>
<feOffset dy="0.0953253"/>
<feGaussianBlur stdDeviation="0.691108"/>
<feComposite in2="hardAlpha" operator="out"/>
<feColorMatrix type="matrix" values="0 0 0 0 1 0 0 0 0 0.980392 0 0 0 0 0.713726 0 0 0 1 0"/>
<feBlend mode="normal" in2="BackgroundImageFix" result="effect1_dropShadow_1793_3939"/>
<feBlend mode="normal" in="SourceGraphic" in2="effect1_dropShadow_1793_3939" result="shape"/>
</filter>
<filter id="filter11_d_1793_3939" x="32.6575" y="74.2267" width="12.394" height="12.3945" filterUnits="userSpaceOnUse" color-interpolation-filters="sRGB">
<feFlood flood-opacity="0" result="BackgroundImageFix"/>
<feColorMatrix in="SourceAlpha" type="matrix" values="0 0 0 0 0 0 0 0 0 0 0 0 0 0 0 0 0 0 127 0" result="hardAlpha"/>
<feOffset dy="0.198594"/>
<feGaussianBlur stdDeviation="1.43981"/>
<feComposite in2="hardAlpha" operator="out"/>
<feColorMatrix type="matrix" values="0 0 0 0 1 0 0 0 0 0.980392 0 0 0 0 0.713726 0 0 0 1 0"/>
<feBlend mode="normal" in2="BackgroundImageFix" result="effect1_dropShadow_1793_3939"/>
<feBlend mode="normal" in="SourceGraphic" in2="effect1_dropShadow_1793_3939" result="shape"/>
</filter>
<linearGradient id="paint0_linear_1793_3939" x1="79.5907" y1="44.416" x2="76.817" y2="64.4784" gradientUnits="userSpaceOnUse">
<stop stop-color="#FFFDEC"/>
<stop offset="1" stop-color="#FFF458"/>
</linearGradient>
<linearGradient id="paint1_linear_1793_3939" x1="79.7305" y1="88.9044" x2="85.5692" y2="135.447" gradientUnits="userSpaceOnUse">
<stop stop-color="#FFFDEC"/>
<stop offset="1" stop-color="#FFF458"/>
</linearGradient>
<linearGradient id="paint2_linear_1793_3939" x1="132.709" y1="22.2518" x2="34.5223" y2="155.796" gradientUnits="userSpaceOnUse">
<stop stop-color="#FFDD00"/>
<stop offset="0.0935308" stop-color="#FFCC0C"/>
<stop offset="0.189343" stop-color="#FFA82E"/>
<stop offset="0.434197" stop-color="#FF7F5B"/>
<stop offset="0.750022" stop-color="#8320F7"/>
<stop offset="1" stop-color="#250944"/>
</linearGradient>
<linearGradient id="paint3_linear_1793_3939" x1="147.051" y1="76.2531" x2="156.542" y2="104.339" gradientUnits="userSpaceOnUse">
<stop stop-color="white"/>
<stop offset="1" stop-color="#87FDFF"/>
</linearGradient>
<linearGradient id="paint4_linear_1793_3939" x1="28.262" y1="-0.356577" x2="28.2416" y2="19.0096" gradientUnits="userSpaceOnUse">
<stop stop-color="#DAFDFF"/>
<stop offset="0.17" stop-color="#54F9FF"/>
<stop offset="0.345" stop-color="#2BCCF9"/>
<stop offset="0.5" stop-color="#0A9DF3"/>
<stop offset="0.726864" stop-color="#46B0F5"/>
<stop offset="0.875672" stop-color="#6FBFF7"/>
<stop offset="1" stop-color="#D9EAFD"/>
</linearGradient>
<linearGradient id="paint5_linear_1793_3939" x1="124.63" y1="102.637" x2="138.673" y2="117.74" gradientUnits="userSpaceOnUse">
<stop stop-color="#EAFAF7"/>
<stop offset="0.17" stop-color="#8CE1F8"/>
<stop offset="0.345" stop-color="#1BC4F3"/>
<stop offset="0.5" stop-color="#0961E6"/>
<stop offset="0.77" stop-color="#113EE0"/>
<stop offset="0.875672" stop-color="#175CE7"/>
<stop offset="1" stop-color="#40B6EF"/>
</linearGradient>
<linearGradient id="paint6_linear_1793_3939" x1="45.3349" y1="100.125" x2="43.7404" y2="110.521" gradientUnits="userSpaceOnUse">
<stop stop-color="#FFFFDE"/>
<stop offset="0.462436" stop-color="#FFFC0E"/>
<stop offset="1" stop-color="#FFDA06"/>
</linearGradient>
<linearGradient id="paint7_linear_1793_3939" x1="57.5708" y1="132.47" x2="56.7617" y2="137.745" gradientUnits="userSpaceOnUse">
<stop stop-color="#FFFFDE"/>
<stop offset="0.462436" stop-color="#FFFC0E"/>
<stop offset="1" stop-color="#FFDA06"/>
</linearGradient>
<linearGradient id="paint8_linear_1793_3939" x1="32.2253" y1="120.307" x2="31.7493" y2="123.41" gradientUnits="userSpaceOnUse">
<stop stop-color="#FFFFDE"/>
<stop offset="0.462436" stop-color="#FFFC0E"/>
<stop offset="1" stop-color="#FFDA06"/>
</linearGradient>
<linearGradient id="paint9_linear_1793_3939" x1="65.7307" y1="68.7229" x2="64.9692" y2="73.6878" gradientUnits="userSpaceOnUse">
<stop stop-color="#FFFFDE"/>
<stop offset="0.462436" stop-color="#FFFC0E"/>
<stop offset="1" stop-color="#FFDA06"/>
</linearGradient>
<linearGradient id="paint10_linear_1793_3939" x1="119.809" y1="80.5939" x2="118.619" y2="88.3516" gradientUnits="userSpaceOnUse">
<stop stop-color="#FFFFDE"/>
<stop offset="0.462436" stop-color="#FFFC0E"/>
<stop offset="1" stop-color="#FFDA06"/>
</linearGradient>
<linearGradient id="paint11_linear_1793_3939" x1="128.914" y1="138.233" x2="128.944" y2="145.453" gradientUnits="userSpaceOnUse">
<stop stop-color="#FFFFDE"/>
<stop offset="0.462436" stop-color="#FFFC0E"/>
<stop offset="1" stop-color="#FFDA06"/>
</linearGradient>
<linearGradient id="paint12_linear_1793_3939" x1="144.714" y1="119.685" x2="144.143" y2="123.409" gradientUnits="userSpaceOnUse">
<stop stop-color="#FFFFDE"/>
<stop offset="0.462436" stop-color="#FFFC0E"/>
<stop offset="1" stop-color="#FFDA06"/>
</linearGradient>
<linearGradient id="paint13_linear_1793_3939" x1="39.3952" y1="76.587" x2="38.2053" y2="84.3448" gradientUnits="userSpaceOnUse">
<stop stop-color="#FFFFDE"/>
<stop offset="0.462436" stop-color="#FFFC0E"/>
<stop offset="1" stop-color="#FFDA06"/>
</linearGradient>
<clipPath id="clip0_1793_3939">
<rect width="644" height="181" fill="white"/>
</clipPath>
</defs>
</svg>
