<svg width="143" height="44" viewBox="0 0 143 44" fill="none" xmlns="http://www.w3.org/2000/svg">
    <g filter="url(#filter0_f_545_1766)">
    <rect x="6.6543" y="20.1992" width="25.4087" height="16.0009" rx="5.04153" transform="rotate(7.07043 6.6543 20.1992)" fill="#B849B6"/>
    </g>
    <g filter="url(#filter1_f_545_1766)">
    <rect width="21.5956" height="12.3178" rx="5.04153" transform="matrix(0.992396 0.123089 0.123089 -0.992396 8.50928 24.3707)" fill="#FDF9A1"/>
    </g>
    <path d="M15.8269 12.1319L18.3475 12.3497L21.0861 12.7543L24.1982 13.3767L26.6256 13.9991C26.6256 13.9991 31.6972 19.9542 31.6972 20.7826C31.6972 21.6228 31.5426 23.1797 31.5426 23.1797L6.67742 19.912C6.67742 19.912 6.9921 17.9062 7.3931 16.9556C7.53699 16.6145 15.8269 12.1319 15.8269 12.1319Z" fill="url(#paint0_linear_545_1766)"/>
    <circle cx="17.912" cy="29.2168" r="4.94816" fill="url(#paint1_linear_545_1766)"/>
    <path fill-rule="evenodd" clip-rule="evenodd" d="M31.7007 20.7949L24.24 19.6186L26.5085 13.9692L26.6881 14.0183C29.7058 14.845 31.7977 17.6733 31.7007 20.7949ZM20.5304 12.6187C21.789 12.8172 23.019 13.0805 24.2186 13.3734L21.8614 19.2436L15.9295 18.3083L18.3332 12.3364C19.0614 12.4108 19.7947 12.5027 20.5304 12.6187ZM15.8816 12.1413C15.3296 12.1079 14.7823 12.0804 14.2408 12.0558C11.1151 11.9138 8.25461 13.9613 7.38639 16.9613L13.5504 17.9332L15.8816 12.1413ZM5.98138 23.2048C6.19428 21.8545 6.47804 20.5364 6.79183 19.2528L31.5613 23.1581C31.4649 24.4761 31.3294 25.8175 31.1165 27.1678C30.7817 29.291 30.2718 31.3344 29.7454 33.2899C28.92 36.3559 26.0247 38.4607 22.857 38.3167C20.8226 38.2244 18.7054 38.0909 16.5674 37.7538C14.4294 37.4167 12.3739 36.8923 10.4097 36.3542C7.35144 35.5165 5.24424 32.623 5.40229 29.4517C5.5031 27.4292 5.64662 25.3279 5.98138 23.2048ZM14.541 30.5272C14.5518 29.717 14.5902 28.8181 14.6922 28.1714C14.7941 27.5248 15.0343 26.6576 15.2733 25.8834C15.5891 24.8607 16.7262 24.3499 17.6694 24.8555C19.2949 25.7268 20.7549 26.8535 21.7328 28.2904C22.1597 28.9176 22.0269 29.7591 21.4279 30.2245C20.0551 31.2907 18.3193 31.9137 16.5047 32.2426C15.4515 32.4333 14.5268 31.5974 14.541 30.5272Z" fill="url(#paint2_linear_545_1766)"/>
    <g filter="url(#filter2_f_545_1766)">
    <path d="M26.7841 25.7725L31.1161 21.3678C31.1161 21.3678 32.4217 21.9524 33.0759 22.5695C34.0291 23.4686 34.7276 25.5008 34.7276 25.5008L30.3912 29.5529L26.7841 25.7725Z" fill="url(#paint3_linear_545_1766)"/>
    </g>
    <rect width="7.68599" height="3.44577" rx="1.72288" transform="matrix(-0.743617 0.668606 0.668606 0.743617 32.1729 22.1285)" fill="url(#paint4_linear_545_1766)"/>
    <g filter="url(#filter3_d_545_1766)">
    <path d="M13.7911 40.9727C13.1549 40.2651 13.2128 39.1758 13.9203 38.5396L27.994 25.8856C28.1333 25.7604 28.3301 25.7188 28.5053 25.785C29.6265 26.2086 30.204 26.7324 30.4586 27.8919C30.5066 28.1106 30.4231 28.3353 30.2566 28.485L16.2242 41.1019C15.5166 41.7381 14.4273 41.6803 13.7911 40.9727Z" fill="url(#paint5_linear_545_1766)"/>
    </g>
    <g filter="url(#filter4_d_545_1766)">
    <path d="M10.3591 27.6714C10.37 27.6441 10.4351 27.6543 10.437 27.6837C10.4488 27.8619 10.4855 28.1031 10.5928 28.2505C10.7 28.3979 10.9182 28.507 11.0842 28.5731C11.1115 28.584 11.1012 28.6491 11.0719 28.651C10.8937 28.6628 10.6525 28.6995 10.5051 28.8068C10.3576 28.9141 10.2485 29.1323 10.1824 29.2982C10.1716 29.3255 10.1065 29.3152 10.1045 29.2859C10.0927 29.1077 10.056 28.8665 9.94877 28.7191C9.84149 28.5716 9.62329 28.4625 9.45735 28.3965C9.43005 28.3856 9.44031 28.3205 9.46964 28.3185C9.64785 28.3067 9.88904 28.2701 10.0365 28.1628C10.1839 28.0555 10.293 27.8373 10.3591 27.6714Z" fill="url(#paint6_linear_545_1766)"/>
    </g>
    <g filter="url(#filter5_d_545_1766)">
    <path d="M12.6652 33.658C12.6707 33.6442 12.7038 33.6494 12.7047 33.6643C12.7107 33.7547 12.7293 33.8771 12.7838 33.9519C12.8382 34.0267 12.9489 34.0821 13.0331 34.1156C13.047 34.1211 13.0418 34.1542 13.0269 34.1552C12.9365 34.1612 12.8141 34.1798 12.7393 34.2342C12.6644 34.2887 12.6091 34.3994 12.5756 34.4836C12.57 34.4974 12.537 34.4922 12.536 34.4774C12.53 34.3869 12.5114 34.2645 12.457 34.1897C12.4025 34.1149 12.2918 34.0595 12.2076 34.026C12.1937 34.0205 12.1989 33.9874 12.2138 33.9864C12.3043 33.9805 12.4267 33.9618 12.5015 33.9074C12.5763 33.853 12.6317 33.7422 12.6652 33.658Z" fill="url(#paint7_linear_545_1766)"/>
    </g>
    <g filter="url(#filter6_d_545_1766)">
    <path d="M7.94741 31.3697C7.95066 31.3615 7.97009 31.3646 7.97067 31.3733C7.9742 31.4265 7.98514 31.4985 8.01717 31.5425C8.04919 31.5865 8.11433 31.6191 8.16386 31.6388C8.17201 31.6421 8.16894 31.6615 8.16019 31.6621C8.10699 31.6656 8.035 31.6766 7.99099 31.7086C7.94697 31.7406 7.91441 31.8057 7.89469 31.8553C7.89144 31.8634 7.872 31.8604 7.87142 31.8516C7.8679 31.7984 7.85695 31.7264 7.82493 31.6824C7.79291 31.6384 7.72777 31.6058 7.67824 31.5861C7.67009 31.5829 7.67315 31.5634 7.68191 31.5628C7.7351 31.5593 7.8071 31.5484 7.85111 31.5163C7.89512 31.4843 7.92769 31.4192 7.94741 31.3697Z" fill="url(#paint8_linear_545_1766)"/>
    </g>
    <g filter="url(#filter7_d_545_1766)">
    <path d="M14.1874 21.7631C14.1926 21.75 14.2237 21.7549 14.2247 21.7689C14.2303 21.854 14.2478 21.9692 14.299 22.0397C14.3503 22.1101 14.4545 22.1622 14.5338 22.1937C14.5468 22.1989 14.5419 22.23 14.5279 22.231C14.4428 22.2366 14.3276 22.2541 14.2572 22.3053C14.1867 22.3566 14.1346 22.4608 14.1031 22.5401C14.0979 22.5531 14.0668 22.5482 14.0659 22.5342C14.0602 22.4491 14.0427 22.3339 13.9915 22.2635C13.9402 22.193 13.836 22.1409 13.7568 22.1094C13.7437 22.1042 13.7486 22.0731 13.7626 22.0722C13.8477 22.0665 13.9629 22.049 14.0334 21.9978C14.1038 21.9465 14.1559 21.8423 14.1874 21.7631Z" fill="url(#paint9_linear_545_1766)"/>
    </g>
    <g filter="url(#filter8_d_545_1766)">
    <path d="M24.2631 24.0032C24.2712 23.9829 24.3198 23.9905 24.3212 24.0124C24.33 24.1454 24.3574 24.3254 24.4374 24.4354C24.5175 24.5455 24.6803 24.6269 24.8042 24.6762C24.8246 24.6843 24.8169 24.7329 24.795 24.7343C24.662 24.7431 24.482 24.7705 24.372 24.8506C24.262 24.9306 24.1805 25.0935 24.1312 25.2173C24.1231 25.2377 24.0745 25.23 24.0731 25.2081C24.0643 25.0751 24.0369 24.8951 23.9569 24.7851C23.8768 24.6751 23.714 24.5937 23.5901 24.5444C23.5698 24.5363 23.5774 24.4877 23.5993 24.4862C23.7323 24.4774 23.9123 24.45 24.0223 24.37C24.1323 24.2899 24.2138 24.1271 24.2631 24.0032Z" fill="url(#paint10_linear_545_1766)"/>
    </g>
    <g filter="url(#filter9_d_545_1766)">
    <path d="M25.9753 34.7544C25.9798 34.7347 26.025 34.7347 26.0295 34.7544C26.0565 34.874 26.1072 35.0337 26.1957 35.1222C26.2842 35.2107 26.4439 35.2614 26.5635 35.2884C26.5832 35.2929 26.5832 35.3381 26.5635 35.3426C26.4439 35.3696 26.2842 35.4203 26.1957 35.5088C26.1072 35.5973 26.0565 35.757 26.0295 35.8766C26.025 35.8963 25.9798 35.8963 25.9753 35.8766C25.9483 35.757 25.8976 35.5973 25.8091 35.5088C25.7205 35.4203 25.5609 35.3696 25.4413 35.3426C25.4216 35.3381 25.4216 35.2929 25.4413 35.2884C25.5609 35.2614 25.7205 35.2107 25.8091 35.1222C25.8976 35.0337 25.9483 34.874 25.9753 34.7544Z" fill="url(#paint11_linear_545_1766)"/>
    </g>
    <g filter="url(#filter10_d_545_1766)">
    <path d="M28.9278 31.2586C28.9317 31.2488 28.955 31.2525 28.9557 31.263C28.96 31.3268 28.9731 31.4132 29.0115 31.4661C29.0499 31.5189 29.1281 31.5579 29.1875 31.5816C29.1973 31.5855 29.1937 31.6088 29.1831 31.6095C29.1193 31.6138 29.0329 31.6269 28.9801 31.6653C28.9273 31.7037 28.8882 31.7819 28.8645 31.8413C28.8606 31.8511 28.8373 31.8475 28.8366 31.8369C28.8324 31.7731 28.8193 31.6867 28.7808 31.6339C28.7424 31.5811 28.6642 31.542 28.6048 31.5183C28.595 31.5144 28.5987 31.4911 28.6092 31.4904C28.673 31.4862 28.7594 31.4731 28.8123 31.4346C28.8651 31.3962 28.9041 31.318 28.9278 31.2586Z" fill="url(#paint12_linear_545_1766)"/>
    </g>
    <g filter="url(#filter11_d_545_1766)">
    <path d="M9.26306 23.2563C9.27117 23.2359 9.31977 23.2436 9.32122 23.2655C9.33002 23.3985 9.35739 23.5785 9.43745 23.6885C9.51751 23.7985 9.68034 23.8799 9.80418 23.9292C9.82455 23.9373 9.81689 23.9859 9.79501 23.9874C9.66201 23.9962 9.48203 24.0236 9.372 24.1036C9.26196 24.1837 9.18055 24.3465 9.13124 24.4703C9.12313 24.4907 9.07454 24.4831 9.07309 24.4612C9.06428 24.3282 9.03691 24.1482 8.95686 24.0382C8.8768 23.9281 8.71396 23.8467 8.59013 23.7974C8.56975 23.7893 8.57741 23.7407 8.5993 23.7393C8.73229 23.7305 8.91228 23.7031 9.02231 23.623C9.13234 23.543 9.21376 23.3801 9.26306 23.2563Z" fill="url(#paint13_linear_545_1766)"/>
    </g>
    <path d="M49.8396 35.7388C44.2731 35.7388 41 32.4897 41 27.4965C41 22.5033 44.2731 19.2542 49.8396 19.2542C55.2151 19.2542 58.4404 21.8105 58.4404 26.087V26.493H53.4233V26.087C53.4233 24.2713 52.5632 23.5546 49.9113 23.5546C46.6621 23.5546 45.7782 24.319 45.7782 27.4965C45.7782 30.674 46.6621 31.4386 49.9113 31.4386C52.5632 31.4386 53.4233 30.7218 53.4233 28.906V28.5H58.4404V28.906C58.4404 33.1826 55.2151 35.7388 49.8396 35.7388ZM63.5179 35.7388C60.7943 35.7388 59.2653 34.4965 59.2653 32.4419C59.2653 30.7456 60.436 29.5273 63.1595 29.2645L68.0572 28.7866V28.5478C68.0572 27.3293 67.5316 27.1382 65.9309 27.1382C64.4497 27.1382 63.9957 27.4249 63.9957 28.4283V28.5238H59.5042V28.4761C59.5042 25.2747 62.18 23.2201 66.2654 23.2201C70.4702 23.2201 72.5009 25.2746 72.5009 28.6432V35.5H68.2961V32.9676H68.0572C67.6032 34.6638 66.122 35.7388 63.5179 35.7388ZM63.7807 32.1553C63.7807 32.5375 64.163 32.6091 64.8558 32.6091C67.0299 32.6091 67.9138 32.3463 68.0333 31.2712L64.3541 31.7014C63.9479 31.7491 63.7807 31.8925 63.7807 32.1553ZM78.3237 39.5614H73.8322V23.459H78.037V26.7082H78.2759C78.6582 24.3191 80.0916 23.2201 82.9108 23.2201C86.59 23.2201 88.6207 25.5852 88.6207 29.4795C88.6207 33.3976 86.6377 35.7388 83.1019 35.7388C80.2589 35.7388 78.921 34.4009 78.5626 32.3941H78.3237V39.5614ZM78.3237 29.6228C78.3237 31.3191 79.2793 31.6536 81.2862 31.6536C83.3647 31.6536 84.0814 31.0802 84.0814 29.4795C84.0814 27.8787 83.3647 27.3293 81.2862 27.3293C79.2793 27.3293 78.3237 27.7116 78.3237 29.4556V29.6228ZM96.2883 35.7388C92.0358 35.7388 89.7661 34.0904 89.7661 31.319V31.2234H94.2576V31.4624C94.2576 32.1314 94.6877 32.2031 96.3122 32.2031C97.8651 32.2031 98.104 32.0358 98.104 31.6297C98.104 31.2473 97.9129 31.1519 96.79 31.0324L93.302 30.6502C90.8173 30.3874 89.4794 29.2167 89.4794 27.186C89.4794 25.0597 91.1757 23.2201 95.6911 23.2201C99.872 23.2201 102.094 24.7252 102.094 27.6877V27.7831H97.6023V27.6399C97.6023 27.0187 97.3634 26.732 95.5477 26.732C94.0904 26.732 93.8993 26.9232 93.8993 27.3771C93.8993 27.7116 94.0904 27.8787 95.4999 28.0222L97.889 28.285C101.401 28.6672 102.524 29.8379 102.524 31.8686C102.524 34.1143 100.278 35.7388 96.2883 35.7388Z" fill="white"/>
    <path d="M107.688 35.5001H102.647L109.552 19.4932H115.979L122.907 35.5001H117.746L116.528 32.5376H108.931L107.688 35.5001ZM111.559 26.2543L110.627 28.5001H114.88L113.948 26.2543L112.897 23.5547H112.586L111.559 26.2543ZM127.879 35.5001H123.388V19.4932H127.879V35.5001Z" fill="url(#paint14_linear_545_1766)"/>
    <path fill-rule="evenodd" clip-rule="evenodd" d="M138.982 14.4374C138.985 14.4367 138.989 14.436 138.992 14.4353C139.149 14.4024 139.284 14.3147 139.379 14.194C139.473 14.0736 139.522 13.9261 139.522 13.7764C139.522 13.627 139.473 13.4791 139.378 13.3583C139.284 13.2379 139.149 13.1504 138.992 13.1176C138.989 13.1169 138.986 13.1163 138.983 13.1158C138.422 13.0087 137.707 12.8407 137.011 12.5908C136.31 12.3392 135.661 12.0166 135.202 11.6165C133.906 10.4453 133.389 8.53218 133.179 7.21652C133.176 7.1986 133.172 7.18086 133.167 7.16335C133.13 7.02528 133.049 6.90066 132.934 6.81C132.818 6.71881 132.674 6.66675 132.522 6.66675C132.371 6.66675 132.227 6.71829 132.111 6.81005C131.995 6.90114 131.915 7.02599 131.878 7.16335C131.873 7.18086 131.869 7.1986 131.866 7.21652C131.656 8.53523 131.138 10.4605 129.842 11.6174C129.388 12.0228 128.742 12.3488 128.04 12.6005C127.344 12.8499 126.629 13.0144 126.068 13.1147C126.063 13.1156 126.058 13.1165 126.053 13.1176C125.897 13.1504 125.761 13.2377 125.666 13.3583C125.572 13.4795 125.522 13.6278 125.522 13.7764C125.522 13.9255 125.571 14.0732 125.666 14.194C125.761 14.3149 125.896 14.4024 126.053 14.4353C126.056 14.436 126.06 14.4367 126.063 14.4374C126.624 14.5427 127.339 14.7098 128.035 14.9596C128.737 15.2113 129.385 15.5346 129.842 15.936C131.148 17.1126 131.659 18.9093 131.871 20.1143C131.871 20.1169 131.872 20.1195 131.872 20.1222C131.9 20.2694 131.977 20.4061 132.095 20.5069C132.213 20.6088 132.366 20.6667 132.526 20.6667C132.686 20.6667 132.838 20.6087 132.956 20.5069C133.074 20.4061 133.151 20.2694 133.179 20.1222L133.18 20.1188L133.181 20.1124C133.389 18.8992 133.903 17.103 135.205 15.9364C135.662 15.5348 136.31 15.2113 137.011 14.9596C137.707 14.7098 138.421 14.5427 138.982 14.4374Z" fill="white"/>
    <path fill-rule="evenodd" clip-rule="evenodd" d="M142.29 7.33026C142.292 7.32998 142.293 7.32969 142.295 7.32938C142.362 7.3153 142.42 7.27769 142.46 7.22598C142.501 7.17439 142.522 7.11114 142.522 7.04699C142.522 6.98297 142.501 6.91957 142.46 6.86783C142.42 6.81622 142.362 6.7787 142.295 6.76464C142.293 6.76437 142.292 6.76411 142.291 6.76386C142.05 6.71799 141.744 6.646 141.446 6.53889C141.145 6.43106 140.867 6.29282 140.67 6.12131C140.115 5.6194 139.894 4.79947 139.804 4.23562C139.802 4.22794 139.801 4.22033 139.799 4.21283C139.783 4.15366 139.748 4.10025 139.699 4.0614C139.649 4.02231 139.587 4 139.522 4C139.458 4 139.396 4.02209 139.346 4.06142C139.297 4.10045 139.262 4.15396 139.246 4.21283C139.244 4.22033 139.242 4.22794 139.241 4.23562C139.151 4.80078 138.929 5.62589 138.374 6.12172C138.179 6.29546 137.902 6.43518 137.601 6.54303C137.303 6.64992 136.997 6.72042 136.756 6.7634C136.754 6.76378 136.752 6.7642 136.75 6.76465C136.683 6.7787 136.625 6.81613 136.584 6.86783C136.543 6.91974 136.522 6.98331 136.522 7.04699C136.522 7.11088 136.543 7.17418 136.584 7.22598C136.625 7.27778 136.683 7.3153 136.75 7.32936C136.751 7.32967 136.753 7.32997 136.754 7.33026C136.995 7.37541 137.301 7.44703 137.599 7.55409C137.9 7.66195 138.178 7.80053 138.374 7.97254C138.934 8.47679 139.152 9.24681 139.243 9.76323C139.243 9.76436 139.244 9.76549 139.244 9.76661C139.256 9.82969 139.289 9.88828 139.339 9.9315C139.39 9.97515 139.455 10 139.524 10C139.592 10 139.658 9.97512 139.708 9.9315C139.759 9.88828 139.792 9.82969 139.804 9.76661L139.804 9.76515L139.805 9.76243C139.894 9.24246 140.114 8.47266 140.672 7.97273C140.868 7.80058 141.145 7.66194 141.446 7.55406C141.744 7.44702 142.05 7.3754 142.29 7.33026Z" fill="white"/>
    <defs>
    <filter id="filter0_f_545_1766" x="0.598522" y="16.1128" width="35.3576" height="27.1795" filterUnits="userSpaceOnUse" color-interpolation-filters="sRGB">
    <feFlood flood-opacity="0" result="BackgroundImageFix"/>
    <feBlend mode="normal" in="SourceGraphic" in2="BackgroundImageFix" result="shape"/>
    <feGaussianBlur stdDeviation="2.33404" result="effect1_foregroundBlur_545_1766"/>
    </filter>
    <filter id="filter1_f_545_1766" x="3.19659" y="6.83404" width="33.5726" height="25.5074" filterUnits="userSpaceOnUse" color-interpolation-filters="sRGB">
    <feFlood flood-opacity="0" result="BackgroundImageFix"/>
    <feBlend mode="normal" in="SourceGraphic" in2="BackgroundImageFix" result="shape"/>
    <feGaussianBlur stdDeviation="2.94711" result="effect1_foregroundBlur_545_1766"/>
    </filter>
    <filter id="filter2_f_545_1766" x="24.3755" y="18.9591" width="12.7608" height="13.0025" filterUnits="userSpaceOnUse" color-interpolation-filters="sRGB">
    <feFlood flood-opacity="0" result="BackgroundImageFix"/>
    <feBlend mode="normal" in="SourceGraphic" in2="BackgroundImageFix" result="shape"/>
    <feGaussianBlur stdDeviation="1.20436" result="effect1_foregroundBlur_545_1766"/>
    </filter>
    <filter id="filter3_d_545_1766" x="13.0192" y="25.7538" width="17.7828" height="16.6177" filterUnits="userSpaceOnUse" color-interpolation-filters="sRGB">
    <feFlood flood-opacity="0" result="BackgroundImageFix"/>
    <feColorMatrix in="SourceAlpha" type="matrix" values="0 0 0 0 0 0 0 0 0 0 0 0 0 0 0 0 0 0 127 0" result="hardAlpha"/>
    <feOffset dy="0.497929"/>
    <feGaussianBlur stdDeviation="0.164939"/>
    <feComposite in2="hardAlpha" operator="out"/>
    <feColorMatrix type="matrix" values="0 0 0 0 0 0 0 0 0 0 0 0 0 0 0 0 0 0 0.14 0"/>
    <feBlend mode="normal" in2="BackgroundImageFix" result="effect1_dropShadow_545_1766"/>
    <feBlend mode="normal" in="SourceGraphic" in2="effect1_dropShadow_545_1766" result="shape"/>
    </filter>
    <filter id="filter4_d_545_1766" x="8.72156" y="26.9853" width="3.09839" height="3.09826" filterUnits="userSpaceOnUse" color-interpolation-filters="sRGB">
    <feFlood flood-opacity="0" result="BackgroundImageFix"/>
    <feColorMatrix in="SourceAlpha" type="matrix" values="0 0 0 0 0 0 0 0 0 0 0 0 0 0 0 0 0 0 127 0" result="hardAlpha"/>
    <feOffset dy="0.0496446"/>
    <feGaussianBlur stdDeviation="0.359924"/>
    <feComposite in2="hardAlpha" operator="out"/>
    <feColorMatrix type="matrix" values="0 0 0 0 1 0 0 0 0 0.980392 0 0 0 0 0.713726 0 0 0 1 0"/>
    <feBlend mode="normal" in2="BackgroundImageFix" result="effect1_dropShadow_545_1766"/>
    <feBlend mode="normal" in="SourceGraphic" in2="effect1_dropShadow_545_1766" result="shape"/>
    </filter>
    <filter id="filter5_d_545_1766" x="11.8344" y="33.3098" width="1.5719" height="1.57239" filterUnits="userSpaceOnUse" color-interpolation-filters="sRGB">
    <feFlood flood-opacity="0" result="BackgroundImageFix"/>
    <feColorMatrix in="SourceAlpha" type="matrix" values="0 0 0 0 0 0 0 0 0 0 0 0 0 0 0 0 0 0 127 0" result="hardAlpha"/>
    <feOffset dy="0.0251928"/>
    <feGaussianBlur stdDeviation="0.182648"/>
    <feComposite in2="hardAlpha" operator="out"/>
    <feColorMatrix type="matrix" values="0 0 0 0 1 0 0 0 0 0.980392 0 0 0 0 0.713726 0 0 0 1 0"/>
    <feBlend mode="normal" in2="BackgroundImageFix" result="effect1_dropShadow_545_1766"/>
    <feBlend mode="normal" in="SourceGraphic" in2="effect1_dropShadow_545_1766" result="shape"/>
    </filter>
    <filter id="filter6_d_545_1766" x="7.45846" y="31.1648" width="0.924877" height="0.924877" filterUnits="userSpaceOnUse" color-interpolation-filters="sRGB">
    <feFlood flood-opacity="0" result="BackgroundImageFix"/>
    <feColorMatrix in="SourceAlpha" type="matrix" values="0 0 0 0 0 0 0 0 0 0 0 0 0 0 0 0 0 0 127 0" result="hardAlpha"/>
    <feOffset dy="0.0148193"/>
    <feGaussianBlur stdDeviation="0.10744"/>
    <feComposite in2="hardAlpha" operator="out"/>
    <feColorMatrix type="matrix" values="0 0 0 0 1 0 0 0 0 0.980392 0 0 0 0 0.713726 0 0 0 1 0"/>
    <feBlend mode="normal" in2="BackgroundImageFix" result="effect1_dropShadow_545_1766"/>
    <feBlend mode="normal" in="SourceGraphic" in2="effect1_dropShadow_545_1766" result="shape"/>
    </filter>
    <filter id="filter7_d_545_1766" x="13.4052" y="21.4354" width="1.4801" height="1.47973" filterUnits="userSpaceOnUse" color-interpolation-filters="sRGB">
    <feFlood flood-opacity="0" result="BackgroundImageFix"/>
    <feColorMatrix in="SourceAlpha" type="matrix" values="0 0 0 0 0 0 0 0 0 0 0 0 0 0 0 0 0 0 127 0" result="hardAlpha"/>
    <feOffset dy="0.0237109"/>
    <feGaussianBlur stdDeviation="0.171904"/>
    <feComposite in2="hardAlpha" operator="out"/>
    <feColorMatrix type="matrix" values="0 0 0 0 1 0 0 0 0 0.980392 0 0 0 0 0.713726 0 0 0 1 0"/>
    <feBlend mode="normal" in2="BackgroundImageFix" result="effect1_dropShadow_545_1766"/>
    <feBlend mode="normal" in="SourceGraphic" in2="effect1_dropShadow_545_1766" result="shape"/>
    </filter>
    <filter id="filter8_d_545_1766" x="23.0409" y="23.4912" width="2.31219" height="2.31219" filterUnits="userSpaceOnUse" color-interpolation-filters="sRGB">
    <feFlood flood-opacity="0" result="BackgroundImageFix"/>
    <feColorMatrix in="SourceAlpha" type="matrix" values="0 0 0 0 0 0 0 0 0 0 0 0 0 0 0 0 0 0 127 0" result="hardAlpha"/>
    <feOffset dy="0.0370482"/>
    <feGaussianBlur stdDeviation="0.2686"/>
    <feComposite in2="hardAlpha" operator="out"/>
    <feColorMatrix type="matrix" values="0 0 0 0 1 0 0 0 0 0.980392 0 0 0 0 0.713726 0 0 0 1 0"/>
    <feBlend mode="normal" in2="BackgroundImageFix" result="effect1_dropShadow_545_1766"/>
    <feBlend mode="normal" in="SourceGraphic" in2="effect1_dropShadow_545_1766" result="shape"/>
    </filter>
    <filter id="filter9_d_545_1766" x="24.9325" y="34.2795" width="2.13981" height="2.14018" filterUnits="userSpaceOnUse" color-interpolation-filters="sRGB">
    <feFlood flood-opacity="0" result="BackgroundImageFix"/>
    <feColorMatrix in="SourceAlpha" type="matrix" values="0 0 0 0 0 0 0 0 0 0 0 0 0 0 0 0 0 0 127 0" result="hardAlpha"/>
    <feOffset dy="0.0340844"/>
    <feGaussianBlur stdDeviation="0.247112"/>
    <feComposite in2="hardAlpha" operator="out"/>
    <feColorMatrix type="matrix" values="0 0 0 0 1 0 0 0 0 0.980392 0 0 0 0 0.713726 0 0 0 1 0"/>
    <feBlend mode="normal" in2="BackgroundImageFix" result="effect1_dropShadow_545_1766"/>
    <feBlend mode="normal" in="SourceGraphic" in2="effect1_dropShadow_545_1766" result="shape"/>
    </filter>
    <filter id="filter10_d_545_1766" x="28.3413" y="31.0129" width="1.10995" height="1.10983" filterUnits="userSpaceOnUse" color-interpolation-filters="sRGB">
    <feFlood flood-opacity="0" result="BackgroundImageFix"/>
    <feColorMatrix in="SourceAlpha" type="matrix" values="0 0 0 0 0 0 0 0 0 0 0 0 0 0 0 0 0 0 127 0" result="hardAlpha"/>
    <feOffset dy="0.0177832"/>
    <feGaussianBlur stdDeviation="0.128928"/>
    <feComposite in2="hardAlpha" operator="out"/>
    <feColorMatrix type="matrix" values="0 0 0 0 1 0 0 0 0 0.980392 0 0 0 0 0.713726 0 0 0 1 0"/>
    <feBlend mode="normal" in2="BackgroundImageFix" result="effect1_dropShadow_545_1766"/>
    <feBlend mode="normal" in="SourceGraphic" in2="effect1_dropShadow_545_1766" result="shape"/>
    </filter>
    <filter id="filter11_d_545_1766" x="8.04093" y="22.7442" width="2.31219" height="2.31219" filterUnits="userSpaceOnUse" color-interpolation-filters="sRGB">
    <feFlood flood-opacity="0" result="BackgroundImageFix"/>
    <feColorMatrix in="SourceAlpha" type="matrix" values="0 0 0 0 0 0 0 0 0 0 0 0 0 0 0 0 0 0 127 0" result="hardAlpha"/>
    <feOffset dy="0.0370482"/>
    <feGaussianBlur stdDeviation="0.2686"/>
    <feComposite in2="hardAlpha" operator="out"/>
    <feColorMatrix type="matrix" values="0 0 0 0 1 0 0 0 0 0.980392 0 0 0 0 0.713726 0 0 0 1 0"/>
    <feBlend mode="normal" in2="BackgroundImageFix" result="effect1_dropShadow_545_1766"/>
    <feBlend mode="normal" in="SourceGraphic" in2="effect1_dropShadow_545_1766" result="shape"/>
    </filter>
    <linearGradient id="paint0_linear_545_1766" x1="16.7975" y1="17.183" x2="16.28" y2="20.9257" gradientUnits="userSpaceOnUse">
    <stop stop-color="#FFFDEC"/>
    <stop offset="1" stop-color="#FFF458"/>
    </linearGradient>
    <linearGradient id="paint1_linear_545_1766" x1="16.8228" y1="25.4824" x2="17.912" y2="34.165" gradientUnits="userSpaceOnUse">
    <stop stop-color="#FFFDEC"/>
    <stop offset="1" stop-color="#FFF458"/>
    </linearGradient>
    <linearGradient id="paint2_linear_545_1766" x1="26.7048" y1="13.0481" x2="8.38788" y2="37.961" gradientUnits="userSpaceOnUse">
    <stop stop-color="#FFDD00"/>
    <stop offset="0.0935308" stop-color="#FFCC0C"/>
    <stop offset="0.189343" stop-color="#FFA82E"/>
    <stop offset="0.434197" stop-color="#FF7F5B"/>
    <stop offset="0.750022" stop-color="#8320F7"/>
    <stop offset="1" stop-color="#250944"/>
    </linearGradient>
    <linearGradient id="paint3_linear_545_1766" x1="29.3813" y1="23.1216" x2="31.1519" y2="28.3612" gradientUnits="userSpaceOnUse">
    <stop stop-color="white"/>
    <stop offset="1" stop-color="#87FDFF"/>
    </linearGradient>
    <linearGradient id="paint4_linear_545_1766" x1="5.27233" y1="-0.0665203" x2="5.26853" y2="3.54629" gradientUnits="userSpaceOnUse">
    <stop stop-color="#DAFDFF"/>
    <stop offset="0.17" stop-color="#54F9FF"/>
    <stop offset="0.345" stop-color="#2BCCF9"/>
    <stop offset="0.5" stop-color="#0A9DF3"/>
    <stop offset="0.726864" stop-color="#46B0F5"/>
    <stop offset="0.875672" stop-color="#6FBFF7"/>
    <stop offset="1" stop-color="#D9EAFD"/>
    </linearGradient>
    <linearGradient id="paint5_linear_545_1766" x1="25.2004" y1="28.0444" x2="27.82" y2="30.8619" gradientUnits="userSpaceOnUse">
    <stop stop-color="#EAFAF7"/>
    <stop offset="0.17" stop-color="#8CE1F8"/>
    <stop offset="0.345" stop-color="#1BC4F3"/>
    <stop offset="0.5" stop-color="#0961E6"/>
    <stop offset="0.77" stop-color="#113EE0"/>
    <stop offset="0.875672" stop-color="#175CE7"/>
    <stop offset="1" stop-color="#40B6EF"/>
    </linearGradient>
    <linearGradient id="paint6_linear_545_1766" x1="10.4058" y1="27.5753" x2="10.1084" y2="29.5146" gradientUnits="userSpaceOnUse">
    <stop stop-color="#FFFFDE"/>
    <stop offset="0.462436" stop-color="#FFFC0E"/>
    <stop offset="1" stop-color="#FFDA06"/>
    </linearGradient>
    <linearGradient id="paint7_linear_545_1766" x1="12.6889" y1="33.6093" x2="12.538" y2="34.5934" gradientUnits="userSpaceOnUse">
    <stop stop-color="#FFFFDE"/>
    <stop offset="0.462436" stop-color="#FFFC0E"/>
    <stop offset="1" stop-color="#FFDA06"/>
    </linearGradient>
    <linearGradient id="paint8_linear_545_1766" x1="7.96137" y1="31.341" x2="7.87258" y2="31.9199" gradientUnits="userSpaceOnUse">
    <stop stop-color="#FFFFDE"/>
    <stop offset="0.462436" stop-color="#FFFC0E"/>
    <stop offset="1" stop-color="#FFDA06"/>
    </linearGradient>
    <linearGradient id="paint9_linear_545_1766" x1="14.2098" y1="21.7172" x2="14.0677" y2="22.6434" gradientUnits="userSpaceOnUse">
    <stop stop-color="#FFFFDE"/>
    <stop offset="0.462436" stop-color="#FFFC0E"/>
    <stop offset="1" stop-color="#FFDA06"/>
    </linearGradient>
    <linearGradient id="paint10_linear_545_1766" x1="24.298" y1="23.9316" x2="24.076" y2="25.3788" gradientUnits="userSpaceOnUse">
    <stop stop-color="#FFFFDE"/>
    <stop offset="0.462436" stop-color="#FFFC0E"/>
    <stop offset="1" stop-color="#FFDA06"/>
    </linearGradient>
    <linearGradient id="paint11_linear_545_1766" x1="25.9968" y1="34.6843" x2="26.0024" y2="36.0313" gradientUnits="userSpaceOnUse">
    <stop stop-color="#FFFFDE"/>
    <stop offset="0.462436" stop-color="#FFFC0E"/>
    <stop offset="1" stop-color="#FFDA06"/>
    </linearGradient>
    <linearGradient id="paint12_linear_545_1766" x1="28.9446" y1="31.2242" x2="28.838" y2="31.9189" gradientUnits="userSpaceOnUse">
    <stop stop-color="#FFFFDE"/>
    <stop offset="0.462436" stop-color="#FFFC0E"/>
    <stop offset="1" stop-color="#FFDA06"/>
    </linearGradient>
    <linearGradient id="paint13_linear_545_1766" x1="9.29796" y1="23.1846" x2="9.07598" y2="24.6318" gradientUnits="userSpaceOnUse">
    <stop stop-color="#FFFFDE"/>
    <stop offset="0.462436" stop-color="#FFFC0E"/>
    <stop offset="1" stop-color="#FFDA06"/>
    </linearGradient>
    <linearGradient id="paint14_linear_545_1766" x1="109.023" y1="20.5001" x2="129.572" y2="30.1268" gradientUnits="userSpaceOnUse">
    <stop stop-color="#D100D5"/>
    <stop offset="0.48" stop-color="#FF9820"/>
    <stop offset="1" stop-color="#FF371E"/>
    </linearGradient>
    </defs>
</svg>
    