<svg width="33" height="34" viewBox="0 0 33 34" fill="none" xmlns="http://www.w3.org/2000/svg">
    <rect x="0.0932617" width="32" height="33.1429" rx="4.57143" fill="#121214"/>
    <g clip-path="url(#clip0_545_1353)">
    <path d="M16.0933 27.0713C13.3085 27.0713 10.6378 25.965 8.66864 23.9959C6.69951 22.0268 5.59326 19.3561 5.59326 16.5713C5.59326 13.7865 6.69951 11.1158 8.66864 9.14667C10.6378 7.17754 13.3085 6.07129 16.0933 6.07129C18.878 6.07129 21.5487 7.17754 23.5179 9.14667C25.487 11.1158 26.5933 13.7865 26.5933 16.5713C26.5933 19.3561 25.487 22.0268 23.5179 23.9959C21.5487 25.965 18.878 27.0713 16.0933 27.0713ZM16.0933 28.5713C19.2759 28.5713 22.3281 27.307 24.5785 25.0566C26.829 22.8061 28.0933 19.7539 28.0933 16.5713C28.0933 13.3887 26.829 10.3364 24.5785 8.08601C22.3281 5.83557 19.2759 4.57129 16.0933 4.57129C12.9107 4.57129 9.85842 5.83557 7.60798 8.08601C5.35754 10.3364 4.09326 13.3887 4.09326 16.5713C4.09326 19.7539 5.35754 22.8061 7.60798 25.0566C9.85842 27.307 12.9107 28.5713 16.0933 28.5713Z" fill="#007BFF"/>
    <path d="M22.5885 18.8213C22.7201 19.0493 22.7894 19.308 22.7894 19.5713C22.7894 19.8346 22.7201 20.0933 22.5885 20.3213C21.9301 21.4616 20.9831 22.4085 19.8427 23.0668C18.7023 23.7251 17.4087 24.0715 16.092 24.0713C14.7755 24.0713 13.4822 23.7247 12.3421 23.0664C11.202 22.4082 10.2552 21.4614 9.59696 20.3213C9.46537 20.0934 9.39606 19.8348 9.396 19.5717C9.39593 19.3085 9.4651 19.0499 9.59657 18.822C9.72804 18.594 9.91718 18.4046 10.145 18.2728C10.3728 18.1411 10.6313 18.0716 10.8945 18.0713H21.2895C21.5528 18.0713 21.8114 18.1406 22.0394 18.2723C22.2675 18.4039 22.4568 18.5933 22.5885 18.8213ZM14.592 14.3213C14.592 15.5633 13.92 14.3213 13.092 14.3213C12.264 14.3213 11.592 15.5633 11.592 14.3213C11.592 13.0793 12.264 12.0713 13.092 12.0713C13.92 12.0713 14.592 13.0793 14.592 14.3213ZM20.592 14.3213C20.592 15.5633 19.92 14.3213 19.092 14.3213C18.264 14.3213 17.592 15.5633 17.592 14.3213C17.592 13.0793 18.264 12.0713 19.092 12.0713C19.92 12.0713 20.592 13.0793 20.592 14.3213Z" fill="#007BFF"/>
    </g>
    <defs>
    <clipPath id="clip0_545_1353">
    <rect width="24" height="24" fill="white" transform="translate(4.09326 4.57141)"/>
    </clipPath>
    </defs>
</svg>    