<svg width="20" height="24" viewBox="0 0 20 24" fill="none" xmlns="http://www.w3.org/2000/svg">
<path d="M1.8462 8.00494V15.1378C1.8462 15.6526 1.28894 15.9743 0.843141 15.7169C0.636244 15.5975 0.508789 15.3767 0.508789 15.1378V8.00494C0.508789 7.49017 1.06604 7.16844 1.51184 7.42582C1.71874 7.54527 1.8462 7.76603 1.8462 8.00494ZM5.63553 0.203369C5.2662 0.203351 4.96682 0.502749 4.96682 0.872073V22.2707C4.96682 22.7854 5.52408 23.1072 5.96989 22.8498C6.17678 22.7303 6.30424 22.5096 6.30424 22.2707V0.872073C6.30424 0.502758 6.00485 0.203369 5.63553 0.203369ZM10.0936 3.7698C9.72425 3.76979 9.42487 4.06918 9.42487 4.43851V18.7042C9.42487 19.219 9.98212 19.5407 10.4279 19.2833C10.6348 19.1639 10.7623 18.9431 10.7623 18.7042V4.4385C10.7623 4.06921 10.4629 3.76982 10.0936 3.7698ZM14.5516 7.33624C14.1823 7.33624 13.8829 7.63562 13.8829 8.00494V15.1378C13.8829 15.6526 14.4402 15.9743 14.886 15.7169C15.0929 15.5975 15.2203 15.3767 15.2203 15.1378V8.00494C15.2203 7.63562 14.9209 7.33624 14.5516 7.33624ZM19.0096 5.55302C18.6403 5.55302 18.3409 5.85241 18.3409 6.22172V16.921C18.3409 17.4358 18.8982 17.7575 19.344 17.5001C19.5509 17.3807 19.6784 17.1599 19.6784 16.921V6.22172C19.6784 5.85241 19.379 5.55304 19.0096 5.55302Z" fill="#007BFF" stroke="#007BFF" stroke-width="0.4"/>
</svg>
